M48
; DRILL file {KiCad 9.0.2} date 2026-04-01T22:26:23-0700
; FORMAT={-:-/ absolute / metric / decimal}
; #@! TF.CreationDate,2026-04-01T22:26:23-07:00
; #@! TF.GenerationSoftware,Kicad,Pcbnew,9.0.2
; #@! TF.FileFunction,Plated,1,2,PTH
FMAT,2
METRIC
; #@! TA.AperFunction,Plated,PTH,ViaDrill
T1C0.100
; #@! TA.AperFunction,Plated,PTH,ViaDrill
T2C0.300
; #@! TA.AperFunction,Plated,PTH,ComponentDrill
T3C0.300
; #@! TA.AperFunction,Plated,PTH,ComponentDrill
T4C0.600
; #@! TA.AperFunction,Plated,PTH,ComponentDrill
T5C1.000
; #@! TA.AperFunction,Plated,PTH,ComponentDrill
T6C1.400
%
G90
G05
T1
X146.921Y-91.145
X147.117Y-90.475
X147.7Y-93.981
X148.294Y-96.805
X148.492Y-93.287
X148.59Y-93.96
X148.59Y-105.408
X149.444Y-91.74
X152.302Y-105.82
X152.465Y-104.96
X153.161Y-104.774
X153.961Y-103.251
X154.431Y-102.235
X155.732Y-105.562
X156.252Y-88.942
X158.624Y-96.01
X158.648Y-100.484
X159.005Y-96.902
X159.651Y-95.162
X160.267Y-94.496
X160.478Y-99.771
T2
X145.796Y-96.647
X145.948Y-114.524
X147.251Y-117.821
X147.315Y-101.401
X147.32Y-84.531
X147.371Y-77.064
X147.447Y-112.649
X147.573Y-100.295
X147.65Y-83.033
X147.701Y-106.807
X148.061Y-101.69
X148.209Y-99.695
X148.308Y-86.258
X148.59Y-113.538
X148.641Y-119.075
X148.99Y-92.206
X149.733Y-79.248
X150.925Y-78.916
X151.13Y-97.079
X151.13Y-97.942
X151.13Y-117.094
X151.179Y-105.791
X151.431Y-93.311
X151.689Y-118.923
X151.841Y-105.258
X152.273Y-87.751
X152.447Y-93.702
X153.018Y-79.358
X153.271Y-85.448
X153.775Y-91.693
X154.305Y-84.328
X154.305Y-88.519
X154.681Y-97.582
X154.737Y-118.974
X155.042Y-93.32
X155.067Y-81.407
X155.448Y-96.418
X155.555Y-113.772
X155.6Y-94.234
X155.882Y-101.801
X155.883Y-102.799
X155.883Y-104.546
X156.372Y-100.695
X156.566Y-107.137
X156.972Y-75.336
X157.226Y-84.328
X157.429Y-88.189
X157.734Y-117.602
X158.293Y-118.77
X159.004Y-120.142
X159.207Y-88.595
X159.673Y-109.271
X160.571Y-98.849
T3
X149.929Y-109.001
X149.929Y-110.201
X151.129Y-109.001
X151.129Y-110.201
T5
X144.485Y-72.807
X144.485Y-75.347
X144.485Y-77.888
X144.485Y-80.427
X144.485Y-82.968
X144.485Y-85.507
X144.485Y-88.047
X144.485Y-90.587
X144.485Y-93.127
X144.485Y-95.667
X144.485Y-98.207
X144.485Y-100.748
X144.485Y-103.287
X144.485Y-105.828
X144.485Y-108.367
X144.485Y-110.907
X144.485Y-113.447
X144.485Y-115.987
X144.485Y-118.527
X144.485Y-121.067
X149.879Y-115.491
X152.419Y-115.491
X158.623Y-102.489
X158.623Y-105.029
X162.265Y-72.807
X162.265Y-75.347
X162.265Y-77.888
X162.265Y-80.427
X162.265Y-82.968
X162.265Y-85.507
X162.265Y-88.047
X162.265Y-90.587
X162.265Y-93.127
X162.265Y-95.667
X162.265Y-98.207
X162.265Y-100.748
X162.265Y-103.287
X162.265Y-105.828
X162.265Y-108.367
X162.265Y-110.907
X162.265Y-113.447
X162.265Y-115.987
X162.265Y-118.527
X162.265Y-121.067
T6
X149.875Y-121.051
X153.375Y-121.051
X156.875Y-121.051
T4
X149.055Y-72.938G85X149.055Y-72.337
G05
X149.055Y-77.367G85X149.055Y-76.267
G05
X157.695Y-72.938G85X157.695Y-72.337
G05
X157.695Y-77.367G85X157.695Y-76.267
G05
M30
