%TF.GenerationSoftware,KiCad,Pcbnew,9.0.2*%
%TF.CreationDate,2026-04-01T22:26:16-07:00*%
%TF.ProjectId,PicoCAN,5069636f-4341-44e2-9e6b-696361645f70,rev?*%
%TF.SameCoordinates,Original*%
%TF.FileFunction,Legend,Bot*%
%TF.FilePolarity,Positive*%
%FSLAX46Y46*%
G04 Gerber Fmt 4.6, Leading zero omitted, Abs format (unit mm)*
G04 Created by KiCad (PCBNEW 9.0.2) date 2026-04-01 22:26:16*
%MOMM*%
%LPD*%
G01*
G04 APERTURE LIST*
%ADD10C,0.000000*%
%ADD11C,0.150000*%
%ADD12C,0.100000*%
%ADD13C,0.160000*%
%ADD14C,0.200000*%
G04 APERTURE END LIST*
D10*
G36*
X153571297Y-96975357D02*
G01*
X153693339Y-97000268D01*
X153809871Y-97041542D01*
X153920314Y-97097681D01*
X154020195Y-97165384D01*
X154110412Y-97244996D01*
X154189879Y-97335399D01*
X154257381Y-97435597D01*
X154313256Y-97546514D01*
X154354324Y-97663509D01*
X154379116Y-97786004D01*
X154387506Y-97915198D01*
X154379117Y-98044394D01*
X154354327Y-98166930D01*
X154313256Y-98284005D01*
X154257413Y-98394858D01*
X154190146Y-98494764D01*
X154111145Y-98584668D01*
X154021422Y-98663806D01*
X153921794Y-98731276D01*
X153811337Y-98787390D01*
X153694790Y-98828622D01*
X153572270Y-98853554D01*
X153442530Y-98862006D01*
X153313754Y-98853586D01*
X153191419Y-98828685D01*
X153074334Y-98787390D01*
X152963447Y-98731280D01*
X152863329Y-98663810D01*
X152773060Y-98584668D01*
X152693682Y-98494730D01*
X152626176Y-98394823D01*
X152570217Y-98284005D01*
X152529215Y-98166936D01*
X152504464Y-98044398D01*
X152496089Y-97915198D01*
X152550800Y-97915198D01*
X152558681Y-98037496D01*
X152581966Y-98153462D01*
X152620531Y-98264221D01*
X152673140Y-98369093D01*
X152736665Y-98463599D01*
X152811407Y-98548642D01*
X152896469Y-98623411D01*
X152990824Y-98687141D01*
X153095339Y-98740129D01*
X153205718Y-98779056D01*
X153321073Y-98802532D01*
X153442530Y-98810470D01*
X153564951Y-98802500D01*
X153680491Y-98778993D01*
X153790332Y-98740129D01*
X153894417Y-98687136D01*
X153988281Y-98623408D01*
X154072799Y-98548642D01*
X154147173Y-98463637D01*
X154210501Y-98369132D01*
X154263064Y-98264221D01*
X154301628Y-98153462D01*
X154324914Y-98037496D01*
X154332795Y-97915198D01*
X154324911Y-97792821D01*
X154301622Y-97676856D01*
X154263064Y-97566175D01*
X154210470Y-97461285D01*
X154146908Y-97366568D01*
X154072066Y-97281144D01*
X153987043Y-97205841D01*
X153892926Y-97141881D01*
X153788866Y-97088925D01*
X153679035Y-97049950D01*
X153563973Y-97026424D01*
X153442530Y-97018461D01*
X153321078Y-97026412D01*
X153205723Y-97049928D01*
X153095339Y-97088925D01*
X152990914Y-97141936D01*
X152896811Y-97205903D01*
X152812139Y-97281144D01*
X152737751Y-97366489D01*
X152674216Y-97461207D01*
X152621264Y-97566175D01*
X152582291Y-97676889D01*
X152558763Y-97792849D01*
X152550800Y-97915198D01*
X152496089Y-97915198D01*
X152504466Y-97786000D01*
X152529218Y-97663504D01*
X152570217Y-97546514D01*
X152626153Y-97435585D01*
X152693657Y-97335387D01*
X152773060Y-97244996D01*
X152863374Y-97165413D01*
X152963493Y-97097706D01*
X153074334Y-97041542D01*
X153191419Y-97000246D01*
X153313754Y-96975345D01*
X153442530Y-96966925D01*
X153571297Y-96975357D01*
G37*
G36*
X154313316Y-100720353D02*
G01*
X154340367Y-100738524D01*
X154357966Y-100765895D01*
X154364058Y-100800928D01*
X154364058Y-101216385D01*
X154358923Y-101245698D01*
X154342687Y-101275125D01*
X154316581Y-101295855D01*
X154277108Y-101303335D01*
X152614303Y-101303335D01*
X152564941Y-101293135D01*
X152537552Y-101265746D01*
X152527352Y-101216385D01*
X152582063Y-101216385D01*
X152590896Y-101242956D01*
X152617356Y-101251800D01*
X154274055Y-101251800D01*
X154300800Y-101240687D01*
X154309348Y-101216385D01*
X154309348Y-100800928D01*
X154299578Y-100776015D01*
X154274055Y-100765512D01*
X152617356Y-100765512D01*
X152590896Y-100774356D01*
X152582063Y-100800928D01*
X152582063Y-101216385D01*
X152527352Y-101216385D01*
X152527352Y-100800928D01*
X152537552Y-100751566D01*
X152564941Y-100724177D01*
X152614303Y-100713977D01*
X154277108Y-100713977D01*
X154313316Y-100720353D01*
G37*
G36*
X152604899Y-92791838D02*
G01*
X152623095Y-92796357D01*
X154581190Y-93559982D01*
X154626968Y-93588077D01*
X154652399Y-93623498D01*
X154661058Y-93668548D01*
X154661058Y-94011099D01*
X154652138Y-94058897D01*
X154626488Y-94094628D01*
X154581068Y-94121130D01*
X152623095Y-94880359D01*
X152588169Y-94886465D01*
X152562632Y-94881975D01*
X152543839Y-94869246D01*
X152531906Y-94848894D01*
X152527352Y-94816978D01*
X152527352Y-94400177D01*
X152532289Y-94363270D01*
X152546403Y-94333133D01*
X152569873Y-94309338D01*
X152605998Y-94291611D01*
X152735325Y-94247159D01*
X152863430Y-94202096D01*
X152863430Y-94094242D01*
X153316745Y-94094242D01*
X154055335Y-93843426D01*
X153316745Y-93584270D01*
X153316745Y-94094242D01*
X152863430Y-94094242D01*
X152863430Y-93476085D01*
X152605876Y-93383639D01*
X152569515Y-93365375D01*
X152546403Y-93343705D01*
X152532482Y-93315660D01*
X152527352Y-93276538D01*
X152527352Y-92859738D01*
X152531906Y-92827822D01*
X152543839Y-92807470D01*
X152562632Y-92794741D01*
X152588169Y-92790251D01*
X152604899Y-92791838D01*
G37*
G36*
X152788587Y-95013131D02*
G01*
X152827160Y-95037773D01*
X152816047Y-95034354D01*
X153155056Y-95259546D01*
X153180213Y-95287634D01*
X153191693Y-95320851D01*
X153182778Y-95358098D01*
X153152614Y-95403405D01*
X153156155Y-95392292D01*
X153095461Y-95516001D01*
X153074105Y-95588312D01*
X153066640Y-95672072D01*
X153077055Y-95778973D01*
X153107673Y-95876748D01*
X153156805Y-95965375D01*
X153220880Y-96040268D01*
X153298586Y-96101315D01*
X153389407Y-96148101D01*
X153488820Y-96177165D01*
X153597136Y-96187058D01*
X153705243Y-96177151D01*
X153804010Y-96148101D01*
X153894063Y-96101305D01*
X153970461Y-96040390D01*
X154033179Y-95965571D01*
X154081347Y-95876870D01*
X154111504Y-95779124D01*
X154121769Y-95672194D01*
X154115355Y-95592378D01*
X154096979Y-95522718D01*
X154066305Y-95457261D01*
X154021141Y-95390460D01*
X154004289Y-95360174D01*
X153996717Y-95326835D01*
X154004463Y-95293693D01*
X154027858Y-95268216D01*
X154379079Y-95024951D01*
X154419502Y-95013960D01*
X154457115Y-95022386D01*
X154490210Y-95049009D01*
X154568368Y-95176381D01*
X154632481Y-95322683D01*
X154676079Y-95487913D01*
X154688180Y-95576916D01*
X154692321Y-95672194D01*
X154682623Y-95822565D01*
X154653987Y-95964941D01*
X154606592Y-96100718D01*
X154542017Y-96229427D01*
X154464222Y-96345570D01*
X154372851Y-96450230D01*
X154268923Y-96542394D01*
X154153551Y-96620788D01*
X154025660Y-96685802D01*
X153890568Y-96733435D01*
X153748453Y-96762249D01*
X153597869Y-96772020D01*
X153447737Y-96762062D01*
X153304777Y-96732574D01*
X153168202Y-96684870D01*
X153041728Y-96621444D01*
X152924956Y-96542651D01*
X152819100Y-96449619D01*
X152725845Y-96343873D01*
X152646909Y-96227236D01*
X152583453Y-96101006D01*
X152535656Y-95964675D01*
X152506079Y-95822060D01*
X152496089Y-95672194D01*
X152502857Y-95542460D01*
X152522283Y-95426526D01*
X152553364Y-95322683D01*
X152617921Y-95176229D01*
X152691483Y-95054870D01*
X152728984Y-95017053D01*
X152761947Y-95006632D01*
X152788587Y-95013131D01*
G37*
D11*
X154017973Y-118557778D02*
G75*
G02*
X152716859Y-118557778I-650557J0D01*
G01*
X152716859Y-118557778D02*
G75*
G02*
X154017973Y-118557778I650557J0D01*
G01*
D10*
G36*
X154985302Y-100720463D02*
G01*
X155028765Y-100741943D01*
X155056738Y-100779233D01*
X155067478Y-100843182D01*
X155067478Y-101163872D01*
X155055826Y-101234189D01*
X155025834Y-101274026D01*
X154980537Y-101296815D01*
X154924107Y-101304801D01*
X154655440Y-101304801D01*
X154589093Y-101293672D01*
X154554079Y-101265600D01*
X154535140Y-101222343D01*
X154528190Y-101163872D01*
X154582900Y-101163872D01*
X154586963Y-101201159D01*
X154597921Y-101228475D01*
X154618624Y-101246323D01*
X154657272Y-101253265D01*
X154922520Y-101253265D01*
X154959129Y-101248159D01*
X154987244Y-101233848D01*
X155005569Y-101208790D01*
X155012767Y-101163872D01*
X155012767Y-100843182D01*
X155006142Y-100804770D01*
X154988709Y-100781999D01*
X154961587Y-100768940D01*
X154922520Y-100764047D01*
X154658737Y-100764047D01*
X154619277Y-100769996D01*
X154598532Y-100784685D01*
X154587215Y-100808092D01*
X154582900Y-100843182D01*
X154582900Y-101163872D01*
X154528190Y-101163872D01*
X154528190Y-100843182D01*
X154535505Y-100785449D01*
X154554812Y-100746584D01*
X154589903Y-100722372D01*
X154656906Y-100712512D01*
X154924107Y-100712512D01*
X154985302Y-100720463D01*
G37*
G36*
X154000956Y-102046356D02*
G01*
X154047764Y-102058656D01*
X154091973Y-102078627D01*
X154131539Y-102105917D01*
X154165340Y-102140177D01*
X154192234Y-102181510D01*
X154209561Y-102228210D01*
X154215559Y-102282260D01*
X154215559Y-102609790D01*
X153691902Y-102609790D01*
X153691902Y-102558255D01*
X153746612Y-102558255D01*
X154160848Y-102558255D01*
X154160848Y-102282260D01*
X154156076Y-102239846D01*
X154142286Y-102203248D01*
X154094536Y-102144019D01*
X154028102Y-102106772D01*
X153953730Y-102093827D01*
X153877160Y-102106772D01*
X153810726Y-102143164D01*
X153764320Y-102201782D01*
X153751208Y-102238608D01*
X153746612Y-102282260D01*
X153746612Y-102558255D01*
X153691902Y-102558255D01*
X153691902Y-102282260D01*
X153697691Y-102228161D01*
X153714372Y-102181510D01*
X153740517Y-102140247D01*
X153773479Y-102106039D01*
X153812659Y-102078721D01*
X153857377Y-102058656D01*
X153905115Y-102046369D01*
X153953730Y-102042292D01*
X154000956Y-102046356D01*
G37*
G36*
X153534518Y-97490698D02*
G01*
X153620705Y-97513785D01*
X153700545Y-97551267D01*
X153769693Y-97601224D01*
X153827532Y-97663282D01*
X153872520Y-97737267D01*
X153900961Y-97820125D01*
X153910744Y-97913855D01*
X153901161Y-98007622D01*
X153873252Y-98091053D01*
X153828831Y-98165782D01*
X153771159Y-98228684D01*
X153701998Y-98279317D01*
X153622171Y-98317588D01*
X153535766Y-98341107D01*
X153442530Y-98349096D01*
X153350346Y-98341168D01*
X153262767Y-98317588D01*
X153181877Y-98279361D01*
X153113169Y-98229417D01*
X153055959Y-98167193D01*
X153011075Y-98092519D01*
X152982613Y-98009049D01*
X152972851Y-97915320D01*
X153027562Y-97915320D01*
X153036134Y-97997619D01*
X153061145Y-98071025D01*
X153100608Y-98136834D01*
X153151148Y-98192170D01*
X153212020Y-98236666D01*
X153283528Y-98270205D01*
X153360988Y-98290675D01*
X153442530Y-98297560D01*
X153525093Y-98290434D01*
X153601410Y-98269473D01*
X153671911Y-98235470D01*
X153733057Y-98190704D01*
X153784122Y-98135278D01*
X153823183Y-98069560D01*
X153847640Y-97996192D01*
X153856033Y-97913855D01*
X153847443Y-97831661D01*
X153822450Y-97758883D01*
X153782966Y-97693731D01*
X153732324Y-97639082D01*
X153671694Y-97595163D01*
X153600677Y-97561901D01*
X153523948Y-97541356D01*
X153442530Y-97534424D01*
X153361095Y-97541353D01*
X153284261Y-97561901D01*
X153213200Y-97595115D01*
X153151881Y-97639082D01*
X153100789Y-97693875D01*
X153061145Y-97759493D01*
X153036137Y-97832915D01*
X153027562Y-97915320D01*
X152972851Y-97915320D01*
X152982634Y-97821590D01*
X153011075Y-97738733D01*
X153056028Y-97664610D01*
X153113901Y-97601957D01*
X153183194Y-97551456D01*
X153263500Y-97513785D01*
X153350423Y-97490681D01*
X153442530Y-97482888D01*
X153534518Y-97490698D01*
G37*
G36*
X154084895Y-101505084D02*
G01*
X154213849Y-101541960D01*
X154334192Y-101601145D01*
X154439896Y-101679713D01*
X154529137Y-101776712D01*
X154599997Y-101892327D01*
X154633614Y-101976754D01*
X154654068Y-102067476D01*
X154661058Y-102165757D01*
X154661058Y-103063471D01*
X154655421Y-103096118D01*
X154638709Y-103123677D01*
X154612215Y-103142181D01*
X154572520Y-103148956D01*
X152614425Y-103148956D01*
X152564843Y-103138851D01*
X152537488Y-103111852D01*
X152527352Y-103063471D01*
X152582063Y-103063471D01*
X152590794Y-103088815D01*
X152617478Y-103097421D01*
X154569467Y-103097421D01*
X154597188Y-103087651D01*
X154606347Y-103063471D01*
X154606347Y-102165757D01*
X154591968Y-102031493D01*
X154550049Y-101912355D01*
X154484542Y-101805648D01*
X154401916Y-101716106D01*
X154304110Y-101643661D01*
X154193088Y-101589343D01*
X154074342Y-101555584D01*
X153953242Y-101544403D01*
X153833677Y-101555399D01*
X153716326Y-101588611D01*
X153606712Y-101642059D01*
X153510308Y-101713297D01*
X153429046Y-101801204D01*
X153364495Y-101905882D01*
X153323145Y-102022891D01*
X153308929Y-102155498D01*
X153308929Y-102609790D01*
X152617600Y-102609790D01*
X152591170Y-102619139D01*
X152582063Y-102648136D01*
X152582063Y-103063471D01*
X152527352Y-103063471D01*
X152527352Y-102648136D01*
X152537703Y-102596842D01*
X152565256Y-102568659D01*
X152614425Y-102558255D01*
X153254219Y-102558255D01*
X153254219Y-102155498D01*
X153261146Y-102057281D01*
X153281347Y-101967314D01*
X153314425Y-101884267D01*
X153384425Y-101770675D01*
X153472328Y-101675317D01*
X153576648Y-101598218D01*
X153695566Y-101540495D01*
X153823005Y-101504728D01*
X153953242Y-101492868D01*
X154084895Y-101505084D01*
G37*
G36*
X154608545Y-90695746D02*
G01*
X154636023Y-90718583D01*
X154654219Y-90748869D01*
X154661058Y-90780865D01*
X154661058Y-91170066D01*
X154653943Y-91209728D01*
X154634313Y-91236378D01*
X154605532Y-91252942D01*
X154572520Y-91258482D01*
X153527649Y-91258482D01*
X154586197Y-91911343D01*
X154617286Y-91934875D01*
X154640786Y-91962878D01*
X154655915Y-91995474D01*
X154661058Y-92032731D01*
X154661058Y-92485924D01*
X154653888Y-92525442D01*
X154634191Y-92551503D01*
X154605479Y-92567505D01*
X154572520Y-92572875D01*
X152614425Y-92572875D01*
X152564982Y-92562669D01*
X152537560Y-92535274D01*
X152527352Y-92485924D01*
X152527352Y-92095380D01*
X152532539Y-92052537D01*
X152545915Y-92025038D01*
X152569932Y-92007942D01*
X152614425Y-92001102D01*
X153733545Y-92001102D01*
X152600869Y-91313314D01*
X152568912Y-91288866D01*
X152546159Y-91258604D01*
X152531926Y-91224217D01*
X152527352Y-91190338D01*
X152527352Y-90780865D01*
X152537910Y-90726639D01*
X152565651Y-90697280D01*
X152614425Y-90686587D01*
X154572520Y-90686587D01*
X154608545Y-90695746D01*
G37*
D11*
X153672216Y-118557778D02*
X153062616Y-118557778D01*
D10*
G36*
X154055335Y-93843426D02*
G01*
X153316745Y-94099637D01*
X153316745Y-94027341D01*
X153316745Y-93653649D01*
X153371455Y-93653649D01*
X153371455Y-94027341D01*
X153897799Y-93843426D01*
X153766518Y-93796775D01*
X153635726Y-93749514D01*
X153505667Y-93702131D01*
X153371455Y-93653649D01*
X153316745Y-93653649D01*
X153316745Y-93581475D01*
X154055335Y-93843426D01*
G37*
G36*
X152841326Y-98938698D02*
G01*
X152988238Y-99038715D01*
X153132342Y-99140198D01*
X153129167Y-99132383D01*
X153155178Y-99163401D01*
X153160430Y-99195519D01*
X153156099Y-99225426D01*
X153143821Y-99248886D01*
X153104987Y-99307627D01*
X153067617Y-99378579D01*
X153038919Y-99460279D01*
X153027562Y-99549671D01*
X153035043Y-99626889D01*
X153057115Y-99698171D01*
X153093103Y-99762928D01*
X153141623Y-99818583D01*
X153201307Y-99863765D01*
X153273270Y-99898694D01*
X153352778Y-99920091D01*
X153442774Y-99927515D01*
X153534029Y-99919527D01*
X153614355Y-99896496D01*
X153686960Y-99859756D01*
X153746735Y-99813576D01*
X153795784Y-99757504D01*
X153832708Y-99693775D01*
X153856054Y-99624242D01*
X153863849Y-99551015D01*
X153858250Y-99472659D01*
X153841623Y-99397752D01*
X153812065Y-99323940D01*
X153761145Y-99237041D01*
X153746612Y-99188192D01*
X153752719Y-99157417D01*
X153774578Y-99132383D01*
X153928329Y-99032609D01*
X154082446Y-98931371D01*
X154119327Y-98920502D01*
X154149523Y-98928210D01*
X154180510Y-98954085D01*
X154268559Y-99080603D01*
X154333528Y-99216036D01*
X154373584Y-99370397D01*
X154383854Y-99455392D01*
X154387506Y-99553946D01*
X154379140Y-99681258D01*
X154354401Y-99802127D01*
X154313378Y-99917745D01*
X154257683Y-100027140D01*
X154190586Y-100125834D01*
X154111756Y-100214745D01*
X154022309Y-100292885D01*
X153922932Y-100359382D01*
X153812680Y-100414535D01*
X153696456Y-100454984D01*
X153574688Y-100479415D01*
X153446194Y-100487686D01*
X153311927Y-100479067D01*
X153187027Y-100453809D01*
X153070060Y-100412337D01*
X152959462Y-100355661D01*
X152860348Y-100287736D01*
X152771717Y-100208272D01*
X152693939Y-100118016D01*
X152627808Y-100018099D01*
X152573026Y-99907609D01*
X152532345Y-99791152D01*
X152506696Y-99670211D01*
X152496089Y-99543810D01*
X152496417Y-99539535D01*
X152550800Y-99539535D01*
X152558340Y-99662031D01*
X152580590Y-99778017D01*
X152617356Y-99888558D01*
X152667982Y-99993441D01*
X152729679Y-100088149D01*
X152802736Y-100173590D01*
X152886431Y-100248649D01*
X152980527Y-100312636D01*
X153086058Y-100365809D01*
X153197656Y-100404477D01*
X153317244Y-100428082D01*
X153446194Y-100436151D01*
X153567369Y-100428361D01*
X153682158Y-100405355D01*
X153791675Y-100367274D01*
X153895474Y-100315244D01*
X153989091Y-100252450D01*
X154073409Y-100178597D01*
X154147677Y-100094574D01*
X154210832Y-100001280D01*
X154263186Y-99897840D01*
X154301698Y-99788616D01*
X154324935Y-99674359D01*
X154332795Y-99553946D01*
X154329191Y-99461731D01*
X154318996Y-99381266D01*
X154279306Y-99233988D01*
X154217268Y-99104172D01*
X154136668Y-98985226D01*
X154125922Y-98975945D01*
X154114931Y-98972037D01*
X154107237Y-98975579D01*
X153795207Y-99178294D01*
X153793507Y-99186727D01*
X153795480Y-99199341D01*
X153857698Y-99300570D01*
X153892670Y-99382365D01*
X153912026Y-99464428D01*
X153918559Y-99551015D01*
X153909811Y-99634531D01*
X153883633Y-99713803D01*
X153841854Y-99786222D01*
X153785691Y-99849724D01*
X153717401Y-99902082D01*
X153635238Y-99943757D01*
X153544766Y-99969986D01*
X153442774Y-99979050D01*
X153340755Y-99970550D01*
X153250922Y-99946078D01*
X153169754Y-99906223D01*
X153102666Y-99854853D01*
X153048031Y-99791701D01*
X153006923Y-99718077D01*
X152981465Y-99637125D01*
X152972851Y-99549671D01*
X152985796Y-99448921D01*
X153018647Y-99359406D01*
X153062000Y-99281737D01*
X153105231Y-99217990D01*
X153113535Y-99195519D01*
X153106574Y-99181353D01*
X152960517Y-99080725D01*
X152817635Y-98978387D01*
X152820810Y-98985837D01*
X152783563Y-98969228D01*
X152758894Y-98986814D01*
X152680859Y-99097089D01*
X152614425Y-99234110D01*
X152568141Y-99385784D01*
X152555071Y-99463926D01*
X152550800Y-99539535D01*
X152496417Y-99539535D01*
X152501979Y-99466980D01*
X152517338Y-99384197D01*
X152567896Y-99221043D01*
X152638483Y-99071932D01*
X152719327Y-98952498D01*
X152751690Y-98925622D01*
X152782464Y-98917693D01*
X152841326Y-98938698D01*
G37*
D12*
X147690360Y-77479390D02*
X147766550Y-77441295D01*
X147766550Y-77441295D02*
X147880836Y-77441295D01*
X147880836Y-77441295D02*
X147995122Y-77479390D01*
X147995122Y-77479390D02*
X148071312Y-77555580D01*
X148071312Y-77555580D02*
X148109407Y-77631771D01*
X148109407Y-77631771D02*
X148147503Y-77784152D01*
X148147503Y-77784152D02*
X148147503Y-77898438D01*
X148147503Y-77898438D02*
X148109407Y-78050819D01*
X148109407Y-78050819D02*
X148071312Y-78127009D01*
X148071312Y-78127009D02*
X147995122Y-78203200D01*
X147995122Y-78203200D02*
X147880836Y-78241295D01*
X147880836Y-78241295D02*
X147804645Y-78241295D01*
X147804645Y-78241295D02*
X147690360Y-78203200D01*
X147690360Y-78203200D02*
X147652264Y-78165104D01*
X147652264Y-78165104D02*
X147652264Y-77898438D01*
X147652264Y-77898438D02*
X147804645Y-77898438D01*
X147309407Y-78241295D02*
X147309407Y-77441295D01*
X147309407Y-77441295D02*
X146852264Y-78241295D01*
X146852264Y-78241295D02*
X146852264Y-77441295D01*
X146471312Y-78241295D02*
X146471312Y-77441295D01*
X146471312Y-77441295D02*
X146280836Y-77441295D01*
X146280836Y-77441295D02*
X146166550Y-77479390D01*
X146166550Y-77479390D02*
X146090360Y-77555580D01*
X146090360Y-77555580D02*
X146052265Y-77631771D01*
X146052265Y-77631771D02*
X146014169Y-77784152D01*
X146014169Y-77784152D02*
X146014169Y-77898438D01*
X146014169Y-77898438D02*
X146052265Y-78050819D01*
X146052265Y-78050819D02*
X146090360Y-78127009D01*
X146090360Y-78127009D02*
X146166550Y-78203200D01*
X146166550Y-78203200D02*
X146280836Y-78241295D01*
X146280836Y-78241295D02*
X146471312Y-78241295D01*
D13*
X153872323Y-113431775D02*
X154329466Y-113431775D01*
X154100894Y-113431775D02*
X154100894Y-112631775D01*
X154100894Y-112631775D02*
X154177085Y-112746060D01*
X154177085Y-112746060D02*
X154253275Y-112822251D01*
X154253275Y-112822251D02*
X154329466Y-112860346D01*
X153567561Y-112707965D02*
X153529465Y-112669870D01*
X153529465Y-112669870D02*
X153453275Y-112631775D01*
X153453275Y-112631775D02*
X153262799Y-112631775D01*
X153262799Y-112631775D02*
X153186608Y-112669870D01*
X153186608Y-112669870D02*
X153148513Y-112707965D01*
X153148513Y-112707965D02*
X153110418Y-112784156D01*
X153110418Y-112784156D02*
X153110418Y-112860346D01*
X153110418Y-112860346D02*
X153148513Y-112974632D01*
X153148513Y-112974632D02*
X153605656Y-113431775D01*
X153605656Y-113431775D02*
X153110418Y-113431775D01*
X152615179Y-112631775D02*
X152538989Y-112631775D01*
X152538989Y-112631775D02*
X152462798Y-112669870D01*
X152462798Y-112669870D02*
X152424703Y-112707965D01*
X152424703Y-112707965D02*
X152386608Y-112784156D01*
X152386608Y-112784156D02*
X152348513Y-112936537D01*
X152348513Y-112936537D02*
X152348513Y-113127013D01*
X152348513Y-113127013D02*
X152386608Y-113279394D01*
X152386608Y-113279394D02*
X152424703Y-113355584D01*
X152424703Y-113355584D02*
X152462798Y-113393680D01*
X152462798Y-113393680D02*
X152538989Y-113431775D01*
X152538989Y-113431775D02*
X152615179Y-113431775D01*
X152615179Y-113431775D02*
X152691370Y-113393680D01*
X152691370Y-113393680D02*
X152729465Y-113355584D01*
X152729465Y-113355584D02*
X152767560Y-113279394D01*
X152767560Y-113279394D02*
X152805656Y-113127013D01*
X152805656Y-113127013D02*
X152805656Y-112936537D01*
X152805656Y-112936537D02*
X152767560Y-112784156D01*
X152767560Y-112784156D02*
X152729465Y-112707965D01*
X152729465Y-112707965D02*
X152691370Y-112669870D01*
X152691370Y-112669870D02*
X152615179Y-112631775D01*
X152043751Y-113431775D02*
X151853274Y-113431775D01*
X151853274Y-113431775D02*
X151853274Y-113279394D01*
X151853274Y-113279394D02*
X151929465Y-113241299D01*
X151929465Y-113241299D02*
X152005655Y-113165108D01*
X152005655Y-113165108D02*
X152043751Y-113050822D01*
X152043751Y-113050822D02*
X152043751Y-112860346D01*
X152043751Y-112860346D02*
X152005655Y-112746060D01*
X152005655Y-112746060D02*
X151929465Y-112669870D01*
X151929465Y-112669870D02*
X151815179Y-112631775D01*
X151815179Y-112631775D02*
X151662798Y-112631775D01*
X151662798Y-112631775D02*
X151548512Y-112669870D01*
X151548512Y-112669870D02*
X151472322Y-112746060D01*
X151472322Y-112746060D02*
X151434227Y-112860346D01*
X151434227Y-112860346D02*
X151434227Y-113050822D01*
X151434227Y-113050822D02*
X151472322Y-113165108D01*
X151472322Y-113165108D02*
X151548512Y-113241299D01*
X151548512Y-113241299D02*
X151624703Y-113279394D01*
X151624703Y-113279394D02*
X151624703Y-113431775D01*
X151624703Y-113431775D02*
X151434227Y-113431775D01*
X150596131Y-112631775D02*
X150138988Y-112631775D01*
X150367560Y-113431775D02*
X150367560Y-112631775D01*
X149567559Y-113393680D02*
X149643750Y-113431775D01*
X149643750Y-113431775D02*
X149796131Y-113431775D01*
X149796131Y-113431775D02*
X149872321Y-113393680D01*
X149872321Y-113393680D02*
X149910417Y-113317489D01*
X149910417Y-113317489D02*
X149910417Y-113012727D01*
X149910417Y-113012727D02*
X149872321Y-112936537D01*
X149872321Y-112936537D02*
X149796131Y-112898441D01*
X149796131Y-112898441D02*
X149643750Y-112898441D01*
X149643750Y-112898441D02*
X149567559Y-112936537D01*
X149567559Y-112936537D02*
X149529464Y-113012727D01*
X149529464Y-113012727D02*
X149529464Y-113088918D01*
X149529464Y-113088918D02*
X149910417Y-113165108D01*
X149186607Y-113431775D02*
X149186607Y-112898441D01*
X149186607Y-113050822D02*
X149148512Y-112974632D01*
X149148512Y-112974632D02*
X149110417Y-112936537D01*
X149110417Y-112936537D02*
X149034226Y-112898441D01*
X149034226Y-112898441D02*
X148958036Y-112898441D01*
X148691369Y-113431775D02*
X148691369Y-112898441D01*
X148691369Y-112974632D02*
X148653274Y-112936537D01*
X148653274Y-112936537D02*
X148577084Y-112898441D01*
X148577084Y-112898441D02*
X148462798Y-112898441D01*
X148462798Y-112898441D02*
X148386607Y-112936537D01*
X148386607Y-112936537D02*
X148348512Y-113012727D01*
X148348512Y-113012727D02*
X148348512Y-113431775D01*
X148348512Y-113012727D02*
X148310417Y-112936537D01*
X148310417Y-112936537D02*
X148234226Y-112898441D01*
X148234226Y-112898441D02*
X148119941Y-112898441D01*
X148119941Y-112898441D02*
X148043750Y-112936537D01*
X148043750Y-112936537D02*
X148005655Y-113012727D01*
X148005655Y-113012727D02*
X148005655Y-113431775D01*
D12*
X146776075Y-121472095D02*
X147233218Y-121472095D01*
X147004646Y-121472095D02*
X147004646Y-120672095D01*
X147004646Y-120672095D02*
X147080837Y-120786380D01*
X147080837Y-120786380D02*
X147157027Y-120862571D01*
X147157027Y-120862571D02*
X147233218Y-120900666D01*
X146052265Y-120672095D02*
X146433217Y-120672095D01*
X146433217Y-120672095D02*
X146471313Y-121053047D01*
X146471313Y-121053047D02*
X146433217Y-121014952D01*
X146433217Y-121014952D02*
X146357027Y-120976857D01*
X146357027Y-120976857D02*
X146166551Y-120976857D01*
X146166551Y-120976857D02*
X146090360Y-121014952D01*
X146090360Y-121014952D02*
X146052265Y-121053047D01*
X146052265Y-121053047D02*
X146014170Y-121129238D01*
X146014170Y-121129238D02*
X146014170Y-121319714D01*
X146014170Y-121319714D02*
X146052265Y-121395904D01*
X146052265Y-121395904D02*
X146090360Y-121434000D01*
X146090360Y-121434000D02*
X146166551Y-121472095D01*
X146166551Y-121472095D02*
X146357027Y-121472095D01*
X146357027Y-121472095D02*
X146433217Y-121434000D01*
X146433217Y-121434000D02*
X146471313Y-121395904D01*
X160716230Y-108048285D02*
X160678134Y-108010190D01*
X160678134Y-108010190D02*
X160601944Y-107972095D01*
X160601944Y-107972095D02*
X160411468Y-107972095D01*
X160411468Y-107972095D02*
X160335277Y-108010190D01*
X160335277Y-108010190D02*
X160297182Y-108048285D01*
X160297182Y-108048285D02*
X160259087Y-108124476D01*
X160259087Y-108124476D02*
X160259087Y-108200666D01*
X160259087Y-108200666D02*
X160297182Y-108314952D01*
X160297182Y-108314952D02*
X160754325Y-108772095D01*
X160754325Y-108772095D02*
X160259087Y-108772095D01*
X159763848Y-107972095D02*
X159687658Y-107972095D01*
X159687658Y-107972095D02*
X159611467Y-108010190D01*
X159611467Y-108010190D02*
X159573372Y-108048285D01*
X159573372Y-108048285D02*
X159535277Y-108124476D01*
X159535277Y-108124476D02*
X159497182Y-108276857D01*
X159497182Y-108276857D02*
X159497182Y-108467333D01*
X159497182Y-108467333D02*
X159535277Y-108619714D01*
X159535277Y-108619714D02*
X159573372Y-108695904D01*
X159573372Y-108695904D02*
X159611467Y-108734000D01*
X159611467Y-108734000D02*
X159687658Y-108772095D01*
X159687658Y-108772095D02*
X159763848Y-108772095D01*
X159763848Y-108772095D02*
X159840039Y-108734000D01*
X159840039Y-108734000D02*
X159878134Y-108695904D01*
X159878134Y-108695904D02*
X159916229Y-108619714D01*
X159916229Y-108619714D02*
X159954325Y-108467333D01*
X159954325Y-108467333D02*
X159954325Y-108276857D01*
X159954325Y-108276857D02*
X159916229Y-108124476D01*
X159916229Y-108124476D02*
X159878134Y-108048285D01*
X159878134Y-108048285D02*
X159840039Y-108010190D01*
X159840039Y-108010190D02*
X159763848Y-107972095D01*
X146509408Y-82572095D02*
X146014170Y-82572095D01*
X146014170Y-82572095D02*
X146280836Y-82876857D01*
X146280836Y-82876857D02*
X146166551Y-82876857D01*
X146166551Y-82876857D02*
X146090360Y-82914952D01*
X146090360Y-82914952D02*
X146052265Y-82953047D01*
X146052265Y-82953047D02*
X146014170Y-83029238D01*
X146014170Y-83029238D02*
X146014170Y-83219714D01*
X146014170Y-83219714D02*
X146052265Y-83295904D01*
X146052265Y-83295904D02*
X146090360Y-83334000D01*
X146090360Y-83334000D02*
X146166551Y-83372095D01*
X146166551Y-83372095D02*
X146395122Y-83372095D01*
X146395122Y-83372095D02*
X146471313Y-83334000D01*
X146471313Y-83334000D02*
X146509408Y-83295904D01*
X146052265Y-87601295D02*
X146433217Y-87601295D01*
X146433217Y-87601295D02*
X146471313Y-87982247D01*
X146471313Y-87982247D02*
X146433217Y-87944152D01*
X146433217Y-87944152D02*
X146357027Y-87906057D01*
X146357027Y-87906057D02*
X146166551Y-87906057D01*
X146166551Y-87906057D02*
X146090360Y-87944152D01*
X146090360Y-87944152D02*
X146052265Y-87982247D01*
X146052265Y-87982247D02*
X146014170Y-88058438D01*
X146014170Y-88058438D02*
X146014170Y-88248914D01*
X146014170Y-88248914D02*
X146052265Y-88325104D01*
X146052265Y-88325104D02*
X146090360Y-88363200D01*
X146090360Y-88363200D02*
X146166551Y-88401295D01*
X146166551Y-88401295D02*
X146357027Y-88401295D01*
X146357027Y-88401295D02*
X146433217Y-88363200D01*
X146433217Y-88363200D02*
X146471313Y-88325104D01*
X146560208Y-95272095D02*
X146026874Y-95272095D01*
X146026874Y-95272095D02*
X146369732Y-96072095D01*
X146776075Y-113852095D02*
X147233218Y-113852095D01*
X147004646Y-113852095D02*
X147004646Y-113052095D01*
X147004646Y-113052095D02*
X147080837Y-113166380D01*
X147080837Y-113166380D02*
X147157027Y-113242571D01*
X147157027Y-113242571D02*
X147233218Y-113280666D01*
X146509408Y-113052095D02*
X146014170Y-113052095D01*
X146014170Y-113052095D02*
X146280836Y-113356857D01*
X146280836Y-113356857D02*
X146166551Y-113356857D01*
X146166551Y-113356857D02*
X146090360Y-113394952D01*
X146090360Y-113394952D02*
X146052265Y-113433047D01*
X146052265Y-113433047D02*
X146014170Y-113509238D01*
X146014170Y-113509238D02*
X146014170Y-113699714D01*
X146014170Y-113699714D02*
X146052265Y-113775904D01*
X146052265Y-113775904D02*
X146090360Y-113814000D01*
X146090360Y-113814000D02*
X146166551Y-113852095D01*
X146166551Y-113852095D02*
X146395122Y-113852095D01*
X146395122Y-113852095D02*
X146471313Y-113814000D01*
X146471313Y-113814000D02*
X146509408Y-113775904D01*
X160754325Y-82521295D02*
X160259087Y-82521295D01*
X160259087Y-82521295D02*
X160525753Y-82826057D01*
X160525753Y-82826057D02*
X160411468Y-82826057D01*
X160411468Y-82826057D02*
X160335277Y-82864152D01*
X160335277Y-82864152D02*
X160297182Y-82902247D01*
X160297182Y-82902247D02*
X160259087Y-82978438D01*
X160259087Y-82978438D02*
X160259087Y-83168914D01*
X160259087Y-83168914D02*
X160297182Y-83245104D01*
X160297182Y-83245104D02*
X160335277Y-83283200D01*
X160335277Y-83283200D02*
X160411468Y-83321295D01*
X160411468Y-83321295D02*
X160640039Y-83321295D01*
X160640039Y-83321295D02*
X160716230Y-83283200D01*
X160716230Y-83283200D02*
X160754325Y-83245104D01*
X159992420Y-82787961D02*
X159801944Y-83321295D01*
X159801944Y-83321295D02*
X159611467Y-82787961D01*
X159382896Y-82521295D02*
X158887658Y-82521295D01*
X158887658Y-82521295D02*
X159154324Y-82826057D01*
X159154324Y-82826057D02*
X159040039Y-82826057D01*
X159040039Y-82826057D02*
X158963848Y-82864152D01*
X158963848Y-82864152D02*
X158925753Y-82902247D01*
X158925753Y-82902247D02*
X158887658Y-82978438D01*
X158887658Y-82978438D02*
X158887658Y-83168914D01*
X158887658Y-83168914D02*
X158925753Y-83245104D01*
X158925753Y-83245104D02*
X158963848Y-83283200D01*
X158963848Y-83283200D02*
X159040039Y-83321295D01*
X159040039Y-83321295D02*
X159268610Y-83321295D01*
X159268610Y-83321295D02*
X159344801Y-83283200D01*
X159344801Y-83283200D02*
X159382896Y-83245104D01*
X160683714Y-106425924D02*
X160721809Y-106387828D01*
X160721809Y-106387828D02*
X160759904Y-106311638D01*
X160759904Y-106311638D02*
X160759904Y-106121162D01*
X160759904Y-106121162D02*
X160721809Y-106044971D01*
X160721809Y-106044971D02*
X160683714Y-106006876D01*
X160683714Y-106006876D02*
X160607523Y-105968781D01*
X160607523Y-105968781D02*
X160531333Y-105968781D01*
X160531333Y-105968781D02*
X160417047Y-106006876D01*
X160417047Y-106006876D02*
X159959904Y-106464019D01*
X159959904Y-106464019D02*
X159959904Y-105968781D01*
X159959904Y-105206876D02*
X159959904Y-105664019D01*
X159959904Y-105435447D02*
X160759904Y-105435447D01*
X160759904Y-105435447D02*
X160645619Y-105511638D01*
X160645619Y-105511638D02*
X160569428Y-105587828D01*
X160569428Y-105587828D02*
X160531333Y-105664019D01*
X160309887Y-121472095D02*
X160767030Y-121472095D01*
X160538458Y-121472095D02*
X160538458Y-120672095D01*
X160538458Y-120672095D02*
X160614649Y-120786380D01*
X160614649Y-120786380D02*
X160690839Y-120862571D01*
X160690839Y-120862571D02*
X160767030Y-120900666D01*
X159624172Y-120672095D02*
X159776553Y-120672095D01*
X159776553Y-120672095D02*
X159852744Y-120710190D01*
X159852744Y-120710190D02*
X159890839Y-120748285D01*
X159890839Y-120748285D02*
X159967029Y-120862571D01*
X159967029Y-120862571D02*
X160005125Y-121014952D01*
X160005125Y-121014952D02*
X160005125Y-121319714D01*
X160005125Y-121319714D02*
X159967029Y-121395904D01*
X159967029Y-121395904D02*
X159928934Y-121434000D01*
X159928934Y-121434000D02*
X159852744Y-121472095D01*
X159852744Y-121472095D02*
X159700363Y-121472095D01*
X159700363Y-121472095D02*
X159624172Y-121434000D01*
X159624172Y-121434000D02*
X159586077Y-121395904D01*
X159586077Y-121395904D02*
X159547982Y-121319714D01*
X159547982Y-121319714D02*
X159547982Y-121129238D01*
X159547982Y-121129238D02*
X159586077Y-121053047D01*
X159586077Y-121053047D02*
X159624172Y-121014952D01*
X159624172Y-121014952D02*
X159700363Y-120976857D01*
X159700363Y-120976857D02*
X159852744Y-120976857D01*
X159852744Y-120976857D02*
X159928934Y-121014952D01*
X159928934Y-121014952D02*
X159967029Y-121053047D01*
X159967029Y-121053047D02*
X160005125Y-121129238D01*
X160767030Y-85874000D02*
X160652744Y-85912095D01*
X160652744Y-85912095D02*
X160462268Y-85912095D01*
X160462268Y-85912095D02*
X160386077Y-85874000D01*
X160386077Y-85874000D02*
X160347982Y-85835904D01*
X160347982Y-85835904D02*
X160309887Y-85759714D01*
X160309887Y-85759714D02*
X160309887Y-85683523D01*
X160309887Y-85683523D02*
X160347982Y-85607333D01*
X160347982Y-85607333D02*
X160386077Y-85569238D01*
X160386077Y-85569238D02*
X160462268Y-85531142D01*
X160462268Y-85531142D02*
X160614649Y-85493047D01*
X160614649Y-85493047D02*
X160690839Y-85454952D01*
X160690839Y-85454952D02*
X160728934Y-85416857D01*
X160728934Y-85416857D02*
X160767030Y-85340666D01*
X160767030Y-85340666D02*
X160767030Y-85264476D01*
X160767030Y-85264476D02*
X160728934Y-85188285D01*
X160728934Y-85188285D02*
X160690839Y-85150190D01*
X160690839Y-85150190D02*
X160614649Y-85112095D01*
X160614649Y-85112095D02*
X160424172Y-85112095D01*
X160424172Y-85112095D02*
X160309887Y-85150190D01*
X160081315Y-85112095D02*
X159624172Y-85112095D01*
X159852744Y-85912095D02*
X159852744Y-85112095D01*
X159090839Y-85493047D02*
X158976553Y-85531142D01*
X158976553Y-85531142D02*
X158938458Y-85569238D01*
X158938458Y-85569238D02*
X158900362Y-85645428D01*
X158900362Y-85645428D02*
X158900362Y-85759714D01*
X158900362Y-85759714D02*
X158938458Y-85835904D01*
X158938458Y-85835904D02*
X158976553Y-85874000D01*
X158976553Y-85874000D02*
X159052743Y-85912095D01*
X159052743Y-85912095D02*
X159357505Y-85912095D01*
X159357505Y-85912095D02*
X159357505Y-85112095D01*
X159357505Y-85112095D02*
X159090839Y-85112095D01*
X159090839Y-85112095D02*
X159014648Y-85150190D01*
X159014648Y-85150190D02*
X158976553Y-85188285D01*
X158976553Y-85188285D02*
X158938458Y-85264476D01*
X158938458Y-85264476D02*
X158938458Y-85340666D01*
X158938458Y-85340666D02*
X158976553Y-85416857D01*
X158976553Y-85416857D02*
X159014648Y-85454952D01*
X159014648Y-85454952D02*
X159090839Y-85493047D01*
X159090839Y-85493047D02*
X159357505Y-85493047D01*
X158405124Y-85531142D02*
X158405124Y-85912095D01*
X158671791Y-85112095D02*
X158405124Y-85531142D01*
X158405124Y-85531142D02*
X158138458Y-85112095D01*
X146826875Y-118932095D02*
X147284018Y-118932095D01*
X147055446Y-118932095D02*
X147055446Y-118132095D01*
X147055446Y-118132095D02*
X147131637Y-118246380D01*
X147131637Y-118246380D02*
X147207827Y-118322571D01*
X147207827Y-118322571D02*
X147284018Y-118360666D01*
X146141160Y-118398761D02*
X146141160Y-118932095D01*
X146331636Y-118094000D02*
X146522113Y-118665428D01*
X146522113Y-118665428D02*
X146026874Y-118665428D01*
G36*
X159797716Y-95656044D02*
G01*
X159824336Y-95682665D01*
X159853525Y-95741041D01*
X159853525Y-95907910D01*
X159824337Y-95966285D01*
X159797714Y-95992908D01*
X159739341Y-96022095D01*
X159610566Y-96022095D01*
X159552192Y-95992908D01*
X159525569Y-95966285D01*
X159496382Y-95907911D01*
X159496382Y-95741040D01*
X159525570Y-95682663D01*
X159552191Y-95656043D01*
X159610566Y-95626857D01*
X159739341Y-95626857D01*
X159797716Y-95656044D01*
G37*
G36*
X160838608Y-96210984D02*
G01*
X159307493Y-96210984D01*
X159307493Y-95729238D01*
X159396382Y-95729238D01*
X159396382Y-95919714D01*
X159396870Y-95922170D01*
X159396508Y-95923259D01*
X159398624Y-95930986D01*
X159400188Y-95938848D01*
X159400999Y-95939659D01*
X159401661Y-95942075D01*
X159439756Y-96018265D01*
X159444667Y-96024593D01*
X159449121Y-96031259D01*
X159487216Y-96069355D01*
X159493886Y-96073811D01*
X159500212Y-96078721D01*
X159576403Y-96116817D01*
X159578818Y-96117478D01*
X159579629Y-96118289D01*
X159587489Y-96119852D01*
X159595219Y-96121969D01*
X159596306Y-96121606D01*
X159598763Y-96122095D01*
X159751144Y-96122095D01*
X159753600Y-96121606D01*
X159754689Y-96121969D01*
X159762416Y-96119852D01*
X159770278Y-96118289D01*
X159771089Y-96117477D01*
X159773505Y-96116816D01*
X159849695Y-96078721D01*
X159856023Y-96073809D01*
X159862690Y-96069355D01*
X159900785Y-96031259D01*
X159905238Y-96024593D01*
X159910150Y-96018265D01*
X159948246Y-95942076D01*
X159948907Y-95939659D01*
X159949719Y-95938848D01*
X159951282Y-95930989D01*
X159953399Y-95923260D01*
X159953036Y-95922171D01*
X159953525Y-95919714D01*
X159953525Y-95614952D01*
X159952329Y-95608942D01*
X159952032Y-95602825D01*
X159913936Y-95450444D01*
X159910285Y-95442715D01*
X159907031Y-95434836D01*
X159900124Y-95424476D01*
X160158287Y-95424476D01*
X160158287Y-95500666D01*
X160159850Y-95508528D01*
X160160853Y-95516477D01*
X160198948Y-95630763D01*
X160200188Y-95632938D01*
X160200188Y-95634086D01*
X160204638Y-95640746D01*
X160208609Y-95647712D01*
X160209636Y-95648225D01*
X160211027Y-95650307D01*
X160582815Y-96022095D01*
X160208287Y-96022095D01*
X160189153Y-96025901D01*
X160162093Y-96052961D01*
X160162093Y-96091229D01*
X160189153Y-96118289D01*
X160208287Y-96122095D01*
X160703525Y-96122095D01*
X160722659Y-96118289D01*
X160749719Y-96091229D01*
X160749719Y-96052961D01*
X160738880Y-96036740D01*
X160290083Y-95587943D01*
X160258287Y-95492553D01*
X160258287Y-95436278D01*
X160287475Y-95377901D01*
X160314096Y-95351281D01*
X160372471Y-95322095D01*
X160539341Y-95322095D01*
X160597715Y-95351282D01*
X160630075Y-95383641D01*
X160646296Y-95394479D01*
X160684565Y-95394478D01*
X160711624Y-95367419D01*
X160711623Y-95329150D01*
X160700785Y-95312929D01*
X160662689Y-95274834D01*
X160656023Y-95270380D01*
X160649695Y-95265469D01*
X160573505Y-95227374D01*
X160571089Y-95226712D01*
X160570278Y-95225901D01*
X160562416Y-95224337D01*
X160554689Y-95222221D01*
X160553600Y-95222583D01*
X160551144Y-95222095D01*
X160360668Y-95222095D01*
X160358211Y-95222583D01*
X160357124Y-95222221D01*
X160349394Y-95224337D01*
X160341534Y-95225901D01*
X160340723Y-95226711D01*
X160338308Y-95227373D01*
X160262117Y-95265469D01*
X160255795Y-95270375D01*
X160249121Y-95274835D01*
X160211027Y-95312930D01*
X160206574Y-95319592D01*
X160201661Y-95325924D01*
X160163566Y-95402116D01*
X160162904Y-95404530D01*
X160162093Y-95405342D01*
X160160528Y-95413207D01*
X160158413Y-95420932D01*
X160158775Y-95422019D01*
X160158287Y-95424476D01*
X159900124Y-95424476D01*
X159830842Y-95320550D01*
X159827344Y-95317045D01*
X159824594Y-95312929D01*
X159786499Y-95274835D01*
X159779836Y-95270382D01*
X159773505Y-95265469D01*
X159697313Y-95227374D01*
X159694898Y-95226712D01*
X159694087Y-95225901D01*
X159686221Y-95224336D01*
X159678497Y-95222221D01*
X159677409Y-95222583D01*
X159674953Y-95222095D01*
X159522572Y-95222095D01*
X159503438Y-95225901D01*
X159476378Y-95252961D01*
X159476378Y-95291229D01*
X159503438Y-95318289D01*
X159522572Y-95322095D01*
X159663151Y-95322095D01*
X159721527Y-95351283D01*
X159750381Y-95380138D01*
X159819022Y-95483101D01*
X159839535Y-95565151D01*
X159773505Y-95532136D01*
X159771089Y-95531474D01*
X159770278Y-95530663D01*
X159762416Y-95529099D01*
X159754689Y-95526983D01*
X159753600Y-95527345D01*
X159751144Y-95526857D01*
X159598763Y-95526857D01*
X159596306Y-95527345D01*
X159595219Y-95526983D01*
X159587489Y-95529099D01*
X159579629Y-95530663D01*
X159578818Y-95531473D01*
X159576403Y-95532135D01*
X159500212Y-95570231D01*
X159493890Y-95575137D01*
X159487216Y-95579597D01*
X159449122Y-95617692D01*
X159444669Y-95624354D01*
X159439756Y-95630686D01*
X159401661Y-95706878D01*
X159400999Y-95709292D01*
X159400188Y-95710104D01*
X159398623Y-95717969D01*
X159396508Y-95725694D01*
X159396870Y-95726781D01*
X159396382Y-95729238D01*
X159307493Y-95729238D01*
X159307493Y-95133206D01*
X160838608Y-95133206D01*
X160838608Y-96210984D01*
G37*
X157403531Y-102946276D02*
X157313822Y-103067222D01*
X157313822Y-103067222D02*
X157118786Y-103203788D01*
X157118786Y-103203788D02*
X157013459Y-103219407D01*
X157013459Y-103219407D02*
X156947138Y-103207713D01*
X156947138Y-103207713D02*
X156853505Y-103157012D01*
X156853505Y-103157012D02*
X156798878Y-103078997D01*
X156798878Y-103078997D02*
X156783259Y-102973670D01*
X156783259Y-102973670D02*
X156794953Y-102907349D01*
X156794953Y-102907349D02*
X156845655Y-102813716D01*
X156845655Y-102813716D02*
X156974370Y-102665456D01*
X156974370Y-102665456D02*
X157025072Y-102571822D01*
X157025072Y-102571822D02*
X157036766Y-102505502D01*
X157036766Y-102505502D02*
X157021147Y-102400174D01*
X157021147Y-102400174D02*
X156966520Y-102322160D01*
X156966520Y-102322160D02*
X156872887Y-102271459D01*
X156872887Y-102271459D02*
X156806566Y-102259764D01*
X156806566Y-102259764D02*
X156701239Y-102275384D01*
X156701239Y-102275384D02*
X156506203Y-102411949D01*
X156506203Y-102411949D02*
X156416494Y-102532896D01*
X156116130Y-102685081D02*
X156494670Y-103640799D01*
X156494670Y-103640799D02*
X155928944Y-103164943D01*
X155928944Y-103164943D02*
X156182612Y-103859304D01*
X156182612Y-103859304D02*
X155414000Y-103176718D01*
X155675518Y-104214375D02*
X155101942Y-103395223D01*
X155101942Y-103395223D02*
X154906906Y-103531789D01*
X154906906Y-103531789D02*
X154817197Y-103652736D01*
X154817197Y-103652736D02*
X154793809Y-103785377D01*
X154793809Y-103785377D02*
X154809428Y-103890704D01*
X154809428Y-103890704D02*
X154879674Y-104074046D01*
X154879674Y-104074046D02*
X154961613Y-104191068D01*
X154961613Y-104191068D02*
X155109873Y-104319784D01*
X155109873Y-104319784D02*
X155203507Y-104370485D01*
X155203507Y-104370485D02*
X155336147Y-104393873D01*
X155336147Y-104393873D02*
X155480482Y-104350941D01*
X155480482Y-104350941D02*
X155675518Y-104214375D01*
X146471313Y-80057485D02*
X146433217Y-80019390D01*
X146433217Y-80019390D02*
X146357027Y-79981295D01*
X146357027Y-79981295D02*
X146166551Y-79981295D01*
X146166551Y-79981295D02*
X146090360Y-80019390D01*
X146090360Y-80019390D02*
X146052265Y-80057485D01*
X146052265Y-80057485D02*
X146014170Y-80133676D01*
X146014170Y-80133676D02*
X146014170Y-80209866D01*
X146014170Y-80209866D02*
X146052265Y-80324152D01*
X146052265Y-80324152D02*
X146509408Y-80781295D01*
X146509408Y-80781295D02*
X146014170Y-80781295D01*
X147690360Y-102879390D02*
X147766550Y-102841295D01*
X147766550Y-102841295D02*
X147880836Y-102841295D01*
X147880836Y-102841295D02*
X147995122Y-102879390D01*
X147995122Y-102879390D02*
X148071312Y-102955580D01*
X148071312Y-102955580D02*
X148109407Y-103031771D01*
X148109407Y-103031771D02*
X148147503Y-103184152D01*
X148147503Y-103184152D02*
X148147503Y-103298438D01*
X148147503Y-103298438D02*
X148109407Y-103450819D01*
X148109407Y-103450819D02*
X148071312Y-103527009D01*
X148071312Y-103527009D02*
X147995122Y-103603200D01*
X147995122Y-103603200D02*
X147880836Y-103641295D01*
X147880836Y-103641295D02*
X147804645Y-103641295D01*
X147804645Y-103641295D02*
X147690360Y-103603200D01*
X147690360Y-103603200D02*
X147652264Y-103565104D01*
X147652264Y-103565104D02*
X147652264Y-103298438D01*
X147652264Y-103298438D02*
X147804645Y-103298438D01*
X147309407Y-103641295D02*
X147309407Y-102841295D01*
X147309407Y-102841295D02*
X146852264Y-103641295D01*
X146852264Y-103641295D02*
X146852264Y-102841295D01*
X146471312Y-103641295D02*
X146471312Y-102841295D01*
X146471312Y-102841295D02*
X146280836Y-102841295D01*
X146280836Y-102841295D02*
X146166550Y-102879390D01*
X146166550Y-102879390D02*
X146090360Y-102955580D01*
X146090360Y-102955580D02*
X146052265Y-103031771D01*
X146052265Y-103031771D02*
X146014169Y-103184152D01*
X146014169Y-103184152D02*
X146014169Y-103298438D01*
X146014169Y-103298438D02*
X146052265Y-103450819D01*
X146052265Y-103450819D02*
X146090360Y-103527009D01*
X146090360Y-103527009D02*
X146166550Y-103603200D01*
X146166550Y-103603200D02*
X146280836Y-103641295D01*
X146280836Y-103641295D02*
X146471312Y-103641295D01*
D13*
X153161752Y-111742727D02*
X153047466Y-111780822D01*
X153047466Y-111780822D02*
X153009371Y-111818918D01*
X153009371Y-111818918D02*
X152971275Y-111895108D01*
X152971275Y-111895108D02*
X152971275Y-112009394D01*
X152971275Y-112009394D02*
X153009371Y-112085584D01*
X153009371Y-112085584D02*
X153047466Y-112123680D01*
X153047466Y-112123680D02*
X153123656Y-112161775D01*
X153123656Y-112161775D02*
X153428418Y-112161775D01*
X153428418Y-112161775D02*
X153428418Y-111361775D01*
X153428418Y-111361775D02*
X153161752Y-111361775D01*
X153161752Y-111361775D02*
X153085561Y-111399870D01*
X153085561Y-111399870D02*
X153047466Y-111437965D01*
X153047466Y-111437965D02*
X153009371Y-111514156D01*
X153009371Y-111514156D02*
X153009371Y-111590346D01*
X153009371Y-111590346D02*
X153047466Y-111666537D01*
X153047466Y-111666537D02*
X153085561Y-111704632D01*
X153085561Y-111704632D02*
X153161752Y-111742727D01*
X153161752Y-111742727D02*
X153428418Y-111742727D01*
X152285561Y-111628441D02*
X152285561Y-112161775D01*
X152628418Y-111628441D02*
X152628418Y-112047489D01*
X152628418Y-112047489D02*
X152590323Y-112123680D01*
X152590323Y-112123680D02*
X152514133Y-112161775D01*
X152514133Y-112161775D02*
X152399847Y-112161775D01*
X152399847Y-112161775D02*
X152323656Y-112123680D01*
X152323656Y-112123680D02*
X152285561Y-112085584D01*
X151904608Y-112161775D02*
X151904608Y-111628441D01*
X151904608Y-111361775D02*
X151942704Y-111399870D01*
X151942704Y-111399870D02*
X151904608Y-111437965D01*
X151904608Y-111437965D02*
X151866513Y-111399870D01*
X151866513Y-111399870D02*
X151904608Y-111361775D01*
X151904608Y-111361775D02*
X151904608Y-111437965D01*
X151409371Y-112161775D02*
X151485561Y-112123680D01*
X151485561Y-112123680D02*
X151523656Y-112047489D01*
X151523656Y-112047489D02*
X151523656Y-111361775D01*
X151218894Y-111628441D02*
X150914132Y-111628441D01*
X151104608Y-111361775D02*
X151104608Y-112047489D01*
X151104608Y-112047489D02*
X151066513Y-112123680D01*
X151066513Y-112123680D02*
X150990323Y-112161775D01*
X150990323Y-112161775D02*
X150914132Y-112161775D01*
X150647465Y-111857013D02*
X150037942Y-111857013D01*
X149656989Y-112161775D02*
X149656989Y-111628441D01*
X149656989Y-111361775D02*
X149695085Y-111399870D01*
X149695085Y-111399870D02*
X149656989Y-111437965D01*
X149656989Y-111437965D02*
X149618894Y-111399870D01*
X149618894Y-111399870D02*
X149656989Y-111361775D01*
X149656989Y-111361775D02*
X149656989Y-111437965D01*
X149276037Y-111628441D02*
X149276037Y-112161775D01*
X149276037Y-111704632D02*
X149237942Y-111666537D01*
X149237942Y-111666537D02*
X149161752Y-111628441D01*
X149161752Y-111628441D02*
X149047466Y-111628441D01*
X149047466Y-111628441D02*
X148971275Y-111666537D01*
X148971275Y-111666537D02*
X148933180Y-111742727D01*
X148933180Y-111742727D02*
X148933180Y-112161775D01*
D12*
X160716230Y-97888285D02*
X160678134Y-97850190D01*
X160678134Y-97850190D02*
X160601944Y-97812095D01*
X160601944Y-97812095D02*
X160411468Y-97812095D01*
X160411468Y-97812095D02*
X160335277Y-97850190D01*
X160335277Y-97850190D02*
X160297182Y-97888285D01*
X160297182Y-97888285D02*
X160259087Y-97964476D01*
X160259087Y-97964476D02*
X160259087Y-98040666D01*
X160259087Y-98040666D02*
X160297182Y-98154952D01*
X160297182Y-98154952D02*
X160754325Y-98612095D01*
X160754325Y-98612095D02*
X160259087Y-98612095D01*
X159954325Y-97888285D02*
X159916229Y-97850190D01*
X159916229Y-97850190D02*
X159840039Y-97812095D01*
X159840039Y-97812095D02*
X159649563Y-97812095D01*
X159649563Y-97812095D02*
X159573372Y-97850190D01*
X159573372Y-97850190D02*
X159535277Y-97888285D01*
X159535277Y-97888285D02*
X159497182Y-97964476D01*
X159497182Y-97964476D02*
X159497182Y-98040666D01*
X159497182Y-98040666D02*
X159535277Y-98154952D01*
X159535277Y-98154952D02*
X159992420Y-98612095D01*
X159992420Y-98612095D02*
X159497182Y-98612095D01*
X160309887Y-115630190D02*
X160386077Y-115592095D01*
X160386077Y-115592095D02*
X160500363Y-115592095D01*
X160500363Y-115592095D02*
X160614649Y-115630190D01*
X160614649Y-115630190D02*
X160690839Y-115706380D01*
X160690839Y-115706380D02*
X160728934Y-115782571D01*
X160728934Y-115782571D02*
X160767030Y-115934952D01*
X160767030Y-115934952D02*
X160767030Y-116049238D01*
X160767030Y-116049238D02*
X160728934Y-116201619D01*
X160728934Y-116201619D02*
X160690839Y-116277809D01*
X160690839Y-116277809D02*
X160614649Y-116354000D01*
X160614649Y-116354000D02*
X160500363Y-116392095D01*
X160500363Y-116392095D02*
X160424172Y-116392095D01*
X160424172Y-116392095D02*
X160309887Y-116354000D01*
X160309887Y-116354000D02*
X160271791Y-116315904D01*
X160271791Y-116315904D02*
X160271791Y-116049238D01*
X160271791Y-116049238D02*
X160424172Y-116049238D01*
X159928934Y-116392095D02*
X159928934Y-115592095D01*
X159928934Y-115592095D02*
X159471791Y-116392095D01*
X159471791Y-116392095D02*
X159471791Y-115592095D01*
X159090839Y-116392095D02*
X159090839Y-115592095D01*
X159090839Y-115592095D02*
X158900363Y-115592095D01*
X158900363Y-115592095D02*
X158786077Y-115630190D01*
X158786077Y-115630190D02*
X158709887Y-115706380D01*
X158709887Y-115706380D02*
X158671792Y-115782571D01*
X158671792Y-115782571D02*
X158633696Y-115934952D01*
X158633696Y-115934952D02*
X158633696Y-116049238D01*
X158633696Y-116049238D02*
X158671792Y-116201619D01*
X158671792Y-116201619D02*
X158709887Y-116277809D01*
X158709887Y-116277809D02*
X158786077Y-116354000D01*
X158786077Y-116354000D02*
X158900363Y-116392095D01*
X158900363Y-116392095D02*
X159090839Y-116392095D01*
X146395122Y-101152095D02*
X146242741Y-101152095D01*
X146242741Y-101152095D02*
X146166551Y-101114000D01*
X146166551Y-101114000D02*
X146128455Y-101075904D01*
X146128455Y-101075904D02*
X146052265Y-100961619D01*
X146052265Y-100961619D02*
X146014170Y-100809238D01*
X146014170Y-100809238D02*
X146014170Y-100504476D01*
X146014170Y-100504476D02*
X146052265Y-100428285D01*
X146052265Y-100428285D02*
X146090360Y-100390190D01*
X146090360Y-100390190D02*
X146166551Y-100352095D01*
X146166551Y-100352095D02*
X146318932Y-100352095D01*
X146318932Y-100352095D02*
X146395122Y-100390190D01*
X146395122Y-100390190D02*
X146433217Y-100428285D01*
X146433217Y-100428285D02*
X146471313Y-100504476D01*
X146471313Y-100504476D02*
X146471313Y-100694952D01*
X146471313Y-100694952D02*
X146433217Y-100771142D01*
X146433217Y-100771142D02*
X146395122Y-100809238D01*
X146395122Y-100809238D02*
X146318932Y-100847333D01*
X146318932Y-100847333D02*
X146166551Y-100847333D01*
X146166551Y-100847333D02*
X146090360Y-100809238D01*
X146090360Y-100809238D02*
X146052265Y-100771142D01*
X146052265Y-100771142D02*
X146014170Y-100694952D01*
G36*
X159797716Y-90563339D02*
G01*
X159824336Y-90589960D01*
X159853525Y-90648336D01*
X159853525Y-90777110D01*
X159824337Y-90835485D01*
X159797714Y-90862108D01*
X159739341Y-90891295D01*
X159610566Y-90891295D01*
X159552192Y-90862108D01*
X159525569Y-90835485D01*
X159496382Y-90777111D01*
X159496382Y-90648335D01*
X159525570Y-90589958D01*
X159552191Y-90563338D01*
X159610566Y-90534152D01*
X159739341Y-90534152D01*
X159797716Y-90563339D01*
G37*
G36*
X159797716Y-90220482D02*
G01*
X159824336Y-90247103D01*
X159853525Y-90305479D01*
X159853525Y-90319967D01*
X159824337Y-90378342D01*
X159797714Y-90404965D01*
X159739341Y-90434152D01*
X159610566Y-90434152D01*
X159552192Y-90404965D01*
X159525569Y-90378342D01*
X159496382Y-90319968D01*
X159496382Y-90305478D01*
X159525570Y-90247101D01*
X159552191Y-90220481D01*
X159610566Y-90191295D01*
X159739341Y-90191295D01*
X159797716Y-90220482D01*
G37*
G36*
X160838608Y-91080184D02*
G01*
X159307493Y-91080184D01*
X159307493Y-90293676D01*
X159396382Y-90293676D01*
X159396382Y-90331771D01*
X159396870Y-90334227D01*
X159396508Y-90335316D01*
X159398624Y-90343043D01*
X159400188Y-90350905D01*
X159400999Y-90351716D01*
X159401661Y-90354132D01*
X159439756Y-90430322D01*
X159444667Y-90436650D01*
X159449121Y-90443316D01*
X159487216Y-90481412D01*
X159491316Y-90484151D01*
X159487216Y-90486892D01*
X159449122Y-90524987D01*
X159444669Y-90531649D01*
X159439756Y-90537981D01*
X159401661Y-90614173D01*
X159400999Y-90616587D01*
X159400188Y-90617399D01*
X159398623Y-90625264D01*
X159396508Y-90632989D01*
X159396870Y-90634076D01*
X159396382Y-90636533D01*
X159396382Y-90788914D01*
X159396870Y-90791370D01*
X159396508Y-90792459D01*
X159398624Y-90800186D01*
X159400188Y-90808048D01*
X159400999Y-90808859D01*
X159401661Y-90811275D01*
X159439756Y-90887465D01*
X159444667Y-90893793D01*
X159449121Y-90900459D01*
X159487216Y-90938555D01*
X159493886Y-90943011D01*
X159500212Y-90947921D01*
X159576403Y-90986017D01*
X159578818Y-90986678D01*
X159579629Y-90987489D01*
X159587489Y-90989052D01*
X159595219Y-90991169D01*
X159596306Y-90990806D01*
X159598763Y-90991295D01*
X159751144Y-90991295D01*
X159753600Y-90990806D01*
X159754689Y-90991169D01*
X159762416Y-90989052D01*
X159770278Y-90987489D01*
X159771089Y-90986677D01*
X159773505Y-90986016D01*
X159849695Y-90947921D01*
X159856023Y-90943009D01*
X159862690Y-90938555D01*
X159900785Y-90900459D01*
X159905238Y-90893793D01*
X159910150Y-90887465D01*
X159948246Y-90811276D01*
X159948907Y-90808859D01*
X159949719Y-90808048D01*
X159951282Y-90800189D01*
X159953399Y-90792460D01*
X159953036Y-90791371D01*
X159953525Y-90788914D01*
X159953525Y-90636533D01*
X159953036Y-90634076D01*
X159953399Y-90632988D01*
X159951282Y-90625260D01*
X159949719Y-90617399D01*
X159948907Y-90616587D01*
X159948246Y-90614172D01*
X159910150Y-90537981D01*
X159905238Y-90531652D01*
X159900784Y-90524986D01*
X159862689Y-90486892D01*
X159858588Y-90484152D01*
X159862690Y-90481412D01*
X159900785Y-90443316D01*
X159905238Y-90436650D01*
X159910150Y-90430322D01*
X159948246Y-90354133D01*
X159948907Y-90351716D01*
X159949719Y-90350905D01*
X159951282Y-90343046D01*
X159953399Y-90335317D01*
X159953036Y-90334228D01*
X159953525Y-90331771D01*
X159953525Y-90293676D01*
X160158287Y-90293676D01*
X160158287Y-90369866D01*
X160159850Y-90377728D01*
X160160853Y-90385677D01*
X160198948Y-90499963D01*
X160200188Y-90502138D01*
X160200188Y-90503286D01*
X160204638Y-90509946D01*
X160208609Y-90516912D01*
X160209636Y-90517425D01*
X160211027Y-90519507D01*
X160582815Y-90891295D01*
X160208287Y-90891295D01*
X160189153Y-90895101D01*
X160162093Y-90922161D01*
X160162093Y-90960429D01*
X160189153Y-90987489D01*
X160208287Y-90991295D01*
X160703525Y-90991295D01*
X160722659Y-90987489D01*
X160749719Y-90960429D01*
X160749719Y-90922161D01*
X160738880Y-90905940D01*
X160290083Y-90457143D01*
X160258287Y-90361753D01*
X160258287Y-90305478D01*
X160287475Y-90247101D01*
X160314096Y-90220481D01*
X160372471Y-90191295D01*
X160539341Y-90191295D01*
X160597715Y-90220482D01*
X160630075Y-90252841D01*
X160646296Y-90263679D01*
X160684565Y-90263678D01*
X160711624Y-90236619D01*
X160711623Y-90198350D01*
X160700785Y-90182129D01*
X160662689Y-90144034D01*
X160656023Y-90139580D01*
X160649695Y-90134669D01*
X160573505Y-90096574D01*
X160571089Y-90095912D01*
X160570278Y-90095101D01*
X160562416Y-90093537D01*
X160554689Y-90091421D01*
X160553600Y-90091783D01*
X160551144Y-90091295D01*
X160360668Y-90091295D01*
X160358211Y-90091783D01*
X160357124Y-90091421D01*
X160349394Y-90093537D01*
X160341534Y-90095101D01*
X160340723Y-90095911D01*
X160338308Y-90096573D01*
X160262117Y-90134669D01*
X160255795Y-90139575D01*
X160249121Y-90144035D01*
X160211027Y-90182130D01*
X160206574Y-90188792D01*
X160201661Y-90195124D01*
X160163566Y-90271316D01*
X160162904Y-90273730D01*
X160162093Y-90274542D01*
X160160528Y-90282407D01*
X160158413Y-90290132D01*
X160158775Y-90291219D01*
X160158287Y-90293676D01*
X159953525Y-90293676D01*
X159953036Y-90291219D01*
X159953399Y-90290131D01*
X159951282Y-90282403D01*
X159949719Y-90274542D01*
X159948907Y-90273730D01*
X159948246Y-90271315D01*
X159910150Y-90195124D01*
X159905238Y-90188795D01*
X159900784Y-90182129D01*
X159862689Y-90144035D01*
X159856029Y-90139584D01*
X159849695Y-90134669D01*
X159773505Y-90096574D01*
X159771089Y-90095912D01*
X159770278Y-90095101D01*
X159762416Y-90093537D01*
X159754689Y-90091421D01*
X159753600Y-90091783D01*
X159751144Y-90091295D01*
X159598763Y-90091295D01*
X159596306Y-90091783D01*
X159595219Y-90091421D01*
X159587489Y-90093537D01*
X159579629Y-90095101D01*
X159578818Y-90095911D01*
X159576403Y-90096573D01*
X159500212Y-90134669D01*
X159493890Y-90139575D01*
X159487216Y-90144035D01*
X159449122Y-90182130D01*
X159444669Y-90188792D01*
X159439756Y-90195124D01*
X159401661Y-90271316D01*
X159400999Y-90273730D01*
X159400188Y-90274542D01*
X159398623Y-90282407D01*
X159396508Y-90290132D01*
X159396870Y-90291219D01*
X159396382Y-90293676D01*
X159307493Y-90293676D01*
X159307493Y-90002406D01*
X160838608Y-90002406D01*
X160838608Y-91080184D01*
G37*
X146776075Y-111261295D02*
X147233218Y-111261295D01*
X147004646Y-111261295D02*
X147004646Y-110461295D01*
X147004646Y-110461295D02*
X147080837Y-110575580D01*
X147080837Y-110575580D02*
X147157027Y-110651771D01*
X147157027Y-110651771D02*
X147233218Y-110689866D01*
X146471313Y-110537485D02*
X146433217Y-110499390D01*
X146433217Y-110499390D02*
X146357027Y-110461295D01*
X146357027Y-110461295D02*
X146166551Y-110461295D01*
X146166551Y-110461295D02*
X146090360Y-110499390D01*
X146090360Y-110499390D02*
X146052265Y-110537485D01*
X146052265Y-110537485D02*
X146014170Y-110613676D01*
X146014170Y-110613676D02*
X146014170Y-110689866D01*
X146014170Y-110689866D02*
X146052265Y-110804152D01*
X146052265Y-110804152D02*
X146509408Y-111261295D01*
X146509408Y-111261295D02*
X146014170Y-111261295D01*
X160309887Y-118881295D02*
X160767030Y-118881295D01*
X160538458Y-118881295D02*
X160538458Y-118081295D01*
X160538458Y-118081295D02*
X160614649Y-118195580D01*
X160614649Y-118195580D02*
X160690839Y-118271771D01*
X160690839Y-118271771D02*
X160767030Y-118309866D01*
X160043220Y-118081295D02*
X159509886Y-118081295D01*
X159509886Y-118081295D02*
X159852744Y-118881295D01*
X147690360Y-90179390D02*
X147766550Y-90141295D01*
X147766550Y-90141295D02*
X147880836Y-90141295D01*
X147880836Y-90141295D02*
X147995122Y-90179390D01*
X147995122Y-90179390D02*
X148071312Y-90255580D01*
X148071312Y-90255580D02*
X148109407Y-90331771D01*
X148109407Y-90331771D02*
X148147503Y-90484152D01*
X148147503Y-90484152D02*
X148147503Y-90598438D01*
X148147503Y-90598438D02*
X148109407Y-90750819D01*
X148109407Y-90750819D02*
X148071312Y-90827009D01*
X148071312Y-90827009D02*
X147995122Y-90903200D01*
X147995122Y-90903200D02*
X147880836Y-90941295D01*
X147880836Y-90941295D02*
X147804645Y-90941295D01*
X147804645Y-90941295D02*
X147690360Y-90903200D01*
X147690360Y-90903200D02*
X147652264Y-90865104D01*
X147652264Y-90865104D02*
X147652264Y-90598438D01*
X147652264Y-90598438D02*
X147804645Y-90598438D01*
X147309407Y-90941295D02*
X147309407Y-90141295D01*
X147309407Y-90141295D02*
X146852264Y-90941295D01*
X146852264Y-90941295D02*
X146852264Y-90141295D01*
X146471312Y-90941295D02*
X146471312Y-90141295D01*
X146471312Y-90141295D02*
X146280836Y-90141295D01*
X146280836Y-90141295D02*
X146166550Y-90179390D01*
X146166550Y-90179390D02*
X146090360Y-90255580D01*
X146090360Y-90255580D02*
X146052265Y-90331771D01*
X146052265Y-90331771D02*
X146014169Y-90484152D01*
X146014169Y-90484152D02*
X146014169Y-90598438D01*
X146014169Y-90598438D02*
X146052265Y-90750819D01*
X146052265Y-90750819D02*
X146090360Y-90827009D01*
X146090360Y-90827009D02*
X146166550Y-90903200D01*
X146166550Y-90903200D02*
X146280836Y-90941295D01*
X146280836Y-90941295D02*
X146471312Y-90941295D01*
X157403531Y-105486276D02*
X157313822Y-105607222D01*
X157313822Y-105607222D02*
X157118786Y-105743788D01*
X157118786Y-105743788D02*
X157013459Y-105759407D01*
X157013459Y-105759407D02*
X156947138Y-105747713D01*
X156947138Y-105747713D02*
X156853505Y-105697012D01*
X156853505Y-105697012D02*
X156798878Y-105618997D01*
X156798878Y-105618997D02*
X156783259Y-105513670D01*
X156783259Y-105513670D02*
X156794953Y-105447349D01*
X156794953Y-105447349D02*
X156845655Y-105353716D01*
X156845655Y-105353716D02*
X156974370Y-105205456D01*
X156974370Y-105205456D02*
X157025072Y-105111822D01*
X157025072Y-105111822D02*
X157036766Y-105045502D01*
X157036766Y-105045502D02*
X157021147Y-104940174D01*
X157021147Y-104940174D02*
X156966520Y-104862160D01*
X156966520Y-104862160D02*
X156872887Y-104811459D01*
X156872887Y-104811459D02*
X156806566Y-104799764D01*
X156806566Y-104799764D02*
X156701239Y-104815384D01*
X156701239Y-104815384D02*
X156506203Y-104951949D01*
X156506203Y-104951949D02*
X156416494Y-105072896D01*
X156116130Y-105225081D02*
X156494670Y-106180799D01*
X156494670Y-106180799D02*
X155928944Y-105704943D01*
X155928944Y-105704943D02*
X156182612Y-106399304D01*
X156182612Y-106399304D02*
X155414000Y-105716718D01*
X155152805Y-107004119D02*
X155219126Y-107015813D01*
X155219126Y-107015813D02*
X155363460Y-106972881D01*
X155363460Y-106972881D02*
X155441475Y-106918254D01*
X155441475Y-106918254D02*
X155531184Y-106797307D01*
X155531184Y-106797307D02*
X155554572Y-106664667D01*
X155554572Y-106664667D02*
X155538953Y-106559339D01*
X155538953Y-106559339D02*
X155468707Y-106375997D01*
X155468707Y-106375997D02*
X155386768Y-106258975D01*
X155386768Y-106258975D02*
X155238508Y-106130259D01*
X155238508Y-106130259D02*
X155144874Y-106079558D01*
X155144874Y-106079558D02*
X155012233Y-106056170D01*
X155012233Y-106056170D02*
X154867899Y-106099102D01*
X154867899Y-106099102D02*
X154789884Y-106153728D01*
X154789884Y-106153728D02*
X154700175Y-106274675D01*
X154700175Y-106274675D02*
X154688481Y-106340996D01*
X154466294Y-107601083D02*
X154856366Y-107327952D01*
X154856366Y-107327952D02*
X154282790Y-106508800D01*
X154193243Y-107792276D02*
X153619667Y-106973124D01*
X153725156Y-108120034D02*
X153748463Y-107406128D01*
X153151580Y-107300881D02*
X153947425Y-107441210D01*
X146280836Y-72361295D02*
X146204646Y-72361295D01*
X146204646Y-72361295D02*
X146128455Y-72399390D01*
X146128455Y-72399390D02*
X146090360Y-72437485D01*
X146090360Y-72437485D02*
X146052265Y-72513676D01*
X146052265Y-72513676D02*
X146014170Y-72666057D01*
X146014170Y-72666057D02*
X146014170Y-72856533D01*
X146014170Y-72856533D02*
X146052265Y-73008914D01*
X146052265Y-73008914D02*
X146090360Y-73085104D01*
X146090360Y-73085104D02*
X146128455Y-73123200D01*
X146128455Y-73123200D02*
X146204646Y-73161295D01*
X146204646Y-73161295D02*
X146280836Y-73161295D01*
X146280836Y-73161295D02*
X146357027Y-73123200D01*
X146357027Y-73123200D02*
X146395122Y-73085104D01*
X146395122Y-73085104D02*
X146433217Y-73008914D01*
X146433217Y-73008914D02*
X146471313Y-72856533D01*
X146471313Y-72856533D02*
X146471313Y-72666057D01*
X146471313Y-72666057D02*
X146433217Y-72513676D01*
X146433217Y-72513676D02*
X146395122Y-72437485D01*
X146395122Y-72437485D02*
X146357027Y-72399390D01*
X146357027Y-72399390D02*
X146280836Y-72361295D01*
D14*
X149652076Y-118993219D02*
X150128266Y-118993219D01*
X150128266Y-118993219D02*
X150128266Y-117993219D01*
D12*
X160741620Y-74850495D02*
X160474953Y-75650495D01*
X160474953Y-75650495D02*
X160208287Y-74850495D01*
X159979716Y-75612400D02*
X159865430Y-75650495D01*
X159865430Y-75650495D02*
X159674954Y-75650495D01*
X159674954Y-75650495D02*
X159598763Y-75612400D01*
X159598763Y-75612400D02*
X159560668Y-75574304D01*
X159560668Y-75574304D02*
X159522573Y-75498114D01*
X159522573Y-75498114D02*
X159522573Y-75421923D01*
X159522573Y-75421923D02*
X159560668Y-75345733D01*
X159560668Y-75345733D02*
X159598763Y-75307638D01*
X159598763Y-75307638D02*
X159674954Y-75269542D01*
X159674954Y-75269542D02*
X159827335Y-75231447D01*
X159827335Y-75231447D02*
X159903525Y-75193352D01*
X159903525Y-75193352D02*
X159941620Y-75155257D01*
X159941620Y-75155257D02*
X159979716Y-75079066D01*
X159979716Y-75079066D02*
X159979716Y-75002876D01*
X159979716Y-75002876D02*
X159941620Y-74926685D01*
X159941620Y-74926685D02*
X159903525Y-74888590D01*
X159903525Y-74888590D02*
X159827335Y-74850495D01*
X159827335Y-74850495D02*
X159636858Y-74850495D01*
X159636858Y-74850495D02*
X159522573Y-74888590D01*
X159027334Y-75269542D02*
X159027334Y-75650495D01*
X159294001Y-74850495D02*
X159027334Y-75269542D01*
X159027334Y-75269542D02*
X158760668Y-74850495D01*
X158532097Y-75612400D02*
X158417811Y-75650495D01*
X158417811Y-75650495D02*
X158227335Y-75650495D01*
X158227335Y-75650495D02*
X158151144Y-75612400D01*
X158151144Y-75612400D02*
X158113049Y-75574304D01*
X158113049Y-75574304D02*
X158074954Y-75498114D01*
X158074954Y-75498114D02*
X158074954Y-75421923D01*
X158074954Y-75421923D02*
X158113049Y-75345733D01*
X158113049Y-75345733D02*
X158151144Y-75307638D01*
X158151144Y-75307638D02*
X158227335Y-75269542D01*
X158227335Y-75269542D02*
X158379716Y-75231447D01*
X158379716Y-75231447D02*
X158455906Y-75193352D01*
X158455906Y-75193352D02*
X158494001Y-75155257D01*
X158494001Y-75155257D02*
X158532097Y-75079066D01*
X158532097Y-75079066D02*
X158532097Y-75002876D01*
X158532097Y-75002876D02*
X158494001Y-74926685D01*
X158494001Y-74926685D02*
X158455906Y-74888590D01*
X158455906Y-74888590D02*
X158379716Y-74850495D01*
X158379716Y-74850495D02*
X158189239Y-74850495D01*
X158189239Y-74850495D02*
X158074954Y-74888590D01*
X146318932Y-98154952D02*
X146395122Y-98116857D01*
X146395122Y-98116857D02*
X146433217Y-98078761D01*
X146433217Y-98078761D02*
X146471313Y-98002571D01*
X146471313Y-98002571D02*
X146471313Y-97964476D01*
X146471313Y-97964476D02*
X146433217Y-97888285D01*
X146433217Y-97888285D02*
X146395122Y-97850190D01*
X146395122Y-97850190D02*
X146318932Y-97812095D01*
X146318932Y-97812095D02*
X146166551Y-97812095D01*
X146166551Y-97812095D02*
X146090360Y-97850190D01*
X146090360Y-97850190D02*
X146052265Y-97888285D01*
X146052265Y-97888285D02*
X146014170Y-97964476D01*
X146014170Y-97964476D02*
X146014170Y-98002571D01*
X146014170Y-98002571D02*
X146052265Y-98078761D01*
X146052265Y-98078761D02*
X146090360Y-98116857D01*
X146090360Y-98116857D02*
X146166551Y-98154952D01*
X146166551Y-98154952D02*
X146318932Y-98154952D01*
X146318932Y-98154952D02*
X146395122Y-98193047D01*
X146395122Y-98193047D02*
X146433217Y-98231142D01*
X146433217Y-98231142D02*
X146471313Y-98307333D01*
X146471313Y-98307333D02*
X146471313Y-98459714D01*
X146471313Y-98459714D02*
X146433217Y-98535904D01*
X146433217Y-98535904D02*
X146395122Y-98574000D01*
X146395122Y-98574000D02*
X146318932Y-98612095D01*
X146318932Y-98612095D02*
X146166551Y-98612095D01*
X146166551Y-98612095D02*
X146090360Y-98574000D01*
X146090360Y-98574000D02*
X146052265Y-98535904D01*
X146052265Y-98535904D02*
X146014170Y-98459714D01*
X146014170Y-98459714D02*
X146014170Y-98307333D01*
X146014170Y-98307333D02*
X146052265Y-98231142D01*
X146052265Y-98231142D02*
X146090360Y-98193047D01*
X146090360Y-98193047D02*
X146166551Y-98154952D01*
G36*
X159797716Y-87731282D02*
G01*
X159824336Y-87757903D01*
X159853525Y-87816279D01*
X159853525Y-87983148D01*
X159824337Y-88041523D01*
X159797714Y-88068146D01*
X159739341Y-88097333D01*
X159610566Y-88097333D01*
X159552192Y-88068146D01*
X159525569Y-88041523D01*
X159496382Y-87983149D01*
X159496382Y-87816278D01*
X159525570Y-87757901D01*
X159552191Y-87731281D01*
X159610566Y-87702095D01*
X159739341Y-87702095D01*
X159797716Y-87731282D01*
G37*
G36*
X160838608Y-88590984D02*
G01*
X159307493Y-88590984D01*
X159307493Y-87804476D01*
X159396382Y-87804476D01*
X159396382Y-88109238D01*
X159397577Y-88115247D01*
X159397875Y-88121365D01*
X159435970Y-88273746D01*
X159439616Y-88281464D01*
X159442874Y-88289354D01*
X159519064Y-88403639D01*
X159522563Y-88407145D01*
X159525312Y-88411259D01*
X159563408Y-88449355D01*
X159570067Y-88453805D01*
X159576402Y-88458721D01*
X159652592Y-88496816D01*
X159655007Y-88497477D01*
X159655819Y-88498289D01*
X159663680Y-88499852D01*
X159671408Y-88501969D01*
X159672496Y-88501606D01*
X159674953Y-88502095D01*
X159827334Y-88502095D01*
X159846468Y-88498289D01*
X159873528Y-88471229D01*
X159873528Y-88432961D01*
X159846468Y-88405901D01*
X159827334Y-88402095D01*
X159686756Y-88402095D01*
X159628380Y-88372907D01*
X159599523Y-88344050D01*
X159530882Y-88241088D01*
X159510370Y-88159038D01*
X159576403Y-88192055D01*
X159578818Y-88192716D01*
X159579629Y-88193527D01*
X159587489Y-88195090D01*
X159595219Y-88197207D01*
X159596306Y-88196844D01*
X159598763Y-88197333D01*
X159751144Y-88197333D01*
X159753600Y-88196844D01*
X159754689Y-88197207D01*
X159762416Y-88195090D01*
X159770278Y-88193527D01*
X159771089Y-88192715D01*
X159773505Y-88192054D01*
X159849695Y-88153959D01*
X159856023Y-88149047D01*
X159862690Y-88144593D01*
X159900785Y-88106497D01*
X159905238Y-88099831D01*
X159910150Y-88093503D01*
X159948246Y-88017314D01*
X159948907Y-88014897D01*
X159949719Y-88014086D01*
X159951282Y-88006227D01*
X159953399Y-87998498D01*
X159953036Y-87997409D01*
X159953525Y-87994952D01*
X159953525Y-87804476D01*
X160158287Y-87804476D01*
X160158287Y-87880666D01*
X160159850Y-87888528D01*
X160160853Y-87896477D01*
X160198948Y-88010763D01*
X160200188Y-88012938D01*
X160200188Y-88014086D01*
X160204638Y-88020746D01*
X160208609Y-88027712D01*
X160209636Y-88028225D01*
X160211027Y-88030307D01*
X160582815Y-88402095D01*
X160208287Y-88402095D01*
X160189153Y-88405901D01*
X160162093Y-88432961D01*
X160162093Y-88471229D01*
X160189153Y-88498289D01*
X160208287Y-88502095D01*
X160703525Y-88502095D01*
X160722659Y-88498289D01*
X160749719Y-88471229D01*
X160749719Y-88432961D01*
X160738880Y-88416740D01*
X160290083Y-87967943D01*
X160258287Y-87872553D01*
X160258287Y-87816278D01*
X160287475Y-87757901D01*
X160314096Y-87731281D01*
X160372471Y-87702095D01*
X160539341Y-87702095D01*
X160597715Y-87731282D01*
X160630075Y-87763641D01*
X160646296Y-87774479D01*
X160684565Y-87774478D01*
X160711624Y-87747419D01*
X160711623Y-87709150D01*
X160700785Y-87692929D01*
X160662689Y-87654834D01*
X160656023Y-87650380D01*
X160649695Y-87645469D01*
X160573505Y-87607374D01*
X160571089Y-87606712D01*
X160570278Y-87605901D01*
X160562416Y-87604337D01*
X160554689Y-87602221D01*
X160553600Y-87602583D01*
X160551144Y-87602095D01*
X160360668Y-87602095D01*
X160358211Y-87602583D01*
X160357124Y-87602221D01*
X160349394Y-87604337D01*
X160341534Y-87605901D01*
X160340723Y-87606711D01*
X160338308Y-87607373D01*
X160262117Y-87645469D01*
X160255795Y-87650375D01*
X160249121Y-87654835D01*
X160211027Y-87692930D01*
X160206574Y-87699592D01*
X160201661Y-87705924D01*
X160163566Y-87782116D01*
X160162904Y-87784530D01*
X160162093Y-87785342D01*
X160160528Y-87793207D01*
X160158413Y-87800932D01*
X160158775Y-87802019D01*
X160158287Y-87804476D01*
X159953525Y-87804476D01*
X159953036Y-87802019D01*
X159953399Y-87800931D01*
X159951282Y-87793203D01*
X159949719Y-87785342D01*
X159948907Y-87784530D01*
X159948246Y-87782115D01*
X159910150Y-87705924D01*
X159905238Y-87699595D01*
X159900784Y-87692929D01*
X159862689Y-87654835D01*
X159856029Y-87650384D01*
X159849695Y-87645469D01*
X159773505Y-87607374D01*
X159771089Y-87606712D01*
X159770278Y-87605901D01*
X159762416Y-87604337D01*
X159754689Y-87602221D01*
X159753600Y-87602583D01*
X159751144Y-87602095D01*
X159598763Y-87602095D01*
X159596306Y-87602583D01*
X159595219Y-87602221D01*
X159587489Y-87604337D01*
X159579629Y-87605901D01*
X159578818Y-87606711D01*
X159576403Y-87607373D01*
X159500212Y-87645469D01*
X159493890Y-87650375D01*
X159487216Y-87654835D01*
X159449122Y-87692930D01*
X159444669Y-87699592D01*
X159439756Y-87705924D01*
X159401661Y-87782116D01*
X159400999Y-87784530D01*
X159400188Y-87785342D01*
X159398623Y-87793207D01*
X159396508Y-87800932D01*
X159396870Y-87802019D01*
X159396382Y-87804476D01*
X159307493Y-87804476D01*
X159307493Y-87513206D01*
X160838608Y-87513206D01*
X160838608Y-88590984D01*
G37*
X160309887Y-113801295D02*
X160767030Y-113801295D01*
X160538458Y-113801295D02*
X160538458Y-113001295D01*
X160538458Y-113001295D02*
X160614649Y-113115580D01*
X160614649Y-113115580D02*
X160690839Y-113191771D01*
X160690839Y-113191771D02*
X160767030Y-113229866D01*
X159852744Y-113344152D02*
X159928934Y-113306057D01*
X159928934Y-113306057D02*
X159967029Y-113267961D01*
X159967029Y-113267961D02*
X160005125Y-113191771D01*
X160005125Y-113191771D02*
X160005125Y-113153676D01*
X160005125Y-113153676D02*
X159967029Y-113077485D01*
X159967029Y-113077485D02*
X159928934Y-113039390D01*
X159928934Y-113039390D02*
X159852744Y-113001295D01*
X159852744Y-113001295D02*
X159700363Y-113001295D01*
X159700363Y-113001295D02*
X159624172Y-113039390D01*
X159624172Y-113039390D02*
X159586077Y-113077485D01*
X159586077Y-113077485D02*
X159547982Y-113153676D01*
X159547982Y-113153676D02*
X159547982Y-113191771D01*
X159547982Y-113191771D02*
X159586077Y-113267961D01*
X159586077Y-113267961D02*
X159624172Y-113306057D01*
X159624172Y-113306057D02*
X159700363Y-113344152D01*
X159700363Y-113344152D02*
X159852744Y-113344152D01*
X159852744Y-113344152D02*
X159928934Y-113382247D01*
X159928934Y-113382247D02*
X159967029Y-113420342D01*
X159967029Y-113420342D02*
X160005125Y-113496533D01*
X160005125Y-113496533D02*
X160005125Y-113648914D01*
X160005125Y-113648914D02*
X159967029Y-113725104D01*
X159967029Y-113725104D02*
X159928934Y-113763200D01*
X159928934Y-113763200D02*
X159852744Y-113801295D01*
X159852744Y-113801295D02*
X159700363Y-113801295D01*
X159700363Y-113801295D02*
X159624172Y-113763200D01*
X159624172Y-113763200D02*
X159586077Y-113725104D01*
X159586077Y-113725104D02*
X159547982Y-113648914D01*
X159547982Y-113648914D02*
X159547982Y-113496533D01*
X159547982Y-113496533D02*
X159586077Y-113420342D01*
X159586077Y-113420342D02*
X159624172Y-113382247D01*
X159624172Y-113382247D02*
X159700363Y-113344152D01*
X160309887Y-77479390D02*
X160386077Y-77441295D01*
X160386077Y-77441295D02*
X160500363Y-77441295D01*
X160500363Y-77441295D02*
X160614649Y-77479390D01*
X160614649Y-77479390D02*
X160690839Y-77555580D01*
X160690839Y-77555580D02*
X160728934Y-77631771D01*
X160728934Y-77631771D02*
X160767030Y-77784152D01*
X160767030Y-77784152D02*
X160767030Y-77898438D01*
X160767030Y-77898438D02*
X160728934Y-78050819D01*
X160728934Y-78050819D02*
X160690839Y-78127009D01*
X160690839Y-78127009D02*
X160614649Y-78203200D01*
X160614649Y-78203200D02*
X160500363Y-78241295D01*
X160500363Y-78241295D02*
X160424172Y-78241295D01*
X160424172Y-78241295D02*
X160309887Y-78203200D01*
X160309887Y-78203200D02*
X160271791Y-78165104D01*
X160271791Y-78165104D02*
X160271791Y-77898438D01*
X160271791Y-77898438D02*
X160424172Y-77898438D01*
X159928934Y-78241295D02*
X159928934Y-77441295D01*
X159928934Y-77441295D02*
X159471791Y-78241295D01*
X159471791Y-78241295D02*
X159471791Y-77441295D01*
X159090839Y-78241295D02*
X159090839Y-77441295D01*
X159090839Y-77441295D02*
X158900363Y-77441295D01*
X158900363Y-77441295D02*
X158786077Y-77479390D01*
X158786077Y-77479390D02*
X158709887Y-77555580D01*
X158709887Y-77555580D02*
X158671792Y-77631771D01*
X158671792Y-77631771D02*
X158633696Y-77784152D01*
X158633696Y-77784152D02*
X158633696Y-77898438D01*
X158633696Y-77898438D02*
X158671792Y-78050819D01*
X158671792Y-78050819D02*
X158709887Y-78127009D01*
X158709887Y-78127009D02*
X158786077Y-78203200D01*
X158786077Y-78203200D02*
X158900363Y-78241295D01*
X158900363Y-78241295D02*
X159090839Y-78241295D01*
G36*
X160838608Y-93670984D02*
G01*
X159269401Y-93670984D01*
X159269401Y-92732705D01*
X159358290Y-92732705D01*
X159362092Y-92750671D01*
X159362092Y-92751229D01*
X159362241Y-92751378D01*
X159362329Y-92751791D01*
X159705187Y-93551791D01*
X159716222Y-93567878D01*
X159751754Y-93582091D01*
X159786928Y-93567016D01*
X159801140Y-93531485D01*
X159797101Y-93512399D01*
X159527991Y-92884476D01*
X160158287Y-92884476D01*
X160158287Y-92960666D01*
X160159850Y-92968528D01*
X160160853Y-92976477D01*
X160198948Y-93090763D01*
X160200188Y-93092938D01*
X160200188Y-93094086D01*
X160204638Y-93100746D01*
X160208609Y-93107712D01*
X160209636Y-93108225D01*
X160211027Y-93110307D01*
X160582815Y-93482095D01*
X160208287Y-93482095D01*
X160189153Y-93485901D01*
X160162093Y-93512961D01*
X160162093Y-93551229D01*
X160189153Y-93578289D01*
X160208287Y-93582095D01*
X160703525Y-93582095D01*
X160722659Y-93578289D01*
X160749719Y-93551229D01*
X160749719Y-93512961D01*
X160738880Y-93496740D01*
X160290083Y-93047943D01*
X160258287Y-92952553D01*
X160258287Y-92896278D01*
X160287475Y-92837901D01*
X160314096Y-92811281D01*
X160372471Y-92782095D01*
X160539341Y-92782095D01*
X160597715Y-92811282D01*
X160630075Y-92843641D01*
X160646296Y-92854479D01*
X160684565Y-92854478D01*
X160711624Y-92827419D01*
X160711623Y-92789150D01*
X160700785Y-92772929D01*
X160662689Y-92734834D01*
X160656023Y-92730380D01*
X160649695Y-92725469D01*
X160573505Y-92687374D01*
X160571089Y-92686712D01*
X160570278Y-92685901D01*
X160562416Y-92684337D01*
X160554689Y-92682221D01*
X160553600Y-92682583D01*
X160551144Y-92682095D01*
X160360668Y-92682095D01*
X160358211Y-92682583D01*
X160357124Y-92682221D01*
X160349394Y-92684337D01*
X160341534Y-92685901D01*
X160340723Y-92686711D01*
X160338308Y-92687373D01*
X160262117Y-92725469D01*
X160255795Y-92730375D01*
X160249121Y-92734835D01*
X160211027Y-92772930D01*
X160206574Y-92779592D01*
X160201661Y-92785924D01*
X160163566Y-92862116D01*
X160162904Y-92864530D01*
X160162093Y-92865342D01*
X160160528Y-92873207D01*
X160158413Y-92880932D01*
X160158775Y-92882019D01*
X160158287Y-92884476D01*
X159527991Y-92884476D01*
X159484113Y-92782095D01*
X159941620Y-92782095D01*
X159960754Y-92778289D01*
X159987814Y-92751229D01*
X159987814Y-92712961D01*
X159960754Y-92685901D01*
X159941620Y-92682095D01*
X159408286Y-92682095D01*
X159407871Y-92682177D01*
X159407676Y-92682099D01*
X159407165Y-92682317D01*
X159389152Y-92685901D01*
X159381913Y-92693139D01*
X159372502Y-92697173D01*
X159368917Y-92706135D01*
X159362092Y-92712961D01*
X159362092Y-92723199D01*
X159358290Y-92732705D01*
X159269401Y-92732705D01*
X159269401Y-92593206D01*
X160838608Y-92593206D01*
X160838608Y-93670984D01*
G37*
X160741620Y-72310495D02*
X160474953Y-73110495D01*
X160474953Y-73110495D02*
X160208287Y-72310495D01*
X159674954Y-72691447D02*
X159560668Y-72729542D01*
X159560668Y-72729542D02*
X159522573Y-72767638D01*
X159522573Y-72767638D02*
X159484477Y-72843828D01*
X159484477Y-72843828D02*
X159484477Y-72958114D01*
X159484477Y-72958114D02*
X159522573Y-73034304D01*
X159522573Y-73034304D02*
X159560668Y-73072400D01*
X159560668Y-73072400D02*
X159636858Y-73110495D01*
X159636858Y-73110495D02*
X159941620Y-73110495D01*
X159941620Y-73110495D02*
X159941620Y-72310495D01*
X159941620Y-72310495D02*
X159674954Y-72310495D01*
X159674954Y-72310495D02*
X159598763Y-72348590D01*
X159598763Y-72348590D02*
X159560668Y-72386685D01*
X159560668Y-72386685D02*
X159522573Y-72462876D01*
X159522573Y-72462876D02*
X159522573Y-72539066D01*
X159522573Y-72539066D02*
X159560668Y-72615257D01*
X159560668Y-72615257D02*
X159598763Y-72653352D01*
X159598763Y-72653352D02*
X159674954Y-72691447D01*
X159674954Y-72691447D02*
X159941620Y-72691447D01*
X159179716Y-73072400D02*
X159065430Y-73110495D01*
X159065430Y-73110495D02*
X158874954Y-73110495D01*
X158874954Y-73110495D02*
X158798763Y-73072400D01*
X158798763Y-73072400D02*
X158760668Y-73034304D01*
X158760668Y-73034304D02*
X158722573Y-72958114D01*
X158722573Y-72958114D02*
X158722573Y-72881923D01*
X158722573Y-72881923D02*
X158760668Y-72805733D01*
X158760668Y-72805733D02*
X158798763Y-72767638D01*
X158798763Y-72767638D02*
X158874954Y-72729542D01*
X158874954Y-72729542D02*
X159027335Y-72691447D01*
X159027335Y-72691447D02*
X159103525Y-72653352D01*
X159103525Y-72653352D02*
X159141620Y-72615257D01*
X159141620Y-72615257D02*
X159179716Y-72539066D01*
X159179716Y-72539066D02*
X159179716Y-72462876D01*
X159179716Y-72462876D02*
X159141620Y-72386685D01*
X159141620Y-72386685D02*
X159103525Y-72348590D01*
X159103525Y-72348590D02*
X159027335Y-72310495D01*
X159027335Y-72310495D02*
X158836858Y-72310495D01*
X158836858Y-72310495D02*
X158722573Y-72348590D01*
X160309887Y-111312095D02*
X160767030Y-111312095D01*
X160538458Y-111312095D02*
X160538458Y-110512095D01*
X160538458Y-110512095D02*
X160614649Y-110626380D01*
X160614649Y-110626380D02*
X160690839Y-110702571D01*
X160690839Y-110702571D02*
X160767030Y-110740666D01*
X159928934Y-111312095D02*
X159776553Y-111312095D01*
X159776553Y-111312095D02*
X159700363Y-111274000D01*
X159700363Y-111274000D02*
X159662267Y-111235904D01*
X159662267Y-111235904D02*
X159586077Y-111121619D01*
X159586077Y-111121619D02*
X159547982Y-110969238D01*
X159547982Y-110969238D02*
X159547982Y-110664476D01*
X159547982Y-110664476D02*
X159586077Y-110588285D01*
X159586077Y-110588285D02*
X159624172Y-110550190D01*
X159624172Y-110550190D02*
X159700363Y-110512095D01*
X159700363Y-110512095D02*
X159852744Y-110512095D01*
X159852744Y-110512095D02*
X159928934Y-110550190D01*
X159928934Y-110550190D02*
X159967029Y-110588285D01*
X159967029Y-110588285D02*
X160005125Y-110664476D01*
X160005125Y-110664476D02*
X160005125Y-110854952D01*
X160005125Y-110854952D02*
X159967029Y-110931142D01*
X159967029Y-110931142D02*
X159928934Y-110969238D01*
X159928934Y-110969238D02*
X159852744Y-111007333D01*
X159852744Y-111007333D02*
X159700363Y-111007333D01*
X159700363Y-111007333D02*
X159624172Y-110969238D01*
X159624172Y-110969238D02*
X159586077Y-110931142D01*
X159586077Y-110931142D02*
X159547982Y-110854952D01*
X146090360Y-92681295D02*
X146242741Y-92681295D01*
X146242741Y-92681295D02*
X146318932Y-92719390D01*
X146318932Y-92719390D02*
X146357027Y-92757485D01*
X146357027Y-92757485D02*
X146433217Y-92871771D01*
X146433217Y-92871771D02*
X146471313Y-93024152D01*
X146471313Y-93024152D02*
X146471313Y-93328914D01*
X146471313Y-93328914D02*
X146433217Y-93405104D01*
X146433217Y-93405104D02*
X146395122Y-93443200D01*
X146395122Y-93443200D02*
X146318932Y-93481295D01*
X146318932Y-93481295D02*
X146166551Y-93481295D01*
X146166551Y-93481295D02*
X146090360Y-93443200D01*
X146090360Y-93443200D02*
X146052265Y-93405104D01*
X146052265Y-93405104D02*
X146014170Y-93328914D01*
X146014170Y-93328914D02*
X146014170Y-93138438D01*
X146014170Y-93138438D02*
X146052265Y-93062247D01*
X146052265Y-93062247D02*
X146090360Y-93024152D01*
X146090360Y-93024152D02*
X146166551Y-92986057D01*
X146166551Y-92986057D02*
X146318932Y-92986057D01*
X146318932Y-92986057D02*
X146395122Y-93024152D01*
X146395122Y-93024152D02*
X146433217Y-93062247D01*
X146433217Y-93062247D02*
X146471313Y-93138438D01*
X159959904Y-104000208D02*
X160759904Y-104000208D01*
X159959904Y-103619256D02*
X160759904Y-103619256D01*
X160759904Y-103619256D02*
X159959904Y-103162113D01*
X159959904Y-103162113D02*
X160759904Y-103162113D01*
X160759904Y-102895447D02*
X160759904Y-102438304D01*
X159959904Y-102666876D02*
X160759904Y-102666876D01*
X160716230Y-80108285D02*
X160678134Y-80070190D01*
X160678134Y-80070190D02*
X160601944Y-80032095D01*
X160601944Y-80032095D02*
X160411468Y-80032095D01*
X160411468Y-80032095D02*
X160335277Y-80070190D01*
X160335277Y-80070190D02*
X160297182Y-80108285D01*
X160297182Y-80108285D02*
X160259087Y-80184476D01*
X160259087Y-80184476D02*
X160259087Y-80260666D01*
X160259087Y-80260666D02*
X160297182Y-80374952D01*
X160297182Y-80374952D02*
X160754325Y-80832095D01*
X160754325Y-80832095D02*
X160259087Y-80832095D01*
X159573372Y-80298761D02*
X159573372Y-80832095D01*
X159763848Y-79994000D02*
X159954325Y-80565428D01*
X159954325Y-80565428D02*
X159459086Y-80565428D01*
X146141160Y-85378761D02*
X146141160Y-85912095D01*
X146331636Y-85074000D02*
X146522113Y-85645428D01*
X146522113Y-85645428D02*
X146026874Y-85645428D01*
X146776075Y-108772095D02*
X147233218Y-108772095D01*
X147004646Y-108772095D02*
X147004646Y-107972095D01*
X147004646Y-107972095D02*
X147080837Y-108086380D01*
X147080837Y-108086380D02*
X147157027Y-108162571D01*
X147157027Y-108162571D02*
X147233218Y-108200666D01*
X146014170Y-108772095D02*
X146471313Y-108772095D01*
X146242741Y-108772095D02*
X146242741Y-107972095D01*
X146242741Y-107972095D02*
X146318932Y-108086380D01*
X146318932Y-108086380D02*
X146395122Y-108162571D01*
X146395122Y-108162571D02*
X146471313Y-108200666D01*
X160291791Y-101152095D02*
X160558458Y-100771142D01*
X160748934Y-101152095D02*
X160748934Y-100352095D01*
X160748934Y-100352095D02*
X160444172Y-100352095D01*
X160444172Y-100352095D02*
X160367982Y-100390190D01*
X160367982Y-100390190D02*
X160329887Y-100428285D01*
X160329887Y-100428285D02*
X160291791Y-100504476D01*
X160291791Y-100504476D02*
X160291791Y-100618761D01*
X160291791Y-100618761D02*
X160329887Y-100694952D01*
X160329887Y-100694952D02*
X160367982Y-100733047D01*
X160367982Y-100733047D02*
X160444172Y-100771142D01*
X160444172Y-100771142D02*
X160748934Y-100771142D01*
X159948934Y-100352095D02*
X159948934Y-100999714D01*
X159948934Y-100999714D02*
X159910839Y-101075904D01*
X159910839Y-101075904D02*
X159872744Y-101114000D01*
X159872744Y-101114000D02*
X159796553Y-101152095D01*
X159796553Y-101152095D02*
X159644172Y-101152095D01*
X159644172Y-101152095D02*
X159567982Y-101114000D01*
X159567982Y-101114000D02*
X159529887Y-101075904D01*
X159529887Y-101075904D02*
X159491791Y-100999714D01*
X159491791Y-100999714D02*
X159491791Y-100352095D01*
X159110839Y-101152095D02*
X159110839Y-100352095D01*
X159110839Y-100352095D02*
X158653696Y-101152095D01*
X158653696Y-101152095D02*
X158653696Y-100352095D01*
D14*
X157156113Y-119044019D02*
X157156113Y-118044019D01*
X157156113Y-118520209D02*
X156584685Y-118520209D01*
X156584685Y-119044019D02*
X156584685Y-118044019D01*
D12*
X146776075Y-106232095D02*
X147233218Y-106232095D01*
X147004646Y-106232095D02*
X147004646Y-105432095D01*
X147004646Y-105432095D02*
X147080837Y-105546380D01*
X147080837Y-105546380D02*
X147157027Y-105622571D01*
X147157027Y-105622571D02*
X147233218Y-105660666D01*
X146280836Y-105432095D02*
X146204646Y-105432095D01*
X146204646Y-105432095D02*
X146128455Y-105470190D01*
X146128455Y-105470190D02*
X146090360Y-105508285D01*
X146090360Y-105508285D02*
X146052265Y-105584476D01*
X146052265Y-105584476D02*
X146014170Y-105736857D01*
X146014170Y-105736857D02*
X146014170Y-105927333D01*
X146014170Y-105927333D02*
X146052265Y-106079714D01*
X146052265Y-106079714D02*
X146090360Y-106155904D01*
X146090360Y-106155904D02*
X146128455Y-106194000D01*
X146128455Y-106194000D02*
X146204646Y-106232095D01*
X146204646Y-106232095D02*
X146280836Y-106232095D01*
X146280836Y-106232095D02*
X146357027Y-106194000D01*
X146357027Y-106194000D02*
X146395122Y-106155904D01*
X146395122Y-106155904D02*
X146433217Y-106079714D01*
X146433217Y-106079714D02*
X146471313Y-105927333D01*
X146471313Y-105927333D02*
X146471313Y-105736857D01*
X146471313Y-105736857D02*
X146433217Y-105584476D01*
X146433217Y-105584476D02*
X146395122Y-105508285D01*
X146395122Y-105508285D02*
X146357027Y-105470190D01*
X146357027Y-105470190D02*
X146280836Y-105432095D01*
X146014170Y-75701295D02*
X146471313Y-75701295D01*
X146242741Y-75701295D02*
X146242741Y-74901295D01*
X146242741Y-74901295D02*
X146318932Y-75015580D01*
X146318932Y-75015580D02*
X146395122Y-75091771D01*
X146395122Y-75091771D02*
X146471313Y-75129866D01*
X147690360Y-115630190D02*
X147766550Y-115592095D01*
X147766550Y-115592095D02*
X147880836Y-115592095D01*
X147880836Y-115592095D02*
X147995122Y-115630190D01*
X147995122Y-115630190D02*
X148071312Y-115706380D01*
X148071312Y-115706380D02*
X148109407Y-115782571D01*
X148109407Y-115782571D02*
X148147503Y-115934952D01*
X148147503Y-115934952D02*
X148147503Y-116049238D01*
X148147503Y-116049238D02*
X148109407Y-116201619D01*
X148109407Y-116201619D02*
X148071312Y-116277809D01*
X148071312Y-116277809D02*
X147995122Y-116354000D01*
X147995122Y-116354000D02*
X147880836Y-116392095D01*
X147880836Y-116392095D02*
X147804645Y-116392095D01*
X147804645Y-116392095D02*
X147690360Y-116354000D01*
X147690360Y-116354000D02*
X147652264Y-116315904D01*
X147652264Y-116315904D02*
X147652264Y-116049238D01*
X147652264Y-116049238D02*
X147804645Y-116049238D01*
X147309407Y-116392095D02*
X147309407Y-115592095D01*
X147309407Y-115592095D02*
X146852264Y-116392095D01*
X146852264Y-116392095D02*
X146852264Y-115592095D01*
X146471312Y-116392095D02*
X146471312Y-115592095D01*
X146471312Y-115592095D02*
X146280836Y-115592095D01*
X146280836Y-115592095D02*
X146166550Y-115630190D01*
X146166550Y-115630190D02*
X146090360Y-115706380D01*
X146090360Y-115706380D02*
X146052265Y-115782571D01*
X146052265Y-115782571D02*
X146014169Y-115934952D01*
X146014169Y-115934952D02*
X146014169Y-116049238D01*
X146014169Y-116049238D02*
X146052265Y-116201619D01*
X146052265Y-116201619D02*
X146090360Y-116277809D01*
X146090360Y-116277809D02*
X146166550Y-116354000D01*
X146166550Y-116354000D02*
X146280836Y-116392095D01*
X146280836Y-116392095D02*
X146471312Y-116392095D01*
M02*
