%TF.GenerationSoftware,KiCad,Pcbnew,9.0.2*%
%TF.CreationDate,2026-04-01T22:26:16-07:00*%
%TF.ProjectId,PicoCAN,5069636f-4341-44e2-9e6b-696361645f70,rev?*%
%TF.SameCoordinates,Original*%
%TF.FileFunction,Soldermask,Bot*%
%TF.FilePolarity,Negative*%
%FSLAX46Y46*%
G04 Gerber Fmt 4.6, Leading zero omitted, Abs format (unit mm)*
G04 Created by KiCad (PCBNEW 9.0.2) date 2026-04-01 22:26:16*
%MOMM*%
%LPD*%
G01*
G04 APERTURE LIST*
%ADD10O,1.000000X1.600000*%
%ADD11O,1.000000X2.100000*%
%ADD12C,0.650000*%
%ADD13C,1.700000*%
%ADD14R,1.700000X1.700000*%
%ADD15C,2.000000*%
%ADD16C,0.610000*%
G04 APERTURE END LIST*
D10*
%TO.C,J1*%
X149055000Y-72637500D03*
D11*
X149055000Y-76817500D03*
D10*
X157695000Y-72637500D03*
D11*
X157695000Y-76817500D03*
D12*
X150485000Y-76287500D03*
X156265000Y-76287500D03*
%TD*%
D13*
%TO.C,J2*%
X144485000Y-121067500D03*
X144485000Y-118527500D03*
X144485000Y-115987500D03*
X144485000Y-113447500D03*
X144485000Y-110907500D03*
X144485000Y-108367500D03*
X144485000Y-105827500D03*
X144485000Y-103287500D03*
X144485000Y-100747500D03*
X144485000Y-98207500D03*
X144485000Y-95667500D03*
X144485000Y-93127500D03*
X144485000Y-90587500D03*
X144485000Y-88047500D03*
X144485000Y-85507500D03*
X144485000Y-82967500D03*
X144485000Y-80427500D03*
X144485000Y-77887500D03*
X144485000Y-75347500D03*
D14*
X144485000Y-72807500D03*
%TD*%
D13*
%TO.C,J3*%
X162265000Y-121067500D03*
X162265000Y-118527500D03*
X162265000Y-115987500D03*
X162265000Y-113447500D03*
X162265000Y-110907500D03*
X162265000Y-108367500D03*
X162265000Y-105827500D03*
X162265000Y-103287500D03*
X162265000Y-100747500D03*
X162265000Y-98207500D03*
X162265000Y-95667500D03*
X162265000Y-93127500D03*
X162265000Y-90587500D03*
X162265000Y-88047500D03*
X162265000Y-85507500D03*
X162265000Y-82967500D03*
X162265000Y-80427500D03*
X162265000Y-77887500D03*
X162265000Y-75347500D03*
X162265000Y-72807500D03*
%TD*%
%TO.C,J4*%
X158623000Y-102489000D03*
D14*
X158623000Y-105029000D03*
%TD*%
D15*
%TO.C,J5*%
X156875000Y-121051250D03*
X153375000Y-121051250D03*
X149875000Y-121051250D03*
%TD*%
D13*
%TO.C,J7*%
X149878513Y-115490625D03*
D14*
X152418513Y-115490625D03*
%TD*%
D16*
%TO.C,U4*%
X151128513Y-110201000D03*
X151128513Y-109001000D03*
X149928513Y-110201000D03*
X149928513Y-109001000D03*
%TD*%
M02*
