%TF.GenerationSoftware,KiCad,Pcbnew,9.0.2*%
%TF.CreationDate,2026-04-01T22:26:16-07:00*%
%TF.ProjectId,PicoCAN,5069636f-4341-44e2-9e6b-696361645f70,rev?*%
%TF.SameCoordinates,Original*%
%TF.FileFunction,Copper,L1,Top*%
%TF.FilePolarity,Positive*%
%FSLAX46Y46*%
G04 Gerber Fmt 4.6, Leading zero omitted, Abs format (unit mm)*
G04 Created by KiCad (PCBNEW 9.0.2) date 2026-04-01 22:26:16*
%MOMM*%
%LPD*%
G01*
G04 APERTURE LIST*
G04 Aperture macros list*
%AMRoundRect*
0 Rectangle with rounded corners*
0 $1 Rounding radius*
0 $2 $3 $4 $5 $6 $7 $8 $9 X,Y pos of 4 corners*
0 Add a 4 corners polygon primitive as box body*
4,1,4,$2,$3,$4,$5,$6,$7,$8,$9,$2,$3,0*
0 Add four circle primitives for the rounded corners*
1,1,$1+$1,$2,$3*
1,1,$1+$1,$4,$5*
1,1,$1+$1,$6,$7*
1,1,$1+$1,$8,$9*
0 Add four rect primitives between the rounded corners*
20,1,$1+$1,$2,$3,$4,$5,0*
20,1,$1+$1,$4,$5,$6,$7,0*
20,1,$1+$1,$6,$7,$8,$9,0*
20,1,$1+$1,$8,$9,$2,$3,0*%
G04 Aperture macros list end*
%TA.AperFunction,SMDPad,CuDef*%
%ADD10RoundRect,0.250000X0.300000X-0.300000X0.300000X0.300000X-0.300000X0.300000X-0.300000X-0.300000X0*%
%TD*%
%TA.AperFunction,SMDPad,CuDef*%
%ADD11RoundRect,0.140000X0.021213X-0.219203X0.219203X-0.021213X-0.021213X0.219203X-0.219203X0.021213X0*%
%TD*%
%TA.AperFunction,SMDPad,CuDef*%
%ADD12RoundRect,0.140000X0.170000X-0.140000X0.170000X0.140000X-0.170000X0.140000X-0.170000X-0.140000X0*%
%TD*%
%TA.AperFunction,SMDPad,CuDef*%
%ADD13RoundRect,0.140000X0.140000X0.170000X-0.140000X0.170000X-0.140000X-0.170000X0.140000X-0.170000X0*%
%TD*%
%TA.AperFunction,SMDPad,CuDef*%
%ADD14RoundRect,0.140000X-0.170000X0.140000X-0.170000X-0.140000X0.170000X-0.140000X0.170000X0.140000X0*%
%TD*%
%TA.AperFunction,SMDPad,CuDef*%
%ADD15RoundRect,0.140000X-0.219203X-0.021213X-0.021213X-0.219203X0.219203X0.021213X0.021213X0.219203X0*%
%TD*%
%TA.AperFunction,SMDPad,CuDef*%
%ADD16RoundRect,0.225000X0.225000X0.250000X-0.225000X0.250000X-0.225000X-0.250000X0.225000X-0.250000X0*%
%TD*%
%TA.AperFunction,SMDPad,CuDef*%
%ADD17RoundRect,0.225000X0.250000X-0.225000X0.250000X0.225000X-0.250000X0.225000X-0.250000X-0.225000X0*%
%TD*%
%TA.AperFunction,SMDPad,CuDef*%
%ADD18RoundRect,0.140000X-0.140000X-0.170000X0.140000X-0.170000X0.140000X0.170000X-0.140000X0.170000X0*%
%TD*%
%TA.AperFunction,SMDPad,CuDef*%
%ADD19RoundRect,0.237500X-0.237500X0.287500X-0.237500X-0.287500X0.237500X-0.287500X0.237500X0.287500X0*%
%TD*%
%TA.AperFunction,SMDPad,CuDef*%
%ADD20RoundRect,0.237500X0.237500X-0.287500X0.237500X0.287500X-0.237500X0.287500X-0.237500X-0.287500X0*%
%TD*%
%TA.AperFunction,HeatsinkPad*%
%ADD21O,1.000000X1.600000*%
%TD*%
%TA.AperFunction,HeatsinkPad*%
%ADD22O,1.000000X2.100000*%
%TD*%
%TA.AperFunction,SMDPad,CuDef*%
%ADD23R,0.600000X1.450000*%
%TD*%
%TA.AperFunction,SMDPad,CuDef*%
%ADD24R,0.300000X1.450000*%
%TD*%
%TA.AperFunction,ComponentPad*%
%ADD25C,1.700000*%
%TD*%
%TA.AperFunction,ComponentPad*%
%ADD26R,1.700000X1.700000*%
%TD*%
%TA.AperFunction,ComponentPad*%
%ADD27C,2.000000*%
%TD*%
%TA.AperFunction,SMDPad,CuDef*%
%ADD28RoundRect,0.135000X0.185000X-0.135000X0.185000X0.135000X-0.185000X0.135000X-0.185000X-0.135000X0*%
%TD*%
%TA.AperFunction,SMDPad,CuDef*%
%ADD29RoundRect,0.135000X-0.185000X0.135000X-0.185000X-0.135000X0.185000X-0.135000X0.185000X0.135000X0*%
%TD*%
%TA.AperFunction,SMDPad,CuDef*%
%ADD30RoundRect,0.135000X0.226274X0.035355X0.035355X0.226274X-0.226274X-0.035355X-0.035355X-0.226274X0*%
%TD*%
%TA.AperFunction,SMDPad,CuDef*%
%ADD31RoundRect,0.135000X0.135000X0.185000X-0.135000X0.185000X-0.135000X-0.185000X0.135000X-0.185000X0*%
%TD*%
%TA.AperFunction,SMDPad,CuDef*%
%ADD32RoundRect,0.135000X-0.135000X-0.185000X0.135000X-0.185000X0.135000X0.185000X-0.135000X0.185000X0*%
%TD*%
%TA.AperFunction,SMDPad,CuDef*%
%ADD33R,1.230000X1.860000*%
%TD*%
%TA.AperFunction,HeatsinkPad*%
%ADD34R,3.200000X3.200000*%
%TD*%
%TA.AperFunction,SMDPad,CuDef*%
%ADD35RoundRect,0.050000X-0.050000X-0.387500X0.050000X-0.387500X0.050000X0.387500X-0.050000X0.387500X0*%
%TD*%
%TA.AperFunction,SMDPad,CuDef*%
%ADD36RoundRect,0.050000X-0.387500X-0.050000X0.387500X-0.050000X0.387500X0.050000X-0.387500X0.050000X0*%
%TD*%
%TA.AperFunction,SMDPad,CuDef*%
%ADD37RoundRect,0.150000X-0.587500X-0.150000X0.587500X-0.150000X0.587500X0.150000X-0.587500X0.150000X0*%
%TD*%
%TA.AperFunction,SMDPad,CuDef*%
%ADD38R,4.700000X4.700000*%
%TD*%
%TA.AperFunction,SMDPad,CuDef*%
%ADD39O,0.850000X0.360000*%
%TD*%
%TA.AperFunction,SMDPad,CuDef*%
%ADD40O,0.360000X0.850000*%
%TD*%
%TA.AperFunction,ComponentPad*%
%ADD41C,0.610000*%
%TD*%
%TA.AperFunction,SMDPad,CuDef*%
%ADD42RoundRect,0.250000X0.450000X0.350000X-0.450000X0.350000X-0.450000X-0.350000X0.450000X-0.350000X0*%
%TD*%
%TA.AperFunction,SMDPad,CuDef*%
%ADD43RoundRect,0.250000X0.350000X-0.450000X0.350000X0.450000X-0.350000X0.450000X-0.350000X-0.450000X0*%
%TD*%
%TA.AperFunction,SMDPad,CuDef*%
%ADD44R,1.000000X1.000000*%
%TD*%
%TA.AperFunction,HeatsinkPad*%
%ADD45R,0.200000X1.600000*%
%TD*%
%TA.AperFunction,SMDPad,CuDef*%
%ADD46RoundRect,0.062500X-0.387500X-0.062500X0.387500X-0.062500X0.387500X0.062500X-0.387500X0.062500X0*%
%TD*%
%TA.AperFunction,ViaPad*%
%ADD47C,0.300000*%
%TD*%
%TA.AperFunction,ViaPad*%
%ADD48C,0.600000*%
%TD*%
%TA.AperFunction,Conductor*%
%ADD49C,0.200000*%
%TD*%
G04 APERTURE END LIST*
D10*
%TO.P,D4,1,K*%
%TO.N,+5V*%
X159175892Y-82899731D03*
%TO.P,D4,2,A*%
%TO.N,VSYS*%
X159175892Y-80099731D03*
%TD*%
D11*
%TO.P,C1,2*%
%TO.N,GND*%
X157686273Y-90369803D03*
%TO.P,C1,1*%
%TO.N,+3V3*%
X157007451Y-91048625D03*
%TD*%
%TO.P,C2,2*%
%TO.N,GND*%
X158399734Y-91083264D03*
%TO.P,C2,1*%
%TO.N,+3V3*%
X157720912Y-91762086D03*
%TD*%
%TO.P,C3,2*%
%TO.N,GND*%
X159131000Y-91821000D03*
%TO.P,C3,1*%
%TO.N,+3V3*%
X158452178Y-92499822D03*
%TD*%
D12*
%TO.P,C4,2*%
%TO.N,GND*%
X152230000Y-85400000D03*
%TO.P,C4,1*%
%TO.N,+3V3*%
X152230000Y-86360000D03*
%TD*%
%TO.P,C5,2*%
%TO.N,GND*%
X151130000Y-85400000D03*
%TO.P,C5,1*%
%TO.N,+3V3*%
X151130000Y-86360000D03*
%TD*%
%TO.P,C6,2*%
%TO.N,GND*%
X148011347Y-91063449D03*
%TO.P,C6,1*%
%TO.N,+3V3*%
X148011347Y-92023449D03*
%TD*%
D13*
%TO.P,C7,2*%
%TO.N,GND*%
X146738400Y-96644435D03*
%TO.P,C7,1*%
%TO.N,+3V3*%
X147698400Y-96644435D03*
%TD*%
D14*
%TO.P,C8,2*%
%TO.N,GND*%
X154305000Y-105001000D03*
%TO.P,C8,1*%
%TO.N,+3V3*%
X154305000Y-104041000D03*
%TD*%
D15*
%TO.P,C9,2*%
%TO.N,GND*%
X159851411Y-98129411D03*
%TO.P,C9,1*%
%TO.N,+3V3*%
X159172589Y-97450589D03*
%TD*%
D12*
%TO.P,C11,2*%
%TO.N,GND*%
X153175000Y-87507240D03*
%TO.P,C11,1*%
%TO.N,+1V1*%
X153175000Y-88467240D03*
%TD*%
D15*
%TO.P,C12,2*%
%TO.N,GND*%
X155660411Y-103717411D03*
%TO.P,C12,1*%
%TO.N,+1V1*%
X154981589Y-103038589D03*
%TD*%
D16*
%TO.P,C13,2*%
%TO.N,GND*%
X150596000Y-80391000D03*
%TO.P,C13,1*%
%TO.N,+5V*%
X152146000Y-80391000D03*
%TD*%
D17*
%TO.P,C14,2*%
%TO.N,GND*%
X148971000Y-82283000D03*
%TO.P,C14,1*%
%TO.N,+3V3*%
X148971000Y-83833000D03*
%TD*%
D14*
%TO.P,C15,2*%
%TO.N,XIN*%
X147701464Y-103499097D03*
%TO.P,C15,1*%
%TO.N,GND*%
X147701464Y-102539097D03*
%TD*%
D12*
%TO.P,C16,2*%
%TO.N,Net-(C16-Pad2)*%
X153301464Y-102539097D03*
%TO.P,C16,1*%
%TO.N,GND*%
X153301464Y-103499097D03*
%TD*%
D18*
%TO.P,C17,2*%
%TO.N,+3V3*%
X150086000Y-86614000D03*
%TO.P,C17,1*%
%TO.N,GND*%
X149126000Y-86614000D03*
%TD*%
D12*
%TO.P,C18,2*%
%TO.N,GND*%
X155600400Y-106634400D03*
%TO.P,C18,1*%
%TO.N,OSC1*%
X155600400Y-107594400D03*
%TD*%
D13*
%TO.P,C19,2*%
%TO.N,GND*%
X154615000Y-112911625D03*
%TO.P,C19,1*%
%TO.N,OSC2*%
X155575000Y-112911625D03*
%TD*%
D12*
%TO.P,C20,2*%
%TO.N,GND*%
X147789107Y-104447854D03*
%TO.P,C20,1*%
%TO.N,+3V3*%
X147789107Y-105407854D03*
%TD*%
D14*
%TO.P,C21,2*%
%TO.N,GND*%
X147447000Y-114681000D03*
%TO.P,C21,1*%
%TO.N,+3V3*%
X147447000Y-113721000D03*
%TD*%
%TO.P,C22,2*%
%TO.N,GND*%
X147447000Y-116784000D03*
%TO.P,C22,1*%
%TO.N,+5V*%
X147447000Y-115824000D03*
%TD*%
D19*
%TO.P,D1,2,A*%
%TO.N,Net-(D1-A)*%
X147391019Y-81702515D03*
%TO.P,D1,1,K*%
%TO.N,GND*%
X147391019Y-79952515D03*
%TD*%
D20*
%TO.P,D2,2,A*%
%TO.N,Net-(D2-A)*%
X157480000Y-114568000D03*
%TO.P,D2,1,K*%
%TO.N,GND*%
X157480000Y-116318000D03*
%TD*%
D10*
%TO.P,D3,2,A*%
%TO.N,VBUS*%
X156725892Y-80099731D03*
%TO.P,D3,1,K*%
%TO.N,+5V*%
X156725892Y-82899731D03*
%TD*%
D21*
%TO.P,J1,S1,SHIELD*%
%TO.N,GND*%
X149055000Y-72637500D03*
D22*
X149055000Y-76817500D03*
D21*
X157695000Y-72637500D03*
D22*
X157695000Y-76817500D03*
D23*
%TO.P,J1,B12,GND*%
X156625000Y-77732500D03*
%TO.P,J1,B9,VBUS*%
%TO.N,VBUS*%
X155825000Y-77732500D03*
D24*
%TO.P,J1,B8*%
%TO.N,N/C*%
X155125000Y-77732500D03*
%TO.P,J1,B7,D-*%
%TO.N,USB_D-*%
X154125000Y-77732500D03*
%TO.P,J1,B6,D+*%
%TO.N,USB_D+*%
X152625000Y-77732500D03*
%TO.P,J1,B5,CC2*%
%TO.N,Net-(J1-CC2)*%
X151625000Y-77732500D03*
D23*
%TO.P,J1,B4,VBUS*%
%TO.N,VBUS*%
X150925000Y-77732500D03*
%TO.P,J1,B1,GND*%
%TO.N,GND*%
X150125000Y-77732500D03*
%TO.P,J1,A12,GND*%
X150125000Y-77732500D03*
%TO.P,J1,A9,VBUS*%
%TO.N,VBUS*%
X150925000Y-77732500D03*
D24*
%TO.P,J1,A8*%
%TO.N,N/C*%
X152125000Y-77732500D03*
%TO.P,J1,A7,D-*%
%TO.N,USB_D-*%
X153125000Y-77732500D03*
%TO.P,J1,A6,D+*%
%TO.N,USB_D+*%
X153625000Y-77732500D03*
%TO.P,J1,A5,CC1*%
%TO.N,Net-(J1-CC1)*%
X154625000Y-77732500D03*
D23*
%TO.P,J1,A4,VBUS*%
%TO.N,VBUS*%
X155825000Y-77732500D03*
%TO.P,J1,A1,GND*%
%TO.N,GND*%
X156625000Y-77732500D03*
%TD*%
D25*
%TO.P,J2,20,Pin_20*%
%TO.N,GPIO15*%
X144485000Y-121067500D03*
%TO.P,J2,19,Pin_19*%
%TO.N,GPIO14*%
X144485000Y-118527500D03*
%TO.P,J2,18,Pin_18*%
%TO.N,GND*%
X144485000Y-115987500D03*
%TO.P,J2,17,Pin_17*%
%TO.N,GPIO13*%
X144485000Y-113447500D03*
%TO.P,J2,16,Pin_16*%
%TO.N,GPIO12*%
X144485000Y-110907500D03*
%TO.P,J2,15,Pin_15*%
%TO.N,GPIO11*%
X144485000Y-108367500D03*
%TO.P,J2,14,Pin_14*%
%TO.N,GPIO10*%
X144485000Y-105827500D03*
%TO.P,J2,13,Pin_13*%
%TO.N,GND*%
X144485000Y-103287500D03*
%TO.P,J2,12,Pin_12*%
%TO.N,GPIO9*%
X144485000Y-100747500D03*
%TO.P,J2,11,Pin_11*%
%TO.N,GPIO8*%
X144485000Y-98207500D03*
%TO.P,J2,10,Pin_10*%
%TO.N,GPIO7*%
X144485000Y-95667500D03*
%TO.P,J2,9,Pin_9*%
%TO.N,GPIO6*%
X144485000Y-93127500D03*
%TO.P,J2,8,Pin_8*%
%TO.N,GND*%
X144485000Y-90587500D03*
%TO.P,J2,7,Pin_7*%
%TO.N,GPIO5*%
X144485000Y-88047500D03*
%TO.P,J2,6,Pin_6*%
%TO.N,GPIO4*%
X144485000Y-85507500D03*
%TO.P,J2,5,Pin_5*%
%TO.N,GPIO3*%
X144485000Y-82967500D03*
%TO.P,J2,4,Pin_4*%
%TO.N,GPIO2*%
X144485000Y-80427500D03*
%TO.P,J2,3,Pin_3*%
%TO.N,GND*%
X144485000Y-77887500D03*
%TO.P,J2,2,Pin_2*%
%TO.N,GPIO1*%
X144485000Y-75347500D03*
D26*
%TO.P,J2,1,Pin_1*%
%TO.N,GPIO0*%
X144485000Y-72807500D03*
%TD*%
D25*
%TO.P,J3,20,Pin_20*%
%TO.N,GPIO16*%
X162265000Y-121067500D03*
%TO.P,J3,19,Pin_19*%
%TO.N,GPIO17*%
X162265000Y-118527500D03*
%TO.P,J3,18,Pin_18*%
%TO.N,GND*%
X162265000Y-115987500D03*
%TO.P,J3,17,Pin_17*%
%TO.N,GPIO18*%
X162265000Y-113447500D03*
%TO.P,J3,16,Pin_16*%
%TO.N,GPIO19*%
X162265000Y-110907500D03*
%TO.P,J3,15,Pin_15*%
%TO.N,GPIO20*%
X162265000Y-108367500D03*
%TO.P,J3,14,Pin_14*%
%TO.N,GPIO21*%
X162265000Y-105827500D03*
%TO.P,J3,13,Pin_13*%
%TO.N,INT*%
X162265000Y-103287500D03*
%TO.P,J3,12,Pin_12*%
%TO.N,RUN*%
X162265000Y-100747500D03*
%TO.P,J3,11,Pin_11*%
%TO.N,GPIO22*%
X162265000Y-98207500D03*
%TO.P,J3,10,Pin_10*%
%TO.N,GPIO26_ADC0*%
X162265000Y-95667500D03*
%TO.P,J3,9,Pin_9*%
%TO.N,GPIO27_ADC1*%
X162265000Y-93127500D03*
%TO.P,J3,8,Pin_8*%
%TO.N,GPIO28_ADC2*%
X162265000Y-90587500D03*
%TO.P,J3,7,Pin_7*%
%TO.N,GPIO29_ADC3*%
X162265000Y-88047500D03*
%TO.P,J3,6,Pin_6*%
%TO.N,STBY*%
X162265000Y-85507500D03*
%TO.P,J3,5,Pin_5*%
%TO.N,+3V3*%
X162265000Y-82967500D03*
%TO.P,J3,4,Pin_4*%
%TO.N,GPIO24*%
X162265000Y-80427500D03*
%TO.P,J3,3,Pin_3*%
%TO.N,GND*%
X162265000Y-77887500D03*
%TO.P,J3,2,Pin_2*%
%TO.N,VSYS*%
X162265000Y-75347500D03*
%TO.P,J3,1,Pin_1*%
%TO.N,VBUS*%
X162265000Y-72807500D03*
%TD*%
%TO.P,J4,2,Pin_2*%
%TO.N,SWD*%
X158623000Y-102489000D03*
D26*
%TO.P,J4,1,Pin_1*%
%TO.N,SWCLK*%
X158623000Y-105029000D03*
%TD*%
D27*
%TO.P,J5,3,Pin_3*%
%TO.N,CANH*%
X156875000Y-121051250D03*
%TO.P,J5,2,Pin_2*%
%TO.N,GND*%
X153375000Y-121051250D03*
%TO.P,J5,1,Pin_1*%
%TO.N,CANL*%
X149875000Y-121051250D03*
%TD*%
D25*
%TO.P,J7,2,Pin_2*%
%TO.N,CANL*%
X149878513Y-115490625D03*
D26*
%TO.P,J7,1,Pin_1*%
%TO.N,Net-(J7-Pin_1)*%
X152418513Y-115490625D03*
%TD*%
D28*
%TO.P,R1,2*%
%TO.N,GND*%
X159652567Y-73662500D03*
%TO.P,R1,1*%
%TO.N,Net-(J1-CC1)*%
X159652567Y-74682500D03*
%TD*%
%TO.P,R2,1*%
%TO.N,Net-(J1-CC2)*%
X147149810Y-74682500D03*
%TO.P,R2,2*%
%TO.N,GND*%
X147149810Y-73662500D03*
%TD*%
D29*
%TO.P,R3,1*%
%TO.N,USB_D+*%
X154030743Y-89865275D03*
%TO.P,R3,2*%
%TO.N,Net-(U1-USB_DP)*%
X154030743Y-90885275D03*
%TD*%
%TO.P,R4,1*%
%TO.N,USB_D-*%
X155130743Y-89865275D03*
%TO.P,R4,2*%
%TO.N,Net-(U1-USB_DM)*%
X155130743Y-90885275D03*
%TD*%
D30*
%TO.P,R5,1*%
%TO.N,Net-(C16-Pad2)*%
X153522624Y-101452624D03*
%TO.P,R5,2*%
%TO.N,XOUT*%
X152801376Y-100731376D03*
%TD*%
D31*
%TO.P,R6,1*%
%TO.N,Net-(R6-Pad1)*%
X149712000Y-85090000D03*
%TO.P,R6,2*%
%TO.N,QSPI_SS*%
X148692000Y-85090000D03*
%TD*%
D32*
%TO.P,R7,1*%
%TO.N,+3V3*%
X148968860Y-91077298D03*
%TO.P,R7,2*%
%TO.N,QSPI_SS*%
X149988860Y-91077298D03*
%TD*%
D29*
%TO.P,R8,1*%
%TO.N,GPIO24*%
X148971000Y-79777000D03*
%TO.P,R8,2*%
%TO.N,Net-(D1-A)*%
X148971000Y-80797000D03*
%TD*%
D32*
%TO.P,R9,1*%
%TO.N,GPIO25*%
X156739000Y-113030000D03*
%TO.P,R9,2*%
%TO.N,Net-(D2-A)*%
X157759000Y-113030000D03*
%TD*%
%TO.P,R10,1*%
%TO.N,Net-(J7-Pin_1)*%
X154937101Y-116667107D03*
%TO.P,R10,2*%
%TO.N,CANH*%
X155957101Y-116667107D03*
%TD*%
D31*
%TO.P,R11,1*%
%TO.N,Net-(U4-~{RESET})*%
X150374294Y-105343499D03*
%TO.P,R11,2*%
%TO.N,+3V3*%
X149354294Y-105343499D03*
%TD*%
D32*
%TO.P,R12,1*%
%TO.N,STBY*%
X154938000Y-114681000D03*
%TO.P,R12,2*%
%TO.N,GND*%
X155958000Y-114681000D03*
%TD*%
D33*
%TO.P,SW1,2,2*%
%TO.N,Net-(R6-Pad1)*%
X155046000Y-86233000D03*
%TO.P,SW1,1,1*%
%TO.N,GND*%
X159406000Y-86233000D03*
%TD*%
D34*
%TO.P,U1,57,GND*%
%TO.N,GND*%
X153375000Y-95650000D03*
D35*
%TO.P,U1,56,QSPI_SS*%
%TO.N,QSPI_SS*%
X150775000Y-92212500D03*
%TO.P,U1,55,QSPI_SD1*%
%TO.N,QSPI_SD1*%
X151175000Y-92212500D03*
%TO.P,U1,54,QSPI_SD2*%
%TO.N,QSPI_SD2*%
X151575000Y-92212500D03*
%TO.P,U1,53,QSPI_SD0*%
%TO.N,QSPI_SD0*%
X151975000Y-92212500D03*
%TO.P,U1,52,QSPI_SCLK*%
%TO.N,QSPI_SCLK*%
X152375000Y-92212500D03*
%TO.P,U1,51,QSPI_SD3*%
%TO.N,QSPI_SD3*%
X152775000Y-92212500D03*
%TO.P,U1,50,DVDD*%
%TO.N,+1V1*%
X153175000Y-92212500D03*
%TO.P,U1,49,IOVDD*%
%TO.N,+3V3*%
X153575000Y-92212500D03*
%TO.P,U1,48,USB_VDD*%
X153975000Y-92212500D03*
%TO.P,U1,47,USB_DP*%
%TO.N,Net-(U1-USB_DP)*%
X154375000Y-92212500D03*
%TO.P,U1,46,USB_DM*%
%TO.N,Net-(U1-USB_DM)*%
X154775000Y-92212500D03*
%TO.P,U1,45,VREG_VOUT*%
%TO.N,+1V1*%
X155175000Y-92212500D03*
%TO.P,U1,44,VREG_IN*%
%TO.N,+3V3*%
X155575000Y-92212500D03*
%TO.P,U1,43,ADC_AVDD*%
X155975000Y-92212500D03*
D36*
%TO.P,U1,42,IOVDD*%
X156812500Y-93050000D03*
%TO.P,U1,41,GPIO29_ADC3*%
%TO.N,GPIO29_ADC3*%
X156812500Y-93450000D03*
%TO.P,U1,40,GPIO28_ADC2*%
%TO.N,GPIO28_ADC2*%
X156812500Y-93850000D03*
%TO.P,U1,39,GPIO27_ADC1*%
%TO.N,GPIO27_ADC1*%
X156812500Y-94250000D03*
%TO.P,U1,38,GPIO26_ADC0*%
%TO.N,GPIO26_ADC0*%
X156812500Y-94650000D03*
%TO.P,U1,37,GPIO25*%
%TO.N,GPIO25*%
X156812500Y-95050000D03*
%TO.P,U1,36,GPIO24*%
%TO.N,GPIO24*%
X156812500Y-95450000D03*
%TO.P,U1,35,GPIO23*%
%TO.N,GPIO23*%
X156812500Y-95850000D03*
%TO.P,U1,34,GPIO22*%
%TO.N,GPIO22*%
X156812500Y-96250000D03*
%TO.P,U1,33,IOVDD*%
%TO.N,+3V3*%
X156812500Y-96650000D03*
%TO.P,U1,32,GPIO21*%
%TO.N,GPIO21*%
X156812500Y-97050000D03*
%TO.P,U1,31,GPIO20*%
%TO.N,GPIO20*%
X156812500Y-97450000D03*
%TO.P,U1,30,GPIO19*%
%TO.N,GPIO19*%
X156812500Y-97850000D03*
%TO.P,U1,29,GPIO18*%
%TO.N,GPIO18*%
X156812500Y-98250000D03*
D35*
%TO.P,U1,28,GPIO17*%
%TO.N,GPIO17*%
X155975000Y-99087500D03*
%TO.P,U1,27,GPIO16*%
%TO.N,GPIO16*%
X155575000Y-99087500D03*
%TO.P,U1,26,RUN*%
%TO.N,RUN*%
X155175000Y-99087500D03*
%TO.P,U1,25,SWD*%
%TO.N,SWD*%
X154775000Y-99087500D03*
%TO.P,U1,24,SWCLK*%
%TO.N,SWCLK*%
X154375000Y-99087500D03*
%TO.P,U1,23,DVDD*%
%TO.N,+1V1*%
X153975000Y-99087500D03*
%TO.P,U1,22,IOVDD*%
%TO.N,+3V3*%
X153575000Y-99087500D03*
%TO.P,U1,21,XOUT*%
%TO.N,XOUT*%
X153175000Y-99087500D03*
%TO.P,U1,20,XIN*%
%TO.N,XIN*%
X152775000Y-99087500D03*
%TO.P,U1,19,TESTEN*%
%TO.N,GND*%
X152375000Y-99087500D03*
%TO.P,U1,18,GPIO15*%
%TO.N,GPIO15*%
X151975000Y-99087500D03*
%TO.P,U1,17,GPIO14*%
%TO.N,GPIO14*%
X151575000Y-99087500D03*
%TO.P,U1,16,GPIO13*%
%TO.N,GPIO13*%
X151175000Y-99087500D03*
%TO.P,U1,15,GPIO12*%
%TO.N,GPIO12*%
X150775000Y-99087500D03*
D36*
%TO.P,U1,14,GPIO11*%
%TO.N,GPIO11*%
X149937500Y-98250000D03*
%TO.P,U1,13,GPIO10*%
%TO.N,GPIO10*%
X149937500Y-97850000D03*
%TO.P,U1,12,GPIO9*%
%TO.N,GPIO9*%
X149937500Y-97450000D03*
%TO.P,U1,11,GPIO8*%
%TO.N,GPIO8*%
X149937500Y-97050000D03*
%TO.P,U1,10,IOVDD*%
%TO.N,+3V3*%
X149937500Y-96650000D03*
%TO.P,U1,9,GPIO7*%
%TO.N,GPIO7*%
X149937500Y-96250000D03*
%TO.P,U1,8,GPIO6*%
%TO.N,GPIO6*%
X149937500Y-95850000D03*
%TO.P,U1,7,GPIO5*%
%TO.N,GPIO5*%
X149937500Y-95450000D03*
%TO.P,U1,6,GPIO4*%
%TO.N,GPIO4*%
X149937500Y-95050000D03*
%TO.P,U1,5,GPIO3*%
%TO.N,GPIO3*%
X149937500Y-94650000D03*
%TO.P,U1,4,GPIO2*%
%TO.N,GPIO2*%
X149937500Y-94250000D03*
%TO.P,U1,3,GPIO1*%
%TO.N,GPIO1*%
X149937500Y-93850000D03*
%TO.P,U1,2,GPIO0*%
%TO.N,GPIO0*%
X149937500Y-93450000D03*
%TO.P,U1,1,IOVDD*%
%TO.N,+3V3*%
X149937500Y-93050000D03*
%TD*%
D37*
%TO.P,U2,3,VI*%
%TO.N,+5V*%
X152736315Y-83030932D03*
%TO.P,U2,2,VO*%
%TO.N,+3V3*%
X150861315Y-83980932D03*
%TO.P,U2,1,GND*%
%TO.N,GND*%
X150861315Y-82080932D03*
%TD*%
D38*
%TO.P,U4,29*%
%TO.N,GND*%
X150528513Y-109601000D03*
D39*
%TO.P,U4,28,RXD*%
%TO.N,Net-(U4-RXD)*%
X147528513Y-111551000D03*
%TO.P,U4,27,VDDA*%
%TO.N,+5V*%
X147528513Y-110901000D03*
%TO.P,U4,26,VSS*%
%TO.N,GND*%
X147528513Y-110251000D03*
%TO.P,U4,25,NC*%
%TO.N,unconnected-(U4-NC-Pad25)*%
X147528513Y-109601000D03*
%TO.P,U4,24,TXD*%
%TO.N,Net-(U4-TXD)*%
X147528513Y-108951000D03*
%TO.P,U4,23,~{Tx0RTS}*%
%TO.N,unconnected-(U4-~{Tx0RTS}-Pad23)*%
X147528513Y-108301000D03*
%TO.P,U4,22,CLKOUT*%
%TO.N,unconnected-(U4-CLKOUT-Pad22)*%
X147528513Y-107651000D03*
D40*
%TO.P,U4,21,RxCAN*%
%TO.N,Net-(U4-RXD)*%
X148578513Y-106601000D03*
%TO.P,U4,20,TxCAN*%
%TO.N,Net-(U4-TXD)*%
X149228513Y-106601000D03*
%TO.P,U4,19,VDD*%
%TO.N,+3V3*%
X149878513Y-106601000D03*
%TO.P,U4,18,~{RESET}*%
%TO.N,Net-(U4-~{RESET})*%
X150528513Y-106601000D03*
%TO.P,U4,17,~{CS}*%
%TO.N,GPIO23*%
X151178513Y-106601000D03*
%TO.P,U4,16,SO*%
%TO.N,GPIO0*%
X151828513Y-106601000D03*
%TO.P,U4,15,SI*%
%TO.N,GPIO3*%
X152478513Y-106601000D03*
D39*
%TO.P,U4,14,SCK*%
%TO.N,GPIO2*%
X153528513Y-107651000D03*
%TO.P,U4,13,~{INT}*%
%TO.N,INT*%
X153528513Y-108301000D03*
%TO.P,U4,12,~{Rx0BF}*%
%TO.N,unconnected-(U4-~{Rx0BF}-Pad12)*%
X153528513Y-108951000D03*
%TO.P,U4,11,~{Rx1BF}*%
%TO.N,unconnected-(U4-~{Rx1BF}-Pad11)*%
X153528513Y-109601000D03*
%TO.P,U4,10,GND*%
%TO.N,GND*%
X153528513Y-110251000D03*
%TO.P,U4,9,OSC1*%
%TO.N,OSC1*%
X153528513Y-110901000D03*
%TO.P,U4,8,OSC2*%
%TO.N,OSC2*%
X153528513Y-111551000D03*
D40*
%TO.P,U4,7,~{Tx2RTS}*%
%TO.N,unconnected-(U4-~{Tx2RTS}-Pad7)*%
X152478513Y-112601000D03*
%TO.P,U4,6,~{Tx1RTS}*%
%TO.N,unconnected-(U4-~{Tx1RTS}-Pad6)*%
X151828513Y-112601000D03*
%TO.P,U4,5,STBY*%
%TO.N,STBY*%
X151178513Y-112601000D03*
%TO.P,U4,4,CANH*%
%TO.N,CANH*%
X150528513Y-112601000D03*
%TO.P,U4,3,CANL*%
%TO.N,CANL*%
X149878513Y-112601000D03*
%TO.P,U4,2,NC*%
%TO.N,unconnected-(U4-NC-Pad2)*%
X149228513Y-112601000D03*
%TO.P,U4,1,VIO*%
%TO.N,+3V3*%
X148578513Y-112601000D03*
D41*
%TO.P,U4,*%
%TO.N,GND*%
X151128513Y-110201000D03*
X151128513Y-109001000D03*
X149928513Y-110201000D03*
X149928513Y-109001000D03*
%TD*%
D42*
%TO.P,Y1,4,4*%
%TO.N,GND*%
X151601464Y-103869097D03*
%TO.P,Y1,3,3*%
%TO.N,XIN*%
X149401464Y-103869097D03*
%TO.P,Y1,2,2*%
%TO.N,GND*%
X149401464Y-102169097D03*
%TO.P,Y1,1,1*%
%TO.N,Net-(C16-Pad2)*%
X151601464Y-102169097D03*
%TD*%
D43*
%TO.P,Y2,4,4*%
%TO.N,GND*%
X155205000Y-111289631D03*
%TO.P,Y2,3,3*%
%TO.N,OSC1*%
X155205000Y-109089631D03*
%TO.P,Y2,2,2*%
%TO.N,GND*%
X156905000Y-109089631D03*
%TO.P,Y2,1,1*%
%TO.N,OSC2*%
X156905000Y-111289631D03*
%TD*%
D11*
%TO.P,C10,2*%
%TO.N,GND*%
X157184411Y-89068589D03*
%TO.P,C10,1*%
%TO.N,+1V1*%
X156505589Y-89747411D03*
%TD*%
D44*
%TO.P,5V,1,1*%
%TO.N,+5V*%
X147250914Y-119209758D03*
%TD*%
D45*
%TO.P,U3,9*%
%TO.N,N/C*%
X149733000Y-88501438D03*
D46*
%TO.P,U3,8,VCC*%
%TO.N,+3V3*%
X151158000Y-87751438D03*
%TO.P,U3,7,~{HOLD}/~{RESET}/IO_{3}*%
%TO.N,QSPI_SD3*%
X151158000Y-88251438D03*
%TO.P,U3,6,CLK*%
%TO.N,QSPI_SCLK*%
X151158000Y-88751438D03*
%TO.P,U3,5,DI/IO_{0}*%
%TO.N,QSPI_SD0*%
X151158000Y-89251438D03*
%TO.P,U3,4,GND*%
%TO.N,GND*%
X148308000Y-89251438D03*
%TO.P,U3,3,~{WP}/IO_{2}*%
%TO.N,QSPI_SD2*%
X148308000Y-88751438D03*
%TO.P,U3,2,DO/IO_{1}*%
%TO.N,QSPI_SD1*%
X148308000Y-88251438D03*
%TO.P,U3,1,~{CS}*%
%TO.N,QSPI_SS*%
X148308000Y-87751438D03*
%TD*%
D47*
%TO.N,+3V3*%
X153961464Y-103251000D03*
D48*
X148590000Y-113538000D03*
D47*
X148590000Y-105407854D03*
X148294367Y-96804582D03*
D48*
X148990349Y-92205605D03*
X153775000Y-91692567D03*
X157226000Y-84328000D03*
D47*
X159004699Y-96901699D03*
D48*
X154305000Y-84328000D03*
X152273000Y-87751438D03*
%TO.N,GND*%
X154680835Y-97581635D03*
X156565600Y-107137200D03*
X145948400Y-114524100D03*
D47*
X147116800Y-90474800D03*
D48*
X147370800Y-77063600D03*
X159207200Y-88595200D03*
X145796000Y-96647000D03*
X157429200Y-88188800D03*
X151841200Y-105257600D03*
X155600400Y-94234000D03*
X152447173Y-93702413D03*
X151688800Y-118922800D03*
X157734000Y-117602000D03*
X155883338Y-104546400D03*
X148640800Y-119075200D03*
X155448000Y-96418400D03*
X154736800Y-118973600D03*
X148061032Y-101690167D03*
X151130000Y-117094000D03*
X155041600Y-93319600D03*
X151431313Y-93310934D03*
X160571265Y-98849265D03*
X156972000Y-75336400D03*
X151130000Y-97942400D03*
X151130000Y-97078800D03*
X147650200Y-83032600D03*
X153270862Y-85447590D03*
X159004000Y-120142000D03*
%TO.N,+5V*%
X155067000Y-81407000D03*
X153018500Y-79358500D03*
X147250914Y-117821457D03*
%TO.N,VBUS*%
X150925000Y-78916000D03*
%TO.N,GPIO13*%
X148209000Y-99695000D03*
D47*
%TO.N,GPIO3*%
X147700301Y-93980699D03*
X152464882Y-104960000D03*
%TO.N,GPIO2*%
X148590000Y-93960158D03*
X153161301Y-104774301D03*
%TO.N,GPIO1*%
X148491597Y-93287000D03*
%TO.N,GPIO0*%
X146921000Y-91144889D03*
X152302000Y-105820000D03*
D48*
X147320000Y-84531200D03*
%TO.N,GPIO14*%
X147572818Y-100295000D03*
%TO.N,GPIO15*%
X147314974Y-101401374D03*
D47*
%TO.N,STBY*%
X158648400Y-100483798D03*
D48*
X158292800Y-118770400D03*
X159673450Y-109270800D03*
%TO.N,RUN*%
X156372000Y-100694628D03*
D47*
X160477899Y-99770501D03*
%TO.N,INT*%
X155732338Y-105562400D03*
%TO.N,GPIO24*%
X160267462Y-94495936D03*
D48*
X149733000Y-79248000D03*
%TO.N,SWD*%
X155882338Y-101800662D03*
%TO.N,SWCLK*%
X155883338Y-102798726D03*
D47*
%TO.N,QSPI_SS*%
X149443860Y-91739954D03*
D48*
X148308000Y-86258400D03*
D47*
%TO.N,GPIO25*%
X159651243Y-95162219D03*
D48*
X155554765Y-113771765D03*
D47*
%TO.N,GPIO23*%
X158623706Y-96009896D03*
D48*
X151178513Y-105791000D03*
D47*
%TO.N,+1V1*%
X156251906Y-88941906D03*
D48*
X154305000Y-88519000D03*
D47*
X154431338Y-102235000D03*
D48*
%TO.N,Net-(U4-RXD)*%
X147447000Y-112649000D03*
X147701000Y-106807000D03*
%TD*%
D49*
%TO.N,+1V1*%
X154431338Y-102235000D02*
X154431338Y-102006273D01*
X154431338Y-102006273D02*
X154635200Y-101802411D01*
X153975000Y-100448900D02*
X153975000Y-99087500D01*
X154635200Y-101802411D02*
X154635200Y-101109100D01*
X154635200Y-101109100D02*
X153975000Y-100448900D01*
%TO.N,+3V3*%
X153961464Y-103251000D02*
X153961464Y-101819886D01*
X153961464Y-101819886D02*
X154228800Y-101552550D01*
X154228800Y-101552550D02*
X154228800Y-101280572D01*
X154228800Y-101280572D02*
X153575000Y-100626772D01*
X153575000Y-100626772D02*
X153575000Y-99087500D01*
X148134220Y-96644435D02*
X147698400Y-96644435D01*
X158452178Y-92493352D02*
X157720912Y-91762086D01*
X155829000Y-92964000D02*
X156019500Y-92964000D01*
X153575000Y-92212500D02*
X153575000Y-91892567D01*
X157991000Y-96650000D02*
X156812500Y-96650000D01*
X149118932Y-83980932D02*
X148971000Y-83833000D01*
X158985398Y-96921000D02*
X158262000Y-96921000D01*
X157226000Y-84328000D02*
X160904500Y-84328000D01*
X158262000Y-96921000D02*
X157991000Y-96650000D01*
X159172589Y-97069589D02*
X159004699Y-96901699D01*
X157007451Y-91048625D02*
X157720912Y-91762086D01*
X149379294Y-105343499D02*
X149379294Y-105347370D01*
X152687932Y-83980932D02*
X150861315Y-83980932D01*
X158038800Y-85140800D02*
X158038800Y-89078286D01*
X150086000Y-86614000D02*
X150086000Y-86679438D01*
X154305000Y-84328000D02*
X153035000Y-84328000D01*
X148990349Y-92205605D02*
X148808193Y-92023449D01*
X157902000Y-93050000D02*
X158452178Y-92499822D01*
X156908500Y-92075000D02*
X157407998Y-92075000D01*
X153961464Y-103697464D02*
X154305000Y-104041000D01*
X153975000Y-92212500D02*
X153975000Y-91892567D01*
X148590000Y-105407854D02*
X149314939Y-105407854D01*
X153975000Y-91892567D02*
X153775000Y-91692567D01*
X149834744Y-93050000D02*
X148990349Y-92205605D01*
X151130000Y-86360000D02*
X151130000Y-86608438D01*
X149878513Y-105846589D02*
X149878513Y-106601000D01*
X151130000Y-86608438D02*
X152273000Y-87751438D01*
X155575000Y-92710000D02*
X155829000Y-92964000D01*
X149379294Y-105347370D02*
X149878513Y-105846589D01*
X156812500Y-93050000D02*
X157902000Y-93050000D01*
X155575000Y-92212500D02*
X155575000Y-92710000D01*
X160904500Y-84328000D02*
X162265000Y-82967500D01*
X153575000Y-91892567D02*
X153775000Y-91692567D01*
X149937500Y-93050000D02*
X149834744Y-93050000D01*
X152273000Y-87751438D02*
X151158000Y-87751438D01*
X156019500Y-92964000D02*
X156908500Y-92075000D01*
X153961464Y-103251000D02*
X153961464Y-103697464D01*
X149314939Y-105407854D02*
X149379294Y-105343499D01*
X158452178Y-92499822D02*
X158452178Y-92493352D01*
X150086000Y-86679438D02*
X151158000Y-87751438D01*
X148990349Y-91080809D02*
X148993860Y-91077298D01*
X147630000Y-113538000D02*
X147447000Y-113721000D01*
X157007451Y-90109635D02*
X157007451Y-91048625D01*
X153035000Y-84328000D02*
X152687932Y-83980932D01*
X147789107Y-105407854D02*
X148590000Y-105407854D01*
X155975000Y-92212500D02*
X155975000Y-92081076D01*
X159172589Y-97450589D02*
X159172589Y-97069589D01*
X155975000Y-92081076D02*
X157007451Y-91048625D01*
X148808193Y-92023449D02*
X148011347Y-92023449D01*
X148590000Y-113538000D02*
X147630000Y-113538000D01*
X152230000Y-87708438D02*
X152273000Y-87751438D01*
X152230000Y-86360000D02*
X152230000Y-87708438D01*
X158038800Y-89078286D02*
X157007451Y-90109635D01*
X148448949Y-96650000D02*
X148294367Y-96804582D01*
X148990349Y-92205605D02*
X148990349Y-91080809D01*
X159004699Y-96901699D02*
X158985398Y-96921000D01*
X157407998Y-92075000D02*
X157720912Y-91762086D01*
X148578513Y-112601000D02*
X148567000Y-112601000D01*
X148294367Y-96804582D02*
X148134220Y-96644435D01*
X149937500Y-96650000D02*
X148448949Y-96650000D01*
X157226000Y-84328000D02*
X158038800Y-85140800D01*
X148567000Y-112601000D02*
X147447000Y-113721000D01*
X150861315Y-83980932D02*
X149118932Y-83980932D01*
%TO.N,GND*%
X158691300Y-76817500D02*
X160324800Y-75184000D01*
X155883338Y-103940338D02*
X155660411Y-103717411D01*
X154304000Y-108404471D02*
X154934600Y-107773871D01*
X152931464Y-103869097D02*
X153301464Y-103499097D01*
X149121499Y-110251000D02*
X149677499Y-110807000D01*
X156565600Y-107137200D02*
X156905000Y-107476600D01*
X147090464Y-105995136D02*
X146405600Y-106680000D01*
X147447000Y-116784000D02*
X148234400Y-117571400D01*
X146401513Y-108666337D02*
X146405600Y-108670424D01*
X147479108Y-104447854D02*
X147789107Y-104447854D01*
X148061032Y-102179529D02*
X147701464Y-102539097D01*
X153528513Y-110251000D02*
X153803750Y-110251000D01*
X146405600Y-107281300D02*
X146401513Y-107285387D01*
X152375000Y-96650000D02*
X153375000Y-95650000D01*
X148234400Y-118668800D02*
X148640800Y-119075200D01*
X145326004Y-77887500D02*
X147391019Y-79952515D01*
X148234400Y-115468400D02*
X147447000Y-114681000D01*
X144485000Y-77887500D02*
X145326004Y-77887500D01*
X149611034Y-77732500D02*
X147391019Y-79952515D01*
X145948400Y-111206113D02*
X146903513Y-110251000D01*
X152230000Y-85400000D02*
X153223272Y-85400000D01*
X153175000Y-87507240D02*
X153175000Y-85543452D01*
X153803750Y-110251000D02*
X154304000Y-109750750D01*
X154025811Y-105001000D02*
X154305000Y-105001000D01*
X153175000Y-85543452D02*
X153270862Y-85447590D01*
X158653800Y-110838431D02*
X156905000Y-109089631D01*
X150179527Y-110807000D02*
X150534513Y-110452014D01*
X158653800Y-115144200D02*
X158653800Y-110838431D01*
X150596000Y-80391000D02*
X150596000Y-81815617D01*
X147090464Y-103150097D02*
X147090464Y-104059210D01*
X155883338Y-104546400D02*
X155883338Y-103940338D01*
X148234400Y-117571400D02*
X148234400Y-118668800D01*
X154615000Y-112911625D02*
X154615000Y-111879631D01*
X149677499Y-110807000D02*
X150179527Y-110807000D01*
X148011347Y-91063449D02*
X147705449Y-91063449D01*
X147090464Y-104059210D02*
X147479108Y-104447854D01*
X153223272Y-85400000D02*
X153270862Y-85447590D01*
X155933000Y-114771000D02*
X155933000Y-114681000D01*
X150596000Y-81815617D02*
X150861315Y-82080932D01*
X155205000Y-111114000D02*
X156905000Y-109414000D01*
X145799418Y-96643582D02*
X145796000Y-96647000D01*
X155660411Y-103717411D02*
X155588589Y-103717411D01*
X154304000Y-109750750D02*
X154304000Y-108404471D01*
X156625000Y-77732500D02*
X156972000Y-77385500D01*
X156625000Y-77732500D02*
X157540000Y-76817500D01*
X153301464Y-104276653D02*
X154025811Y-105001000D01*
X147701464Y-102539097D02*
X147090464Y-103150097D01*
X150534513Y-109607000D02*
X150528513Y-109601000D01*
X150534513Y-110452014D02*
X150534513Y-109607000D01*
X147705449Y-91063449D02*
X147116800Y-90474800D01*
X147528513Y-110251000D02*
X149121499Y-110251000D01*
X160324800Y-74359733D02*
X159652567Y-73687500D01*
X148071464Y-102169097D02*
X147701464Y-102539097D01*
X155205000Y-111289631D02*
X155205000Y-111114000D01*
X157480000Y-117348000D02*
X157480000Y-116318000D01*
X146405600Y-106680000D02*
X146405600Y-107281300D01*
X156905000Y-109414000D02*
X156905000Y-109089631D01*
X146674917Y-96643582D02*
X145799418Y-96643582D01*
X157734000Y-117602000D02*
X157480000Y-117348000D01*
X157184411Y-88433589D02*
X157429200Y-88188800D01*
X146903513Y-110251000D02*
X147528513Y-110251000D01*
X147650200Y-83032600D02*
X148399800Y-82283000D01*
X154934600Y-107773871D02*
X154934600Y-106888600D01*
X149126000Y-86614000D02*
X150340000Y-85400000D01*
X149401464Y-102169097D02*
X148071464Y-102169097D01*
X156905000Y-107476600D02*
X156905000Y-109089631D01*
X155588589Y-103717411D02*
X154305000Y-105001000D01*
X156565600Y-107137200D02*
X156062800Y-106634400D01*
X157540000Y-76817500D02*
X157695000Y-76817500D01*
X151601464Y-103869097D02*
X151601464Y-105017864D01*
X157184411Y-89068589D02*
X157184411Y-88433589D01*
X159851411Y-98129411D02*
X160571265Y-98849265D01*
X146401513Y-107285387D02*
X146401513Y-108666337D01*
X148773798Y-89251438D02*
X148308000Y-89251438D01*
X150125000Y-77732500D02*
X149611034Y-77732500D01*
X145948400Y-114524100D02*
X144485000Y-115987500D01*
X148234400Y-118668800D02*
X148234400Y-115468400D01*
X149173068Y-82080932D02*
X148971000Y-82283000D01*
X146405600Y-108670424D02*
X146405600Y-110748913D01*
X155188800Y-106634400D02*
X155600400Y-106634400D01*
X148399800Y-82283000D02*
X148971000Y-82283000D01*
X146405600Y-110748913D02*
X145948400Y-111206113D01*
X153301464Y-103499097D02*
X153301464Y-104276653D01*
X157480000Y-116318000D02*
X155933000Y-114771000D01*
X146738400Y-96644435D02*
X146675770Y-96644435D01*
X146675770Y-96644435D02*
X146674917Y-96643582D01*
X148061032Y-101690167D02*
X148061032Y-102179529D01*
X150861315Y-82080932D02*
X149173068Y-82080932D01*
X149126000Y-86614000D02*
X149126000Y-88899236D01*
X160324800Y-75184000D02*
X160324800Y-74359733D01*
X151601464Y-105017864D02*
X151841200Y-105257600D01*
X156062800Y-106634400D02*
X155600400Y-106634400D01*
X157695000Y-76817500D02*
X158691300Y-76817500D01*
X145948400Y-114524100D02*
X145948400Y-111206113D01*
X152375000Y-99087500D02*
X152375000Y-96650000D01*
X156972000Y-77385500D02*
X156972000Y-75336400D01*
X154615000Y-111879631D02*
X155205000Y-111289631D01*
X152230000Y-85400000D02*
X151130000Y-85400000D01*
X150340000Y-85400000D02*
X151130000Y-85400000D01*
X149126000Y-88899236D02*
X148773798Y-89251438D01*
X154934600Y-106888600D02*
X155188800Y-106634400D01*
X157480000Y-116318000D02*
X158653800Y-115144200D01*
X147090464Y-104059210D02*
X147090464Y-105995136D01*
X151601464Y-103869097D02*
X152931464Y-103869097D01*
%TO.N,+5V*%
X156559731Y-82899731D02*
X156725892Y-82899731D01*
X147447000Y-115824000D02*
X146836000Y-116435000D01*
X155067000Y-81407000D02*
X156559731Y-82899731D01*
X147528513Y-110901000D02*
X147253276Y-110901000D01*
X147250914Y-117821457D02*
X147250914Y-119209758D01*
X146802513Y-115179513D02*
X147447000Y-115824000D01*
X147253276Y-110901000D02*
X146802513Y-111351763D01*
X152146000Y-82440617D02*
X152146000Y-80391000D01*
X146802513Y-111351763D02*
X146802513Y-115179513D01*
X152146000Y-79629000D02*
X152146000Y-80391000D01*
X146836000Y-117406543D02*
X147250914Y-117821457D01*
X153018500Y-79358500D02*
X152416500Y-79358500D01*
X147250914Y-117821457D02*
X147239229Y-117809771D01*
X159175892Y-82899731D02*
X156725892Y-82899731D01*
X146836000Y-116435000D02*
X146836000Y-117406543D01*
X159175892Y-82899731D02*
X159175892Y-82848892D01*
X152736315Y-83030932D02*
X152146000Y-82440617D01*
X152416500Y-79358500D02*
X152146000Y-79629000D01*
%TO.N,XIN*%
X150916304Y-101268097D02*
X150600464Y-101583937D01*
X150600464Y-101583937D02*
X150600464Y-102670097D01*
X149401464Y-103869097D02*
X148071464Y-103869097D01*
X152775000Y-99087500D02*
X152775000Y-99828000D01*
X148071464Y-103869097D02*
X147701464Y-103499097D01*
X150600464Y-102670097D02*
X149401464Y-103869097D01*
X152775000Y-99828000D02*
X151334903Y-101268097D01*
X151334903Y-101268097D02*
X150916304Y-101268097D01*
%TO.N,Net-(C16-Pad2)*%
X152931464Y-102169097D02*
X153301464Y-102539097D01*
X153504947Y-101434947D02*
X153504947Y-102335614D01*
X151601464Y-102169097D02*
X152931464Y-102169097D01*
X153504947Y-102335614D02*
X153301464Y-102539097D01*
%TO.N,OSC1*%
X155600400Y-107594400D02*
X155600400Y-108694231D01*
X153894000Y-110901000D02*
X155205000Y-109590000D01*
X155205000Y-109590000D02*
X155205000Y-109089631D01*
X155600400Y-108694231D02*
X155205000Y-109089631D01*
X153528513Y-110901000D02*
X153894000Y-110901000D01*
X155217919Y-109089631D02*
X155205000Y-109089631D01*
%TO.N,OSC2*%
X154940000Y-113538000D02*
X155566375Y-112911625D01*
X156905000Y-111581625D02*
X155575000Y-112911625D01*
X154178000Y-113538000D02*
X154940000Y-113538000D01*
X156905000Y-111289631D02*
X156905000Y-111581625D01*
X153528513Y-112888513D02*
X154178000Y-113538000D01*
X153528513Y-111551000D02*
X153528513Y-112888513D01*
X155566375Y-112911625D02*
X155575000Y-112911625D01*
%TO.N,Net-(D1-A)*%
X148321534Y-80772000D02*
X147391019Y-81702515D01*
X148971000Y-80772000D02*
X148321534Y-80772000D01*
%TO.N,Net-(D2-A)*%
X157734000Y-113030000D02*
X157734000Y-114314000D01*
X157734000Y-114314000D02*
X157480000Y-114568000D01*
%TO.N,VBUS*%
X150925000Y-78916000D02*
X150925000Y-77732500D01*
X157441069Y-80099731D02*
X160482600Y-77058200D01*
X160482600Y-77058200D02*
X160482600Y-76562800D01*
X156725892Y-80099731D02*
X157441069Y-80099731D01*
X160832800Y-76212600D02*
X160832800Y-74239700D01*
X155825000Y-79198839D02*
X155825000Y-77732500D01*
X160832800Y-74239700D02*
X162265000Y-72807500D01*
X156725892Y-80099731D02*
X155825000Y-79198839D01*
X160482600Y-76562800D02*
X160832800Y-76212600D01*
%TO.N,VSYS*%
X159175892Y-78932008D02*
X160883600Y-77224300D01*
X159175892Y-80099731D02*
X159175892Y-78932008D01*
X160883600Y-76728900D02*
X162265000Y-75347500D01*
X160883600Y-77224300D02*
X160883600Y-76728900D01*
%TO.N,Net-(J1-CC2)*%
X149811008Y-74657500D02*
X151625000Y-76471492D01*
X147149810Y-74657500D02*
X149811008Y-74657500D01*
X151625000Y-76471492D02*
X151625000Y-77732500D01*
%TO.N,USB_D-*%
X154478795Y-82043297D02*
X154100000Y-81664502D01*
X154125000Y-78820001D02*
X154125000Y-77732500D01*
X154100000Y-79539009D02*
X154100000Y-79174749D01*
X154100000Y-78845001D02*
X154125000Y-78820001D01*
X154478795Y-82659597D02*
X154478795Y-82043297D01*
X157070000Y-87487415D02*
X157070000Y-85250802D01*
X157070000Y-85250802D02*
X154478795Y-82659597D01*
X154076000Y-76706500D02*
X154125000Y-76755500D01*
X155130743Y-89890275D02*
X155130743Y-89426672D01*
X155130743Y-89426672D02*
X157070000Y-87487415D01*
X154100000Y-79174749D02*
X154100000Y-79062136D01*
X154100000Y-79062136D02*
X154100000Y-78845001D01*
X153125000Y-77732500D02*
X153125000Y-76755500D01*
X153174000Y-76706500D02*
X154076000Y-76706500D01*
X154100000Y-81664502D02*
X154100000Y-80374749D01*
X154335740Y-80139009D02*
X154335740Y-79774749D01*
X154125000Y-76755500D02*
X154125000Y-77732500D01*
X153125000Y-76755500D02*
X153174000Y-76706500D01*
X154217870Y-80256879D02*
G75*
G03*
X154335779Y-80139009I30J117879D01*
G01*
X154100000Y-80374749D02*
G75*
G02*
X154217870Y-80256800I117900J49D01*
G01*
X154217870Y-79656879D02*
G75*
G02*
X154100021Y-79539009I30J117879D01*
G01*
X154335740Y-79774749D02*
G75*
G03*
X154217870Y-79656860I-117840J49D01*
G01*
%TO.N,USB_D+*%
X154028815Y-82229685D02*
X154028815Y-82846013D01*
X153625000Y-78658000D02*
X153625000Y-77732500D01*
X156620000Y-85437198D02*
X156620000Y-87301018D01*
X156620000Y-87301018D02*
X154030743Y-89890275D01*
X154028815Y-82846013D02*
X156620000Y-85437198D01*
X153650000Y-81850870D02*
X154028815Y-82229685D01*
X152674000Y-78758500D02*
X153524500Y-78758500D01*
X153524500Y-78758500D02*
X153625000Y-78658000D01*
X153625000Y-77732500D02*
X153625000Y-78820001D01*
X152625000Y-77732500D02*
X152625000Y-78709500D01*
X152625000Y-78709500D02*
X152674000Y-78758500D01*
X153650000Y-78845001D02*
X153650000Y-81850870D01*
X153625000Y-78820001D02*
X153650000Y-78845001D01*
%TO.N,Net-(J1-CC1)*%
X159652567Y-74657500D02*
X156723000Y-74657500D01*
X156723000Y-74657500D02*
X154625000Y-76755500D01*
X154625000Y-76755500D02*
X154625000Y-77732500D01*
%TO.N,GPIO5*%
X145669000Y-89232229D02*
X144485000Y-88048229D01*
X148572340Y-95450000D02*
X148333137Y-95210797D01*
X144485000Y-88048229D02*
X144485000Y-88047500D01*
X145669000Y-93243400D02*
X145669000Y-89232229D01*
X148333137Y-95210797D02*
X147636397Y-95210797D01*
X149937500Y-95450000D02*
X148572340Y-95450000D01*
X147636397Y-95210797D02*
X145669000Y-93243400D01*
%TO.N,GPIO13*%
X151175000Y-99087500D02*
X151175000Y-99650000D01*
X150241000Y-99949000D02*
X149987000Y-99695000D01*
X150876000Y-99949000D02*
X150241000Y-99949000D01*
X149987000Y-99695000D02*
X148209000Y-99695000D01*
X151175000Y-99650000D02*
X150876000Y-99949000D01*
%TO.N,GPIO4*%
X146070000Y-93034800D02*
X146070000Y-87092500D01*
X147844997Y-94809797D02*
X146070000Y-93034800D01*
X148497708Y-94809797D02*
X147844997Y-94809797D01*
X148737911Y-95050000D02*
X148497708Y-94809797D01*
X149937500Y-95050000D02*
X148737911Y-95050000D01*
X146070000Y-87092500D02*
X144485000Y-85507500D01*
%TO.N,GPIO3*%
X148903316Y-94650000D02*
X149937500Y-94650000D01*
X152908000Y-105403118D02*
X152464882Y-104960000D01*
X147700301Y-93980699D02*
X147890102Y-94170500D01*
X147891500Y-94170500D02*
X148131158Y-94410158D01*
X148131158Y-94410158D02*
X148663474Y-94410158D01*
X148663474Y-94410158D02*
X148903316Y-94650000D01*
X147890102Y-94170500D02*
X147891500Y-94170500D01*
X152908000Y-106171513D02*
X152908000Y-105403118D01*
X152478513Y-106601000D02*
X152908000Y-106171513D01*
%TO.N,GPIO11*%
X146151600Y-100283605D02*
X147962269Y-98472936D01*
X149050064Y-98472936D02*
X149273000Y-98250000D01*
X147962269Y-98472936D02*
X149050064Y-98472936D01*
X145603600Y-106949100D02*
X145603600Y-106347800D01*
X145599513Y-106953187D02*
X145603600Y-106949100D01*
X144485000Y-108367500D02*
X145599513Y-107252987D01*
X149273000Y-98250000D02*
X149937500Y-98250000D01*
X146151600Y-105799800D02*
X146151600Y-100283605D01*
X145603600Y-106347800D02*
X146151600Y-105799800D01*
X145599513Y-107252987D02*
X145599513Y-106953187D01*
%TO.N,GPIO8*%
X147347418Y-97254582D02*
X146394500Y-98207500D01*
X146394500Y-98207500D02*
X144485000Y-98207500D01*
X149937500Y-97050000D02*
X148740132Y-97050000D01*
X148740132Y-97050000D02*
X148535550Y-97254582D01*
X148535550Y-97254582D02*
X147347418Y-97254582D01*
%TO.N,GPIO6*%
X148406628Y-95850000D02*
X148167628Y-95611000D01*
X149937500Y-95850000D02*
X148406628Y-95850000D01*
X148167628Y-95611000D02*
X146968500Y-95611000D01*
X146968500Y-95611000D02*
X144485000Y-93127500D01*
%TO.N,GPIO12*%
X146000513Y-108832437D02*
X146004600Y-108836524D01*
X146004600Y-106513900D02*
X146004600Y-107115200D01*
X146608800Y-105909700D02*
X146004600Y-106513900D01*
X146000513Y-107119287D02*
X146000513Y-108832437D01*
X146004600Y-107115200D02*
X146000513Y-107119287D01*
X146608800Y-100393505D02*
X146608800Y-105909700D01*
X150775000Y-99087500D02*
X147914805Y-99087500D01*
X147914805Y-99087500D02*
X146608800Y-100393505D01*
X146004600Y-109387900D02*
X144485000Y-110907500D01*
X146004600Y-108836524D02*
X146004600Y-109387900D01*
%TO.N,GPIO2*%
X153528513Y-105141513D02*
X153528513Y-107651000D01*
X148590000Y-93960158D02*
X148778581Y-93960158D01*
X149068423Y-94250000D02*
X149937500Y-94250000D01*
X153161301Y-104774301D02*
X153528513Y-105141513D01*
X148778581Y-93960158D02*
X149068423Y-94250000D01*
%TO.N,GPIO1*%
X149233512Y-93850000D02*
X149937500Y-93850000D01*
X148491597Y-93287000D02*
X148670512Y-93287000D01*
X148670512Y-93287000D02*
X149233512Y-93850000D01*
%TO.N,GPIO10*%
X145745200Y-100058900D02*
X145745200Y-104567300D01*
X145745200Y-104567300D02*
X144485000Y-105827500D01*
X148860332Y-98064000D02*
X147740100Y-98064000D01*
X149074332Y-97850000D02*
X148860332Y-98064000D01*
X149937500Y-97850000D02*
X149537200Y-97850000D01*
X147740100Y-98064000D02*
X145745200Y-100058900D01*
X149937500Y-97850000D02*
X149074332Y-97850000D01*
%TO.N,GPIO0*%
X146921000Y-92057000D02*
X147701000Y-92837000D01*
X151828513Y-106293487D02*
X151828513Y-106601000D01*
X149401784Y-93450000D02*
X149937500Y-93450000D01*
X148788784Y-92837000D02*
X149401784Y-93450000D01*
X152302000Y-105820000D02*
X151828513Y-106293487D01*
X147320000Y-85902800D02*
X147320000Y-84531200D01*
X146507200Y-86715600D02*
X147320000Y-85902800D01*
X146921000Y-91144889D02*
X146921000Y-90982800D01*
X146921000Y-90982800D02*
X146507200Y-90569000D01*
X146507200Y-90569000D02*
X146507200Y-86715600D01*
X147701000Y-92837000D02*
X148788784Y-92837000D01*
X146921000Y-91144889D02*
X146921000Y-92057000D01*
%TO.N,GPIO9*%
X144489500Y-100747500D02*
X144485000Y-100747500D01*
X149937500Y-97450000D02*
X148907232Y-97450000D01*
X148694232Y-97663000D02*
X147574000Y-97663000D01*
X147574000Y-97663000D02*
X144489500Y-100747500D01*
X148907232Y-97450000D02*
X148694232Y-97663000D01*
%TO.N,GPIO14*%
X151044550Y-100347550D02*
X151047000Y-100350000D01*
X150019900Y-100295000D02*
X150074900Y-100350000D01*
X151575000Y-99822000D02*
X151575000Y-99087500D01*
X148458943Y-100295000D02*
X150019900Y-100295000D01*
X151047000Y-100350000D02*
X151575000Y-99822000D01*
X147960057Y-100296000D02*
X148457943Y-100296000D01*
X150074900Y-100350000D02*
X151042100Y-100350000D01*
X151042100Y-100350000D02*
X151044550Y-100347550D01*
X147572818Y-100295000D02*
X147959057Y-100295000D01*
X148457943Y-100296000D02*
X148458943Y-100295000D01*
X147959057Y-100295000D02*
X147960057Y-100296000D01*
%TO.N,GPIO7*%
X146050000Y-95667500D02*
X144485000Y-95667500D01*
X148241567Y-96250000D02*
X148003567Y-96012000D01*
X148003567Y-96012000D02*
X146394500Y-96012000D01*
X146394500Y-96012000D02*
X146050000Y-95667500D01*
X149937500Y-96250000D02*
X148241567Y-96250000D01*
%TO.N,GPIO15*%
X151384000Y-100584000D02*
X151975000Y-99993000D01*
X147315426Y-101401374D02*
X147965800Y-100751000D01*
X151213100Y-100751000D02*
X151380100Y-100584000D01*
X151975000Y-99993000D02*
X151975000Y-99087500D01*
X151380100Y-100584000D02*
X151384000Y-100584000D01*
X147314974Y-101401374D02*
X147315426Y-101401374D01*
X147965800Y-100751000D02*
X151213100Y-100751000D01*
%TO.N,STBY*%
X159673450Y-107280550D02*
X159872450Y-107081550D01*
X154559000Y-114681000D02*
X153416000Y-113538000D01*
X159872450Y-101706450D02*
X158649798Y-100483798D01*
X154963000Y-114681000D02*
X154559000Y-114681000D01*
X156704000Y-117715000D02*
X156704000Y-116422000D01*
X157759400Y-118770400D02*
X156704000Y-117715000D01*
X158649798Y-100483798D02*
X158648400Y-100483798D01*
X156704000Y-116422000D02*
X154963000Y-114681000D01*
X151490513Y-113538000D02*
X151178513Y-113226000D01*
X159673450Y-109270800D02*
X159673450Y-107280550D01*
X159872450Y-107081550D02*
X159872450Y-101706450D01*
X153416000Y-113538000D02*
X151490513Y-113538000D01*
X158292800Y-118770400D02*
X157759400Y-118770400D01*
X151178513Y-113226000D02*
X151178513Y-112601000D01*
%TO.N,GPIO17*%
X158643000Y-107749700D02*
X158643000Y-109693431D01*
X158643000Y-109693431D02*
X159461200Y-110511631D01*
X157373000Y-101199000D02*
X156896977Y-101675023D01*
X159461200Y-115723700D02*
X162265000Y-118527500D01*
X155975000Y-99087500D02*
X156428000Y-99087500D01*
X159461200Y-110511631D02*
X159461200Y-115723700D01*
X156896977Y-106003677D02*
X158643000Y-107749700D01*
X156428000Y-99087500D02*
X157373000Y-100032500D01*
X157373000Y-100032500D02*
X157373000Y-101199000D01*
X156896977Y-101675023D02*
X156896977Y-106003677D01*
%TO.N,GPIO18*%
X159562800Y-110032800D02*
X159562800Y-110046131D01*
X157774000Y-101433000D02*
X157297977Y-101909023D01*
X156812500Y-98646500D02*
X157774000Y-99608000D01*
X157297977Y-101909023D02*
X157297977Y-105837577D01*
X159044000Y-107583600D02*
X159044000Y-109514000D01*
X159862200Y-111043400D02*
X162265000Y-113446200D01*
X159862200Y-110345531D02*
X159862200Y-111043400D01*
X157774000Y-99608000D02*
X157774000Y-101433000D01*
X157297977Y-105837577D02*
X159044000Y-107583600D01*
X159562800Y-110046131D02*
X159862200Y-110345531D01*
X156812500Y-98250000D02*
X156812500Y-98646500D01*
X159044000Y-109514000D02*
X159562800Y-110032800D01*
X162265000Y-113446200D02*
X162265000Y-113447500D01*
%TO.N,GPIO19*%
X157413000Y-97850000D02*
X157734000Y-98171000D01*
X157734000Y-98933000D02*
X160273450Y-101472450D01*
X157734000Y-98171000D02*
X157734000Y-98933000D01*
X160273450Y-108915950D02*
X162265000Y-110907500D01*
X156812500Y-97850000D02*
X157413000Y-97850000D01*
X160273450Y-101472450D02*
X160273450Y-108915950D01*
%TO.N,GPIO28_ADC2*%
X156812500Y-93850000D02*
X159002500Y-93850000D01*
X159002500Y-93850000D02*
X162265000Y-90587500D01*
%TO.N,RUN*%
X160477899Y-99770501D02*
X160731200Y-99517200D01*
X155595000Y-100350000D02*
X155175000Y-99930000D01*
X156103000Y-100350000D02*
X155595000Y-100350000D01*
X162265000Y-100339800D02*
X162265000Y-100747500D01*
X156372000Y-100694628D02*
X156372000Y-100619000D01*
X161442400Y-99517200D02*
X162265000Y-100339800D01*
X160731200Y-99517200D02*
X161442400Y-99517200D01*
X155175000Y-99930000D02*
X155175000Y-99087500D01*
X156372000Y-100619000D02*
X156103000Y-100350000D01*
%TO.N,GPIO27_ADC1*%
X160364500Y-93127500D02*
X162265000Y-93127500D01*
X159242000Y-94250000D02*
X160364500Y-93127500D01*
X156812500Y-94250000D02*
X159242000Y-94250000D01*
%TO.N,GPIO22*%
X159004000Y-96266000D02*
X160323500Y-96266000D01*
X158496000Y-96520000D02*
X158750000Y-96520000D01*
X158226000Y-96250000D02*
X158496000Y-96520000D01*
X156812500Y-96250000D02*
X158226000Y-96250000D01*
X162265000Y-98212000D02*
X162265000Y-98207500D01*
X158750000Y-96520000D02*
X159004000Y-96266000D01*
X160323500Y-96266000D02*
X162265000Y-98207500D01*
%TO.N,GPIO20*%
X160713000Y-101248000D02*
X160713000Y-106815500D01*
X158177191Y-98038291D02*
X158177191Y-98712191D01*
X158177191Y-98712191D02*
X160713000Y-101248000D01*
X157588900Y-97450000D02*
X158177191Y-98038291D01*
X160713000Y-106815500D02*
X162265000Y-108367500D01*
X156812500Y-97450000D02*
X157588900Y-97450000D01*
%TO.N,INT*%
X155706938Y-105537000D02*
X155321000Y-105537000D01*
X154533600Y-107571150D02*
X153803750Y-108301000D01*
X154533600Y-106324400D02*
X154533600Y-107571150D01*
X155732338Y-105562400D02*
X155706938Y-105537000D01*
X153803750Y-108301000D02*
X153528513Y-108301000D01*
X155321000Y-105537000D02*
X154533600Y-106324400D01*
%TO.N,GPIO29_ADC3*%
X156812500Y-93450000D02*
X158645000Y-93450000D01*
X160528000Y-89784500D02*
X162265000Y-88047500D01*
X158645000Y-93450000D02*
X160528000Y-91567000D01*
X160528000Y-91567000D02*
X160528000Y-89784500D01*
%TO.N,GPIO16*%
X156972000Y-100965000D02*
X156972000Y-100330000D01*
X158242000Y-107950000D02*
X156483338Y-106191338D01*
X156483338Y-101453662D02*
X156972000Y-100965000D01*
X155575000Y-99695000D02*
X155575000Y-99087500D01*
X156591000Y-99949000D02*
X155829000Y-99949000D01*
X159054800Y-115310300D02*
X159054800Y-110672331D01*
X159054800Y-110672331D02*
X158242000Y-109859531D01*
X155829000Y-99949000D02*
X155575000Y-99695000D01*
X156483338Y-106191338D02*
X156483338Y-101453662D01*
X162265000Y-121067500D02*
X158394400Y-117196900D01*
X158394400Y-117196900D02*
X158394400Y-115970700D01*
X156972000Y-100330000D02*
X156591000Y-99949000D01*
X158242000Y-109859531D02*
X158242000Y-107950000D01*
X158394400Y-115970700D02*
X159054800Y-115310300D01*
%TO.N,GPIO24*%
X158914374Y-95450000D02*
X156812500Y-95450000D01*
X159835000Y-95816000D02*
X159280374Y-95816000D01*
X160267462Y-95383538D02*
X159835000Y-95816000D01*
X149352000Y-79248000D02*
X149733000Y-79248000D01*
X159280374Y-95816000D02*
X158914374Y-95450000D01*
X160267462Y-94495936D02*
X160267462Y-95383538D01*
X148971000Y-79802000D02*
X148971000Y-79629000D01*
X148971000Y-79629000D02*
X149352000Y-79248000D01*
%TO.N,GPIO21*%
X161114000Y-101043000D02*
X161114000Y-104676500D01*
X158623000Y-98552000D02*
X161114000Y-101043000D01*
X156812500Y-97050000D02*
X157756000Y-97050000D01*
X161114000Y-104676500D02*
X162265000Y-105827500D01*
X157756000Y-97050000D02*
X158623000Y-97917000D01*
X158623000Y-97917000D02*
X158623000Y-98552000D01*
%TO.N,GPIO26_ADC0*%
X159477000Y-94650000D02*
X160274000Y-93853000D01*
X156812500Y-94650000D02*
X159477000Y-94650000D01*
X161036000Y-93853000D02*
X162265000Y-95082000D01*
X162265000Y-95082000D02*
X162265000Y-95667500D01*
X160274000Y-93853000D02*
X161036000Y-93853000D01*
%TO.N,SWD*%
X154775000Y-100114700D02*
X154775000Y-99087500D01*
X155882338Y-101800662D02*
X155676322Y-101594646D01*
X155676322Y-101016022D02*
X154775000Y-100114700D01*
X155676322Y-101594646D02*
X155676322Y-101016022D01*
%TO.N,SWCLK*%
X155275322Y-102190710D02*
X155275322Y-101182122D01*
X155275322Y-101182122D02*
X154375000Y-100281800D01*
X154375000Y-100281800D02*
X154375000Y-99087500D01*
X155883338Y-102798726D02*
X155275322Y-102190710D01*
X158623000Y-105029000D02*
X157988000Y-105029000D01*
%TO.N,CANL*%
X149878513Y-115490625D02*
X149878513Y-121047737D01*
X149878513Y-121047737D02*
X149875000Y-121051250D01*
X149878513Y-112601000D02*
X149878513Y-115490625D01*
%TO.N,CANH*%
X153310994Y-114046000D02*
X155932101Y-116667107D01*
X155932101Y-120108351D02*
X156875000Y-121051250D01*
X155932101Y-116667107D02*
X155932101Y-120108351D01*
X150528513Y-113226000D02*
X151348513Y-114046000D01*
X151348513Y-114046000D02*
X153310994Y-114046000D01*
X150528513Y-112601000D02*
X150528513Y-113226000D01*
%TO.N,Net-(J7-Pin_1)*%
X152418513Y-115490625D02*
X153785619Y-115490625D01*
X153785619Y-115490625D02*
X154962101Y-116667107D01*
%TO.N,Net-(U1-USB_DP)*%
X154375000Y-91204532D02*
X154030743Y-90860275D01*
X154375000Y-92212500D02*
X154375000Y-91204532D01*
%TO.N,Net-(U1-USB_DM)*%
X154775000Y-92212500D02*
X154775000Y-91216018D01*
X154775000Y-91216018D02*
X155130743Y-90860275D01*
%TO.N,XOUT*%
X152884674Y-100626316D02*
X152702507Y-100626316D01*
X153175000Y-100335990D02*
X152884674Y-100626316D01*
X153175000Y-99087500D02*
X153175000Y-100335990D01*
%TO.N,Net-(R6-Pad1)*%
X153632000Y-84819000D02*
X149958000Y-84819000D01*
X149958000Y-84819000D02*
X149687000Y-85090000D01*
X155046000Y-86233000D02*
X153632000Y-84819000D01*
%TO.N,QSPI_SS*%
X149963860Y-91401360D02*
X149963860Y-91077298D01*
X149443860Y-91739954D02*
X150302454Y-91739954D01*
X148308000Y-87751438D02*
X148308000Y-85499000D01*
X150302454Y-91739954D02*
X150775000Y-92212500D01*
X150302454Y-91739954D02*
X149963860Y-91401360D01*
X148308000Y-85499000D02*
X148717000Y-85090000D01*
%TO.N,GPIO25*%
X156022235Y-113771765D02*
X156764000Y-113030000D01*
X159651243Y-95162219D02*
X159539024Y-95050000D01*
X159539024Y-95050000D02*
X156812500Y-95050000D01*
X155554765Y-113771765D02*
X156022235Y-113771765D01*
%TO.N,Net-(U4-~{RESET})*%
X150528513Y-106601000D02*
X150528513Y-105526589D01*
X150349294Y-105347370D02*
X150349294Y-105343499D01*
X150528513Y-105526589D02*
X150349294Y-105347370D01*
%TO.N,QSPI_SD3*%
X151771798Y-88251438D02*
X151158000Y-88251438D01*
X152775000Y-92212500D02*
X152775000Y-89254640D01*
X152775000Y-89254640D02*
X151771798Y-88251438D01*
%TO.N,GPIO23*%
X151178513Y-105791000D02*
X151178513Y-106601000D01*
X158460238Y-95850000D02*
X156812500Y-95850000D01*
X158558039Y-95947801D02*
X158460238Y-95850000D01*
X158561611Y-95947801D02*
X158558039Y-95947801D01*
X158623706Y-96009896D02*
X158561611Y-95947801D01*
%TO.N,+1V1*%
X153226760Y-88519000D02*
X153175000Y-88467240D01*
X155829000Y-90424000D02*
X155829000Y-91343690D01*
X154305000Y-88519000D02*
X153226760Y-88519000D01*
X155698690Y-91474000D02*
X155378226Y-91474000D01*
X155175000Y-91677226D02*
X155175000Y-92212500D01*
X154431338Y-102235000D02*
X154431338Y-102488338D01*
X156505589Y-89747411D02*
X156505589Y-89195589D01*
X155378226Y-91474000D02*
X155175000Y-91677226D01*
X154981589Y-103038589D02*
X154813000Y-102870000D01*
X153175000Y-92212500D02*
X153175000Y-88467240D01*
X154431338Y-102488338D02*
X154981589Y-103038589D01*
X156505589Y-89195589D02*
X156251906Y-88941906D01*
X156505589Y-89747411D02*
X155829000Y-90424000D01*
X155829000Y-91343690D02*
X155698690Y-91474000D01*
%TO.N,QSPI_SCLK*%
X151623798Y-88751438D02*
X151158000Y-88751438D01*
X152375000Y-92212500D02*
X152375000Y-89502640D01*
X152375000Y-89502640D02*
X151623798Y-88751438D01*
%TO.N,QSPI_SD2*%
X147557000Y-89036640D02*
X147842202Y-88751438D01*
X151575000Y-92212500D02*
X151575000Y-90869000D01*
X147955000Y-89916000D02*
X147557000Y-89518000D01*
X147557000Y-89518000D02*
X147557000Y-89036640D01*
X151575000Y-90869000D02*
X150622000Y-89916000D01*
X147842202Y-88751438D02*
X148308000Y-88751438D01*
X150622000Y-89916000D02*
X147955000Y-89916000D01*
%TO.N,QSPI_SD0*%
X151158000Y-89251438D02*
X151481438Y-89251438D01*
X151975000Y-89745000D02*
X151975000Y-92212500D01*
X151481438Y-89251438D02*
X151975000Y-89745000D01*
%TO.N,QSPI_SD1*%
X147153396Y-88873144D02*
X147153396Y-89749396D01*
X148308000Y-88251438D02*
X147775102Y-88251438D01*
X147153396Y-89749396D02*
X147828000Y-90424000D01*
X147775102Y-88251438D02*
X147153396Y-88873144D01*
X151175000Y-91104000D02*
X151175000Y-92212500D01*
X147828000Y-90424000D02*
X150495000Y-90424000D01*
X150495000Y-90424000D02*
X151175000Y-91104000D01*
%TO.N,Net-(U4-TXD)*%
X147485780Y-106172276D02*
X148082000Y-106172276D01*
X148379276Y-105875000D02*
X148777750Y-105875000D01*
X146802513Y-108500237D02*
X146802513Y-107451487D01*
X148082000Y-106172276D02*
X148379276Y-105875000D01*
X146802513Y-107451487D02*
X147100000Y-107154000D01*
X148777750Y-105875000D02*
X149228513Y-106325763D01*
X147528513Y-108951000D02*
X147253276Y-108951000D01*
X147253276Y-108951000D02*
X146802513Y-108500237D01*
X147100000Y-106558057D02*
X147485780Y-106172276D01*
X147100000Y-107154000D02*
X147100000Y-106558057D01*
X149228513Y-106325763D02*
X149228513Y-106601000D01*
%TO.N,Net-(U4-RXD)*%
X147447000Y-111632513D02*
X147528513Y-111551000D01*
X147447000Y-112649000D02*
X147447000Y-111632513D01*
X147907000Y-106601000D02*
X147701000Y-106807000D01*
X148578513Y-106601000D02*
X147907000Y-106601000D01*
%TD*%
%TA.AperFunction,Conductor*%
%TO.N,GND*%
G36*
X146600303Y-108850724D02*
G01*
X146606781Y-108856756D01*
X146807836Y-109057811D01*
X146809195Y-109060166D01*
X146811324Y-109061443D01*
X146831311Y-109090533D01*
X146836751Y-109101536D01*
X146845077Y-109132606D01*
X146894070Y-109217466D01*
X146895838Y-109221041D01*
X146901209Y-109251674D01*
X146908542Y-109281901D01*
X146907192Y-109285799D01*
X146907905Y-109289861D01*
X146892070Y-109337998D01*
X146882474Y-109354619D01*
X146845077Y-109419393D01*
X146839740Y-109439310D01*
X146813013Y-109539057D01*
X146813013Y-109662943D01*
X146814584Y-109668805D01*
X146845077Y-109782607D01*
X146845078Y-109782608D01*
X146886584Y-109854499D01*
X146903057Y-109922400D01*
X146886584Y-109978499D01*
X146836225Y-110065723D01*
X146836221Y-110065732D01*
X146834810Y-110070999D01*
X146834811Y-110071000D01*
X147209646Y-110071000D01*
X147213443Y-110072114D01*
X147213443Y-110071500D01*
X147404513Y-110071500D01*
X147471552Y-110091185D01*
X147517307Y-110143989D01*
X147528513Y-110195500D01*
X147528513Y-110306500D01*
X147508828Y-110373539D01*
X147456024Y-110419294D01*
X147404513Y-110430500D01*
X147217275Y-110430500D01*
X147209646Y-110431000D01*
X146834810Y-110431000D01*
X146836221Y-110436267D01*
X146836224Y-110436274D01*
X146886584Y-110523501D01*
X146888393Y-110530958D01*
X146893269Y-110536885D01*
X146896514Y-110564435D01*
X146903056Y-110591401D01*
X146900750Y-110600399D01*
X146901443Y-110606275D01*
X146893846Y-110627349D01*
X146890638Y-110639875D01*
X146888735Y-110643774D01*
X146845077Y-110719394D01*
X146836838Y-110750139D01*
X146831597Y-110760881D01*
X146819253Y-110774411D01*
X146807836Y-110794187D01*
X146545299Y-111056725D01*
X146545298Y-111056725D01*
X146545299Y-111056726D01*
X146490032Y-111111993D01*
X146438626Y-111201032D01*
X146438625Y-111201035D01*
X146412013Y-111300353D01*
X146412013Y-115230923D01*
X146436562Y-115322539D01*
X146438625Y-115330240D01*
X146438626Y-115330243D01*
X146465303Y-115376450D01*
X146469374Y-115383500D01*
X146490035Y-115419286D01*
X146490036Y-115419287D01*
X146490037Y-115419288D01*
X146807067Y-115736318D01*
X146840552Y-115797641D01*
X146835568Y-115867333D01*
X146807067Y-115911680D01*
X146578786Y-116139962D01*
X146578785Y-116139962D01*
X146578786Y-116139963D01*
X146523519Y-116195230D01*
X146472113Y-116284269D01*
X146472112Y-116284272D01*
X146445500Y-116383590D01*
X146445500Y-117457952D01*
X146472112Y-117557273D01*
X146481032Y-117572722D01*
X146481034Y-117572724D01*
X146486207Y-117581684D01*
X146523522Y-117646316D01*
X146628272Y-117751066D01*
X146632036Y-117755625D01*
X146643554Y-117782527D01*
X146657580Y-117808212D01*
X146658595Y-117817652D01*
X146659538Y-117819855D01*
X146659107Y-117822416D01*
X146660414Y-117834570D01*
X146660414Y-117899195D01*
X146660413Y-117899195D01*
X146700657Y-118049384D01*
X146778394Y-118184028D01*
X146778399Y-118184034D01*
X146801942Y-118207577D01*
X146835427Y-118268900D01*
X146830443Y-118338592D01*
X146788571Y-118394525D01*
X146723107Y-118418942D01*
X146714273Y-118419258D01*
X146707554Y-118419258D01*
X146707525Y-118419260D01*
X146683254Y-118422075D01*
X146683251Y-118422076D01*
X146583898Y-118465944D01*
X146507101Y-118542741D01*
X146463232Y-118642093D01*
X146463232Y-118642095D01*
X146460414Y-118666383D01*
X146460414Y-119753123D01*
X146460416Y-119753146D01*
X146463231Y-119777417D01*
X146463232Y-119777420D01*
X146507100Y-119876773D01*
X146507101Y-119876774D01*
X146583898Y-119953571D01*
X146683252Y-119997440D01*
X146707541Y-120000258D01*
X147794286Y-120000257D01*
X147818576Y-119997440D01*
X147917930Y-119953571D01*
X147994727Y-119876774D01*
X148038596Y-119777420D01*
X148041414Y-119753131D01*
X148041413Y-118666386D01*
X148038596Y-118642096D01*
X147994727Y-118542742D01*
X147917930Y-118465945D01*
X147917928Y-118465944D01*
X147818577Y-118422076D01*
X147794288Y-118419258D01*
X147794287Y-118419258D01*
X147787567Y-118419258D01*
X147720528Y-118399573D01*
X147674773Y-118346769D01*
X147664829Y-118277611D01*
X147693854Y-118214055D01*
X147699886Y-118207577D01*
X147723431Y-118184032D01*
X147801172Y-118049381D01*
X147841414Y-117899198D01*
X147841414Y-117743716D01*
X147801172Y-117593533D01*
X147780237Y-117557273D01*
X147747366Y-117500338D01*
X147730893Y-117432438D01*
X147753745Y-117366411D01*
X147808666Y-117323221D01*
X147813800Y-117321296D01*
X147824920Y-117317404D01*
X147931641Y-117238641D01*
X148010403Y-117131922D01*
X148044668Y-117034000D01*
X147571000Y-117034000D01*
X147503961Y-117014315D01*
X147458206Y-116961511D01*
X147447000Y-116910000D01*
X147447000Y-116658000D01*
X147466685Y-116590961D01*
X147519489Y-116545206D01*
X147571000Y-116534000D01*
X148044668Y-116534000D01*
X148010403Y-116436077D01*
X147961366Y-116369635D01*
X147937395Y-116304007D01*
X147952710Y-116235836D01*
X147961362Y-116222372D01*
X148001911Y-116167431D01*
X148029572Y-116088380D01*
X148044773Y-116044941D01*
X148044773Y-116044939D01*
X148046366Y-116027951D01*
X148047500Y-116015859D01*
X148047499Y-115632142D01*
X148044773Y-115603061D01*
X148001911Y-115480569D01*
X147924848Y-115376152D01*
X147900486Y-115358172D01*
X147858236Y-115302525D01*
X147852778Y-115232869D01*
X147885846Y-115171320D01*
X147900489Y-115158632D01*
X147931640Y-115135641D01*
X148010403Y-115028922D01*
X148044668Y-114931000D01*
X147571000Y-114931000D01*
X147503961Y-114911315D01*
X147458206Y-114858511D01*
X147447000Y-114807000D01*
X147447000Y-114555000D01*
X147466685Y-114487961D01*
X147519489Y-114442206D01*
X147571000Y-114431000D01*
X148044668Y-114431000D01*
X148010403Y-114333077D01*
X147961366Y-114266635D01*
X147954537Y-114247939D01*
X147943274Y-114231531D01*
X147942796Y-114215794D01*
X147937395Y-114201007D01*
X147941757Y-114181589D01*
X147941153Y-114161694D01*
X147950734Y-114141630D01*
X147952710Y-114132836D01*
X147954834Y-114129159D01*
X147957867Y-114124108D01*
X148001911Y-114064431D01*
X148013362Y-114031704D01*
X148019902Y-114020816D01*
X148036627Y-114005410D01*
X148049881Y-113986930D01*
X148061834Y-113982191D01*
X148071293Y-113973479D01*
X148093695Y-113969560D01*
X148114833Y-113961181D01*
X148127450Y-113963656D01*
X148140118Y-113961441D01*
X148161079Y-113970255D01*
X148183395Y-113974634D01*
X148199420Y-113986377D01*
X148204525Y-113988524D01*
X148206726Y-113991731D01*
X148213885Y-113996977D01*
X148227425Y-114010517D01*
X148227426Y-114010518D01*
X148227428Y-114010519D01*
X148362072Y-114088256D01*
X148362073Y-114088256D01*
X148362076Y-114088258D01*
X148512259Y-114128500D01*
X148512262Y-114128500D01*
X148667738Y-114128500D01*
X148667741Y-114128500D01*
X148817924Y-114088258D01*
X148952575Y-114010517D01*
X149062517Y-113900575D01*
X149140258Y-113765924D01*
X149180500Y-113615741D01*
X149180500Y-113460259D01*
X149180498Y-113460254D01*
X149179955Y-113456127D01*
X149180318Y-113453795D01*
X149179444Y-113451605D01*
X149185669Y-113419463D01*
X149190715Y-113387091D01*
X149192281Y-113385325D01*
X149192730Y-113383010D01*
X149215345Y-113359335D01*
X149237091Y-113334831D01*
X149239870Y-113333661D01*
X149240992Y-113332488D01*
X149249579Y-113329577D01*
X149273770Y-113319401D01*
X149285776Y-113316500D01*
X149290456Y-113316500D01*
X149333401Y-113304992D01*
X149334890Y-113304633D01*
X149368307Y-113306255D01*
X149401769Y-113307052D01*
X149403086Y-113307943D01*
X149404677Y-113308021D01*
X149431925Y-113327462D01*
X149459631Y-113346214D01*
X149460257Y-113347676D01*
X149461554Y-113348602D01*
X149473961Y-113379677D01*
X149487136Y-113410442D01*
X149487292Y-113413066D01*
X149487462Y-113413491D01*
X149487351Y-113414061D01*
X149488013Y-113425164D01*
X149488013Y-114333594D01*
X149468328Y-114400633D01*
X149420308Y-114444079D01*
X149280757Y-114515184D01*
X149135532Y-114620694D01*
X149008582Y-114747644D01*
X148903072Y-114892869D01*
X148821568Y-115052827D01*
X148766096Y-115223555D01*
X148740562Y-115384775D01*
X148738013Y-115400866D01*
X148738013Y-115580384D01*
X148746496Y-115633946D01*
X148766096Y-115757694D01*
X148821568Y-115928422D01*
X148903072Y-116088380D01*
X149008582Y-116233605D01*
X149135532Y-116360555D01*
X149247634Y-116442000D01*
X149280761Y-116466068D01*
X149420308Y-116537171D01*
X149471104Y-116585146D01*
X149488013Y-116647656D01*
X149488013Y-119729986D01*
X149468328Y-119797025D01*
X149415524Y-119842780D01*
X149402335Y-119847916D01*
X149379616Y-119855298D01*
X149198627Y-119947518D01*
X149034302Y-120066906D01*
X149034297Y-120066910D01*
X148890660Y-120210547D01*
X148890656Y-120210552D01*
X148771268Y-120374877D01*
X148679045Y-120555872D01*
X148616277Y-120749052D01*
X148616277Y-120749055D01*
X148584500Y-120949685D01*
X148584500Y-121152814D01*
X148616277Y-121353444D01*
X148616277Y-121353447D01*
X148679045Y-121546627D01*
X148679047Y-121546630D01*
X148769599Y-121724348D01*
X148771268Y-121727622D01*
X148890656Y-121891947D01*
X148890660Y-121891952D01*
X148974027Y-121975319D01*
X149007512Y-122036642D01*
X149002528Y-122106334D01*
X148960656Y-122162267D01*
X148895192Y-122186684D01*
X148886346Y-122187000D01*
X145266109Y-122187000D01*
X145199070Y-122167315D01*
X145153315Y-122114511D01*
X145143371Y-122045353D01*
X145172396Y-121981797D01*
X145193224Y-121962682D01*
X145227979Y-121937430D01*
X145227977Y-121937430D01*
X145227986Y-121937425D01*
X145354925Y-121810486D01*
X145354927Y-121810482D01*
X145354930Y-121810480D01*
X145401200Y-121746793D01*
X145460443Y-121665252D01*
X145541943Y-121505300D01*
X145597417Y-121334568D01*
X145625500Y-121157259D01*
X145625500Y-120977741D01*
X145597417Y-120800432D01*
X145541943Y-120629700D01*
X145460443Y-120469748D01*
X145449896Y-120455231D01*
X145354930Y-120324519D01*
X145227980Y-120197569D01*
X145082755Y-120092059D01*
X145082754Y-120092058D01*
X145082752Y-120092057D01*
X144967112Y-120033135D01*
X144922797Y-120010555D01*
X144752069Y-119955083D01*
X144663413Y-119941041D01*
X144574759Y-119927000D01*
X144395241Y-119927000D01*
X144336138Y-119936361D01*
X144217930Y-119955083D01*
X144047202Y-120010555D01*
X143887244Y-120092059D01*
X143742019Y-120197569D01*
X143742015Y-120197573D01*
X143615075Y-120324514D01*
X143615069Y-120324520D01*
X143599818Y-120345512D01*
X143544488Y-120388178D01*
X143474875Y-120394157D01*
X143413080Y-120361551D01*
X143378723Y-120300713D01*
X143375500Y-120272627D01*
X143375500Y-119322372D01*
X143395185Y-119255333D01*
X143447989Y-119209578D01*
X143517147Y-119199634D01*
X143580703Y-119228659D01*
X143599819Y-119249488D01*
X143615072Y-119270482D01*
X143615073Y-119270484D01*
X143742019Y-119397430D01*
X143877916Y-119496163D01*
X143887248Y-119502943D01*
X144047200Y-119584443D01*
X144047202Y-119584444D01*
X144132566Y-119612180D01*
X144217932Y-119639917D01*
X144395241Y-119668000D01*
X144395242Y-119668000D01*
X144574758Y-119668000D01*
X144574759Y-119668000D01*
X144752068Y-119639917D01*
X144922800Y-119584443D01*
X145082752Y-119502943D01*
X145164293Y-119443700D01*
X145227980Y-119397430D01*
X145227982Y-119397427D01*
X145227986Y-119397425D01*
X145354925Y-119270486D01*
X145354927Y-119270482D01*
X145354930Y-119270480D01*
X145434544Y-119160899D01*
X145460443Y-119125252D01*
X145541943Y-118965300D01*
X145597417Y-118794568D01*
X145625500Y-118617259D01*
X145625500Y-118437741D01*
X145597417Y-118260432D01*
X145544488Y-118097533D01*
X145541944Y-118089702D01*
X145533138Y-118072420D01*
X145460443Y-117929748D01*
X145438245Y-117899195D01*
X145354930Y-117784519D01*
X145227980Y-117657569D01*
X145082755Y-117552059D01*
X145082754Y-117552058D01*
X145082752Y-117552057D01*
X145002776Y-117511307D01*
X144922797Y-117470555D01*
X144752069Y-117415083D01*
X144663413Y-117401041D01*
X144574759Y-117387000D01*
X144395241Y-117387000D01*
X144336138Y-117396361D01*
X144217930Y-117415083D01*
X144047202Y-117470555D01*
X143887244Y-117552059D01*
X143742019Y-117657569D01*
X143615073Y-117784515D01*
X143615069Y-117784520D01*
X143599818Y-117805512D01*
X143544488Y-117848178D01*
X143474875Y-117854157D01*
X143413080Y-117821551D01*
X143378723Y-117760713D01*
X143375500Y-117732627D01*
X143375500Y-116729361D01*
X143395185Y-116662322D01*
X143447989Y-116616567D01*
X143509229Y-116605743D01*
X143512913Y-116606033D01*
X144002037Y-116116908D01*
X144019075Y-116180493D01*
X144084901Y-116294507D01*
X144177993Y-116387599D01*
X144292007Y-116453425D01*
X144355590Y-116470462D01*
X143866466Y-116959585D01*
X143866466Y-116959586D01*
X143882267Y-116971066D01*
X143882275Y-116971071D01*
X144043552Y-117053247D01*
X144043555Y-117053248D01*
X144215706Y-117109182D01*
X144394494Y-117137500D01*
X144575506Y-117137500D01*
X144754293Y-117109182D01*
X144926444Y-117053248D01*
X144926452Y-117053245D01*
X145087730Y-116971068D01*
X145103532Y-116959585D01*
X145103533Y-116959585D01*
X144614410Y-116470462D01*
X144677993Y-116453425D01*
X144792007Y-116387599D01*
X144885099Y-116294507D01*
X144950925Y-116180493D01*
X144967962Y-116116909D01*
X145457085Y-116606032D01*
X145468568Y-116590230D01*
X145550745Y-116428952D01*
X145550748Y-116428944D01*
X145606682Y-116256793D01*
X145635000Y-116078006D01*
X145635000Y-115896993D01*
X145606682Y-115718206D01*
X145550748Y-115546055D01*
X145550747Y-115546052D01*
X145468571Y-115384775D01*
X145468566Y-115384767D01*
X145457085Y-115368966D01*
X144967962Y-115858089D01*
X144950925Y-115794507D01*
X144885099Y-115680493D01*
X144792007Y-115587401D01*
X144677993Y-115521575D01*
X144614409Y-115504537D01*
X145103533Y-115015413D01*
X145087730Y-115003931D01*
X144926447Y-114921752D01*
X144926444Y-114921751D01*
X144754293Y-114865817D01*
X144575506Y-114837500D01*
X144394494Y-114837500D01*
X144215706Y-114865817D01*
X144043555Y-114921751D01*
X144043547Y-114921754D01*
X143882269Y-115003932D01*
X143866466Y-115015412D01*
X143866466Y-115015413D01*
X144355591Y-115504537D01*
X144292007Y-115521575D01*
X144177993Y-115587401D01*
X144084901Y-115680493D01*
X144019075Y-115794507D01*
X144002037Y-115858090D01*
X143512913Y-115368966D01*
X143509229Y-115369256D01*
X143495618Y-115366396D01*
X143481853Y-115368376D01*
X143462101Y-115359355D01*
X143440852Y-115354892D01*
X143430948Y-115345128D01*
X143418297Y-115339351D01*
X143406556Y-115321082D01*
X143391095Y-115305840D01*
X143387268Y-115291069D01*
X143380523Y-115280573D01*
X143375500Y-115245638D01*
X143375500Y-114242372D01*
X143395185Y-114175333D01*
X143447989Y-114129578D01*
X143517147Y-114119634D01*
X143580703Y-114148659D01*
X143599819Y-114169488D01*
X143615072Y-114190482D01*
X143615073Y-114190484D01*
X143742019Y-114317430D01*
X143869276Y-114409886D01*
X143887248Y-114422943D01*
X144047200Y-114504443D01*
X144047202Y-114504444D01*
X144132566Y-114532180D01*
X144217932Y-114559917D01*
X144395241Y-114588000D01*
X144395242Y-114588000D01*
X144574758Y-114588000D01*
X144574759Y-114588000D01*
X144752068Y-114559917D01*
X144922800Y-114504443D01*
X145082752Y-114422943D01*
X145179775Y-114352452D01*
X145227980Y-114317430D01*
X145227982Y-114317427D01*
X145227986Y-114317425D01*
X145354925Y-114190486D01*
X145354927Y-114190482D01*
X145354930Y-114190480D01*
X145406402Y-114119634D01*
X145460443Y-114045252D01*
X145541943Y-113885300D01*
X145597417Y-113714568D01*
X145625500Y-113537259D01*
X145625500Y-113357741D01*
X145597417Y-113180432D01*
X145559342Y-113063249D01*
X145541944Y-113009702D01*
X145518925Y-112964525D01*
X145460443Y-112849748D01*
X145432659Y-112811506D01*
X145354930Y-112704519D01*
X145227980Y-112577569D01*
X145082755Y-112472059D01*
X145082754Y-112472058D01*
X145082752Y-112472057D01*
X144966252Y-112412697D01*
X144922797Y-112390555D01*
X144752069Y-112335083D01*
X144663413Y-112321041D01*
X144574759Y-112307000D01*
X144395241Y-112307000D01*
X144351979Y-112313852D01*
X144217930Y-112335083D01*
X144047202Y-112390555D01*
X143887244Y-112472059D01*
X143742019Y-112577569D01*
X143615073Y-112704515D01*
X143615069Y-112704520D01*
X143599818Y-112725512D01*
X143544488Y-112768178D01*
X143474875Y-112774157D01*
X143413080Y-112741551D01*
X143378723Y-112680713D01*
X143375500Y-112652627D01*
X143375500Y-111702372D01*
X143395185Y-111635333D01*
X143447989Y-111589578D01*
X143517147Y-111579634D01*
X143580703Y-111608659D01*
X143599819Y-111629488D01*
X143615072Y-111650482D01*
X143615073Y-111650484D01*
X143742019Y-111777430D01*
X143867790Y-111868806D01*
X143887248Y-111882943D01*
X144047200Y-111964443D01*
X144047202Y-111964444D01*
X144093559Y-111979506D01*
X144217932Y-112019917D01*
X144395241Y-112048000D01*
X144395242Y-112048000D01*
X144574758Y-112048000D01*
X144574759Y-112048000D01*
X144752068Y-112019917D01*
X144922800Y-111964443D01*
X145082752Y-111882943D01*
X145201276Y-111796831D01*
X145227980Y-111777430D01*
X145227982Y-111777427D01*
X145227986Y-111777425D01*
X145354925Y-111650486D01*
X145354927Y-111650482D01*
X145354930Y-111650480D01*
X145406402Y-111579634D01*
X145460443Y-111505252D01*
X145541943Y-111345300D01*
X145597417Y-111174568D01*
X145625500Y-110997259D01*
X145625500Y-110817741D01*
X145597417Y-110640432D01*
X145549018Y-110491477D01*
X145547024Y-110421638D01*
X145579267Y-110365482D01*
X146317078Y-109627673D01*
X146368489Y-109538627D01*
X146395100Y-109439310D01*
X146395100Y-109336490D01*
X146395100Y-108944437D01*
X146414785Y-108877398D01*
X146467589Y-108831643D01*
X146536747Y-108821699D01*
X146600303Y-108850724D01*
G37*
%TD.AperFunction*%
%TA.AperFunction,Conductor*%
G36*
X150474216Y-113724399D02*
G01*
X150480694Y-113730431D01*
X151031694Y-114281431D01*
X151031704Y-114281442D01*
X151036034Y-114285772D01*
X151036035Y-114285773D01*
X151108740Y-114358478D01*
X151197785Y-114409888D01*
X151197790Y-114409889D01*
X151205292Y-114412997D01*
X151204676Y-114414483D01*
X151256291Y-114445944D01*
X151286819Y-114508791D01*
X151280318Y-114563156D01*
X151283280Y-114563962D01*
X151280831Y-114572962D01*
X151278013Y-114597250D01*
X151278013Y-116383990D01*
X151278015Y-116384013D01*
X151280830Y-116408284D01*
X151280831Y-116408287D01*
X151324699Y-116507640D01*
X151324700Y-116507641D01*
X151401497Y-116584438D01*
X151500851Y-116628307D01*
X151525140Y-116631125D01*
X153311885Y-116631124D01*
X153336175Y-116628307D01*
X153435529Y-116584438D01*
X153512326Y-116507641D01*
X153556195Y-116408287D01*
X153559013Y-116383998D01*
X153559013Y-116115632D01*
X153578698Y-116048593D01*
X153631502Y-116002838D01*
X153700660Y-115992894D01*
X153764216Y-116021919D01*
X153770694Y-116027951D01*
X154340282Y-116597539D01*
X154373767Y-116658862D01*
X154376601Y-116685220D01*
X154376601Y-116885600D01*
X154392380Y-116985228D01*
X154392381Y-116985231D01*
X154392382Y-116985233D01*
X154427101Y-117053372D01*
X154453574Y-117105328D01*
X154453577Y-117105332D01*
X154548875Y-117200630D01*
X154548878Y-117200632D01*
X154548881Y-117200635D01*
X154668975Y-117261826D01*
X154668977Y-117261826D01*
X154668979Y-117261827D01*
X154768608Y-117277607D01*
X154768613Y-117277607D01*
X155105594Y-117277607D01*
X155205222Y-117261827D01*
X155205222Y-117261826D01*
X155205227Y-117261826D01*
X155325321Y-117200635D01*
X155329916Y-117196040D01*
X155391238Y-117162552D01*
X155460930Y-117167533D01*
X155516865Y-117209402D01*
X155541285Y-117274866D01*
X155541601Y-117283717D01*
X155541601Y-120159761D01*
X155568213Y-120259079D01*
X155605992Y-120324514D01*
X155619623Y-120348124D01*
X155669413Y-120397914D01*
X155673039Y-120402271D01*
X155684755Y-120429342D01*
X155698892Y-120455231D01*
X155698476Y-120461043D01*
X155700791Y-120466392D01*
X155696012Y-120495497D01*
X155693908Y-120524923D01*
X155689555Y-120534824D01*
X155689471Y-120535339D01*
X155689194Y-120535645D01*
X155688212Y-120537881D01*
X155679046Y-120555869D01*
X155679046Y-120555871D01*
X155616277Y-120749052D01*
X155616277Y-120749055D01*
X155584500Y-120949685D01*
X155584500Y-121152814D01*
X155616277Y-121353444D01*
X155616277Y-121353447D01*
X155679045Y-121546627D01*
X155679047Y-121546630D01*
X155769599Y-121724348D01*
X155771268Y-121727622D01*
X155890656Y-121891947D01*
X155890660Y-121891952D01*
X155974027Y-121975319D01*
X156007512Y-122036642D01*
X156002528Y-122106334D01*
X155960656Y-122162267D01*
X155895192Y-122186684D01*
X155886346Y-122187000D01*
X154208560Y-122187000D01*
X154141521Y-122167315D01*
X154120879Y-122150681D01*
X153660756Y-121690559D01*
X153706574Y-121671581D01*
X153821223Y-121594975D01*
X153918725Y-121497473D01*
X153995331Y-121382824D01*
X154014309Y-121337006D01*
X154454474Y-121777171D01*
X154486859Y-121732599D01*
X154579755Y-121550281D01*
X154642990Y-121355667D01*
X154675000Y-121153567D01*
X154675000Y-120948932D01*
X154642990Y-120746832D01*
X154579755Y-120552218D01*
X154486859Y-120369900D01*
X154454474Y-120325327D01*
X154454474Y-120325326D01*
X154014308Y-120765492D01*
X153995331Y-120719676D01*
X153918725Y-120605027D01*
X153821223Y-120507525D01*
X153706574Y-120430919D01*
X153660755Y-120411940D01*
X154100922Y-119971774D01*
X154100921Y-119971773D01*
X154056359Y-119939397D01*
X154056350Y-119939391D01*
X153874031Y-119846494D01*
X153679417Y-119783259D01*
X153477317Y-119751250D01*
X153272683Y-119751250D01*
X153070582Y-119783259D01*
X152875968Y-119846494D01*
X152693644Y-119939393D01*
X152649077Y-119971773D01*
X152649077Y-119971774D01*
X153089244Y-120411940D01*
X153043426Y-120430919D01*
X152928777Y-120507525D01*
X152831275Y-120605027D01*
X152754669Y-120719676D01*
X152735690Y-120765493D01*
X152295524Y-120325327D01*
X152295523Y-120325327D01*
X152263143Y-120369894D01*
X152170244Y-120552218D01*
X152107009Y-120746832D01*
X152075000Y-120948932D01*
X152075000Y-121153567D01*
X152107009Y-121355667D01*
X152170244Y-121550281D01*
X152263141Y-121732600D01*
X152263147Y-121732609D01*
X152295523Y-121777171D01*
X152295524Y-121777172D01*
X152735690Y-121337005D01*
X152754669Y-121382824D01*
X152831275Y-121497473D01*
X152928777Y-121594975D01*
X153043426Y-121671581D01*
X153089243Y-121690558D01*
X152629120Y-122150681D01*
X152567797Y-122184166D01*
X152541439Y-122187000D01*
X150863654Y-122187000D01*
X150796615Y-122167315D01*
X150750860Y-122114511D01*
X150740916Y-122045353D01*
X150769941Y-121981797D01*
X150775973Y-121975319D01*
X150813867Y-121937425D01*
X150859338Y-121891954D01*
X150978734Y-121727619D01*
X151070953Y-121546630D01*
X151124177Y-121382824D01*
X151133722Y-121353447D01*
X151133722Y-121353446D01*
X151133723Y-121353443D01*
X151165500Y-121152815D01*
X151165500Y-120949685D01*
X151133723Y-120749057D01*
X151133722Y-120749053D01*
X151133722Y-120749052D01*
X151070954Y-120555872D01*
X151055468Y-120525480D01*
X150978734Y-120374881D01*
X150924848Y-120300713D01*
X150859343Y-120210552D01*
X150859339Y-120210547D01*
X150715702Y-120066910D01*
X150715697Y-120066906D01*
X150551372Y-119947518D01*
X150551371Y-119947517D01*
X150551369Y-119947516D01*
X150460874Y-119901406D01*
X150370377Y-119855295D01*
X150354695Y-119850200D01*
X150297020Y-119810763D01*
X150269821Y-119746404D01*
X150269013Y-119732269D01*
X150269013Y-116647656D01*
X150288698Y-116580617D01*
X150336718Y-116537171D01*
X150476265Y-116466068D01*
X150578524Y-116391773D01*
X150621493Y-116360555D01*
X150621495Y-116360552D01*
X150621499Y-116360550D01*
X150748438Y-116233611D01*
X150748440Y-116233607D01*
X150748443Y-116233605D01*
X150816477Y-116139963D01*
X150853956Y-116088377D01*
X150935456Y-115928425D01*
X150990930Y-115757693D01*
X151019013Y-115580384D01*
X151019013Y-115400866D01*
X150990930Y-115223557D01*
X150949870Y-115097187D01*
X150935457Y-115052827D01*
X150917590Y-115017762D01*
X150853956Y-114892873D01*
X150828991Y-114858511D01*
X150748443Y-114747644D01*
X150621493Y-114620694D01*
X150476268Y-114515184D01*
X150476267Y-114515183D01*
X150476265Y-114515182D01*
X150336717Y-114444078D01*
X150285922Y-114396104D01*
X150269013Y-114333594D01*
X150269013Y-113818112D01*
X150288698Y-113751073D01*
X150341502Y-113705318D01*
X150410660Y-113695374D01*
X150474216Y-113724399D01*
G37*
%TD.AperFunction*%
%TA.AperFunction,Conductor*%
G36*
X156527804Y-118091501D02*
G01*
X156534282Y-118097533D01*
X157446922Y-119010173D01*
X157519627Y-119082878D01*
X157608672Y-119134288D01*
X157707990Y-119160900D01*
X157796846Y-119160900D01*
X157863885Y-119180585D01*
X157884527Y-119197219D01*
X157930225Y-119242917D01*
X157930226Y-119242918D01*
X157930228Y-119242919D01*
X158064872Y-119320656D01*
X158064873Y-119320656D01*
X158064876Y-119320658D01*
X158215059Y-119360900D01*
X158215062Y-119360900D01*
X158370538Y-119360900D01*
X158370541Y-119360900D01*
X158520724Y-119320658D01*
X158655375Y-119242917D01*
X158765317Y-119132975D01*
X158843058Y-118998324D01*
X158883300Y-118848141D01*
X158883300Y-118692659D01*
X158843058Y-118542476D01*
X158843056Y-118542473D01*
X158843056Y-118542471D01*
X158839946Y-118534962D01*
X158841177Y-118534451D01*
X158826698Y-118474773D01*
X158849549Y-118408746D01*
X158904469Y-118365554D01*
X158974023Y-118358911D01*
X159036126Y-118390926D01*
X159038239Y-118392990D01*
X161170729Y-120525480D01*
X161204214Y-120586803D01*
X161200979Y-120651478D01*
X161152583Y-120800428D01*
X161124500Y-120977741D01*
X161124500Y-121157258D01*
X161152583Y-121334569D01*
X161208055Y-121505297D01*
X161289559Y-121665255D01*
X161395069Y-121810480D01*
X161522015Y-121937426D01*
X161522020Y-121937430D01*
X161556776Y-121962682D01*
X161599442Y-122018012D01*
X161605421Y-122087625D01*
X161572815Y-122149420D01*
X161511977Y-122183777D01*
X161483891Y-122187000D01*
X157863654Y-122187000D01*
X157796615Y-122167315D01*
X157750860Y-122114511D01*
X157740916Y-122045353D01*
X157769941Y-121981797D01*
X157775973Y-121975319D01*
X157813867Y-121937425D01*
X157859338Y-121891954D01*
X157978734Y-121727619D01*
X158070953Y-121546630D01*
X158124177Y-121382824D01*
X158133722Y-121353447D01*
X158133722Y-121353446D01*
X158133723Y-121353443D01*
X158165500Y-121152815D01*
X158165500Y-120949685D01*
X158133723Y-120749057D01*
X158133722Y-120749053D01*
X158133722Y-120749052D01*
X158070954Y-120555872D01*
X158055468Y-120525480D01*
X157978734Y-120374881D01*
X157924848Y-120300713D01*
X157859343Y-120210552D01*
X157859339Y-120210547D01*
X157715702Y-120066910D01*
X157715697Y-120066906D01*
X157551372Y-119947518D01*
X157551371Y-119947517D01*
X157551369Y-119947516D01*
X157460874Y-119901406D01*
X157370377Y-119855295D01*
X157177196Y-119792527D01*
X157026722Y-119768694D01*
X156976565Y-119760750D01*
X156773435Y-119760750D01*
X156706559Y-119771342D01*
X156572805Y-119792527D01*
X156572798Y-119792528D01*
X156484918Y-119821082D01*
X156415077Y-119823077D01*
X156355244Y-119786996D01*
X156324417Y-119724295D01*
X156322601Y-119703151D01*
X156322601Y-118185214D01*
X156342286Y-118118175D01*
X156395090Y-118072420D01*
X156464248Y-118062476D01*
X156527804Y-118091501D01*
G37*
%TD.AperFunction*%
%TA.AperFunction,Conductor*%
G36*
X157673039Y-116337685D02*
G01*
X157718794Y-116390489D01*
X157730000Y-116442000D01*
X157730000Y-117143000D01*
X157759572Y-117143000D01*
X157845953Y-117132627D01*
X157849507Y-117131729D01*
X157852490Y-117131842D01*
X157853851Y-117131679D01*
X157853876Y-117131895D01*
X157919326Y-117134382D01*
X157976628Y-117174360D01*
X157996850Y-117210730D01*
X158003900Y-117230733D01*
X158003900Y-117248310D01*
X158030512Y-117347628D01*
X158062205Y-117402522D01*
X158067950Y-117412472D01*
X158081921Y-117436672D01*
X158670209Y-118024960D01*
X158703694Y-118086283D01*
X158698710Y-118155975D01*
X158656838Y-118211908D01*
X158591374Y-118236325D01*
X158528490Y-118222645D01*
X158528238Y-118223254D01*
X158524863Y-118221856D01*
X158523101Y-118221473D01*
X158520748Y-118220151D01*
X158520728Y-118220143D01*
X158498007Y-118214055D01*
X158370541Y-118179900D01*
X158215059Y-118179900D01*
X158087593Y-118214055D01*
X158064872Y-118220143D01*
X157954876Y-118283650D01*
X157886976Y-118300123D01*
X157820949Y-118277270D01*
X157805195Y-118263944D01*
X157130819Y-117589568D01*
X157116115Y-117562640D01*
X157099523Y-117536822D01*
X157098631Y-117530621D01*
X157097334Y-117528245D01*
X157094500Y-117501887D01*
X157094500Y-117267000D01*
X157114185Y-117199961D01*
X157166989Y-117154206D01*
X157218500Y-117143000D01*
X157230000Y-117143000D01*
X157230000Y-116442000D01*
X157249685Y-116374961D01*
X157302489Y-116329206D01*
X157354000Y-116318000D01*
X157606000Y-116318000D01*
X157673039Y-116337685D01*
G37*
%TD.AperFunction*%
%TA.AperFunction,Conductor*%
G36*
X160056903Y-111790799D02*
G01*
X160063378Y-111796828D01*
X160619460Y-112352911D01*
X161171048Y-112904499D01*
X161204533Y-112965822D01*
X161201298Y-113030497D01*
X161152583Y-113180428D01*
X161124500Y-113357741D01*
X161124500Y-113537258D01*
X161152583Y-113714569D01*
X161208055Y-113885297D01*
X161236916Y-113941939D01*
X161287957Y-114042112D01*
X161289559Y-114045255D01*
X161395069Y-114190480D01*
X161522019Y-114317430D01*
X161649276Y-114409886D01*
X161667248Y-114422943D01*
X161827200Y-114504443D01*
X161827202Y-114504444D01*
X161912566Y-114532180D01*
X161997932Y-114559917D01*
X162175241Y-114588000D01*
X162175242Y-114588000D01*
X162354758Y-114588000D01*
X162354759Y-114588000D01*
X162532068Y-114559917D01*
X162702800Y-114504443D01*
X162862752Y-114422943D01*
X162959775Y-114352452D01*
X163007980Y-114317430D01*
X163007982Y-114317427D01*
X163007986Y-114317425D01*
X163134925Y-114190486D01*
X163150181Y-114169488D01*
X163205510Y-114126822D01*
X163275123Y-114120841D01*
X163336919Y-114153446D01*
X163371277Y-114214284D01*
X163374500Y-114242372D01*
X163374500Y-115245638D01*
X163354815Y-115312677D01*
X163302011Y-115358432D01*
X163240773Y-115369256D01*
X163237086Y-115368965D01*
X162747962Y-115858089D01*
X162730925Y-115794507D01*
X162665099Y-115680493D01*
X162572007Y-115587401D01*
X162457993Y-115521575D01*
X162394409Y-115504537D01*
X162883533Y-115015413D01*
X162867730Y-115003931D01*
X162706447Y-114921752D01*
X162706444Y-114921751D01*
X162534293Y-114865817D01*
X162355506Y-114837500D01*
X162174494Y-114837500D01*
X161995706Y-114865817D01*
X161823555Y-114921751D01*
X161823547Y-114921754D01*
X161662269Y-115003932D01*
X161646466Y-115015412D01*
X161646466Y-115015413D01*
X162135591Y-115504537D01*
X162072007Y-115521575D01*
X161957993Y-115587401D01*
X161864901Y-115680493D01*
X161799075Y-115794507D01*
X161782037Y-115858090D01*
X161292913Y-115368966D01*
X161292912Y-115368966D01*
X161281432Y-115384769D01*
X161199254Y-115546047D01*
X161199251Y-115546055D01*
X161143317Y-115718206D01*
X161115000Y-115896993D01*
X161115000Y-116078006D01*
X161143317Y-116256793D01*
X161199251Y-116428944D01*
X161199252Y-116428947D01*
X161281431Y-116590230D01*
X161292913Y-116606032D01*
X161292913Y-116606033D01*
X161782037Y-116116909D01*
X161799075Y-116180493D01*
X161864901Y-116294507D01*
X161957993Y-116387599D01*
X162072007Y-116453425D01*
X162135590Y-116470462D01*
X161646466Y-116959585D01*
X161646466Y-116959586D01*
X161662267Y-116971066D01*
X161662275Y-116971071D01*
X161823552Y-117053247D01*
X161823555Y-117053248D01*
X161995706Y-117109182D01*
X162174494Y-117137500D01*
X162355506Y-117137500D01*
X162534293Y-117109182D01*
X162706444Y-117053248D01*
X162706452Y-117053245D01*
X162867730Y-116971068D01*
X162883532Y-116959585D01*
X162883533Y-116959585D01*
X162394410Y-116470462D01*
X162457993Y-116453425D01*
X162572007Y-116387599D01*
X162665099Y-116294507D01*
X162730925Y-116180493D01*
X162747962Y-116116909D01*
X163237084Y-116606032D01*
X163240772Y-116605742D01*
X163309149Y-116620106D01*
X163358905Y-116669158D01*
X163374500Y-116729360D01*
X163374500Y-117732627D01*
X163354815Y-117799666D01*
X163302011Y-117845421D01*
X163232853Y-117855365D01*
X163169297Y-117826340D01*
X163150182Y-117805512D01*
X163134930Y-117784520D01*
X163134926Y-117784515D01*
X163007980Y-117657569D01*
X162862755Y-117552059D01*
X162862754Y-117552058D01*
X162862752Y-117552057D01*
X162782776Y-117511307D01*
X162702797Y-117470555D01*
X162532069Y-117415083D01*
X162443413Y-117401041D01*
X162354759Y-117387000D01*
X162175241Y-117387000D01*
X162139779Y-117392616D01*
X161997928Y-117415083D01*
X161848978Y-117463479D01*
X161779137Y-117465474D01*
X161722980Y-117433229D01*
X159888019Y-115598268D01*
X159854534Y-115536945D01*
X159851700Y-115510587D01*
X159851700Y-111884512D01*
X159871385Y-111817473D01*
X159924189Y-111771718D01*
X159993347Y-111761774D01*
X160056903Y-111790799D01*
G37*
%TD.AperFunction*%
%TA.AperFunction,Conductor*%
G36*
X156676861Y-114943355D02*
G01*
X156727264Y-114991742D01*
X156735021Y-115007885D01*
X156777936Y-115116711D01*
X156865638Y-115232362D01*
X156981289Y-115320064D01*
X156987566Y-115322539D01*
X157042710Y-115365444D01*
X157065904Y-115431352D01*
X157049784Y-115499337D01*
X156999467Y-115547814D01*
X156987569Y-115553248D01*
X156976588Y-115557578D01*
X156976586Y-115557579D01*
X156858858Y-115646855D01*
X156781870Y-115748379D01*
X156725677Y-115789902D01*
X156655956Y-115794453D01*
X156595385Y-115761134D01*
X156279980Y-115445729D01*
X156246495Y-115384406D01*
X156251479Y-115314714D01*
X156293351Y-115258781D01*
X156294027Y-115258278D01*
X156404065Y-115177065D01*
X156481932Y-115071560D01*
X156502625Y-115012423D01*
X156543346Y-114955647D01*
X156608299Y-114929899D01*
X156676861Y-114943355D01*
G37*
%TD.AperFunction*%
%TA.AperFunction,Conductor*%
G36*
X157754303Y-109885029D02*
G01*
X157775338Y-109883655D01*
X157788065Y-109890706D01*
X157802418Y-109893120D01*
X157818017Y-109907300D01*
X157836455Y-109917516D01*
X157844291Y-109931186D01*
X157854118Y-109940119D01*
X157868010Y-109972559D01*
X157869333Y-109977494D01*
X157878113Y-110010263D01*
X157878114Y-110010264D01*
X157920805Y-110084205D01*
X157920806Y-110084211D01*
X157920808Y-110084211D01*
X157929520Y-110099301D01*
X157929523Y-110099306D01*
X158627981Y-110797763D01*
X158661466Y-110859086D01*
X158664300Y-110885444D01*
X158664300Y-115097187D01*
X158644615Y-115164226D01*
X158627981Y-115184868D01*
X158214478Y-115598370D01*
X158186606Y-115613589D01*
X158159567Y-115630281D01*
X158156151Y-115630218D01*
X158153155Y-115631855D01*
X158121478Y-115629589D01*
X158089709Y-115629013D01*
X158085893Y-115627044D01*
X158083463Y-115626871D01*
X158057875Y-115613771D01*
X157949000Y-115540976D01*
X157934785Y-115523957D01*
X157917288Y-115510343D01*
X157912826Y-115497665D01*
X157904211Y-115487350D01*
X157901454Y-115465348D01*
X157894095Y-115444435D01*
X157897195Y-115431358D01*
X157895525Y-115418022D01*
X157905100Y-115398023D01*
X157910216Y-115376450D01*
X157919893Y-115367126D01*
X157925698Y-115355004D01*
X157944567Y-115343355D01*
X157960533Y-115327974D01*
X157972427Y-115322541D01*
X157978711Y-115320064D01*
X158094362Y-115232362D01*
X158182064Y-115116711D01*
X158235310Y-114981687D01*
X158245500Y-114896835D01*
X158245499Y-114239166D01*
X158235310Y-114154313D01*
X158182064Y-114019289D01*
X158182063Y-114019287D01*
X158149695Y-113976603D01*
X158124873Y-113911292D01*
X158124500Y-113901679D01*
X158124500Y-113637610D01*
X158144185Y-113570571D01*
X158160814Y-113549933D01*
X158242528Y-113468220D01*
X158303719Y-113348126D01*
X158308728Y-113316500D01*
X158319500Y-113248493D01*
X158319500Y-112811506D01*
X158303720Y-112711878D01*
X158303719Y-112711876D01*
X158303719Y-112711874D01*
X158242528Y-112591780D01*
X158242526Y-112591778D01*
X158242523Y-112591774D01*
X158147225Y-112496476D01*
X158147221Y-112496473D01*
X158147220Y-112496472D01*
X158027126Y-112435281D01*
X158027124Y-112435280D01*
X158027121Y-112435279D01*
X157927493Y-112419500D01*
X157927488Y-112419500D01*
X157621712Y-112419500D01*
X157554673Y-112399815D01*
X157508918Y-112347011D01*
X157498974Y-112277853D01*
X157527999Y-112214297D01*
X157546787Y-112196696D01*
X157570790Y-112178494D01*
X157640785Y-112125416D01*
X157730562Y-112007026D01*
X157785070Y-111868805D01*
X157795500Y-111781951D01*
X157795500Y-110797311D01*
X157785070Y-110710457D01*
X157746285Y-110612106D01*
X157730563Y-110572238D01*
X157730562Y-110572236D01*
X157724646Y-110564435D01*
X157640785Y-110453846D01*
X157522395Y-110364069D01*
X157522394Y-110364068D01*
X157385517Y-110310090D01*
X157330374Y-110267184D01*
X157307181Y-110201276D01*
X157323302Y-110133292D01*
X157373619Y-110084816D01*
X157385519Y-110079381D01*
X157527094Y-110023552D01*
X157647565Y-109932195D01*
X157649428Y-109929739D01*
X157651708Y-109928053D01*
X157653563Y-109926199D01*
X157653841Y-109926477D01*
X157661129Y-109921090D01*
X157669287Y-109909038D01*
X157688664Y-109900740D01*
X157705617Y-109888211D01*
X157720139Y-109887262D01*
X157733516Y-109881534D01*
X157754303Y-109885029D01*
G37*
%TD.AperFunction*%
%TA.AperFunction,Conductor*%
G36*
X156137259Y-109900741D02*
G01*
X156147840Y-109912952D01*
X156162431Y-109932193D01*
X156282905Y-110023552D01*
X156424480Y-110079381D01*
X156479625Y-110122287D01*
X156502818Y-110188195D01*
X156486698Y-110256179D01*
X156436381Y-110304656D01*
X156424482Y-110310090D01*
X156287605Y-110364068D01*
X156169215Y-110453846D01*
X156159763Y-110466310D01*
X156103569Y-110507832D01*
X156033848Y-110512382D01*
X155972735Y-110478515D01*
X155962158Y-110466309D01*
X155947565Y-110447066D01*
X155827095Y-110355710D01*
X155685518Y-110299880D01*
X155630374Y-110256974D01*
X155607181Y-110191066D01*
X155623301Y-110123082D01*
X155673618Y-110074605D01*
X155685502Y-110069177D01*
X155822395Y-110015193D01*
X155940785Y-109925416D01*
X155950233Y-109912955D01*
X156006423Y-109871432D01*
X156076144Y-109866878D01*
X156137259Y-109900741D01*
G37*
%TD.AperFunction*%
%TA.AperFunction,Conductor*%
G36*
X156140907Y-106404085D02*
G01*
X156164597Y-106425879D01*
X156165113Y-106425364D01*
X157769448Y-108029699D01*
X157802933Y-108091022D01*
X157797949Y-108160714D01*
X157756077Y-108216647D01*
X157690613Y-108241064D01*
X157622340Y-108226212D01*
X157606842Y-108216184D01*
X157527096Y-108155711D01*
X157527097Y-108155711D01*
X157386443Y-108100244D01*
X157298054Y-108089631D01*
X157155000Y-108089631D01*
X157155000Y-108965631D01*
X157135315Y-109032670D01*
X157082511Y-109078425D01*
X157031000Y-109089631D01*
X156779000Y-109089631D01*
X156711961Y-109069946D01*
X156666206Y-109017142D01*
X156655000Y-108965631D01*
X156655000Y-108089631D01*
X156511946Y-108089631D01*
X156423555Y-108100245D01*
X156277746Y-108157744D01*
X156208160Y-108164025D01*
X156146224Y-108131688D01*
X156111603Y-108070999D01*
X156115288Y-108001226D01*
X156132485Y-107968758D01*
X156155311Y-107937831D01*
X156173662Y-107885386D01*
X156198173Y-107815341D01*
X156198173Y-107815339D01*
X156200105Y-107794737D01*
X156200900Y-107786259D01*
X156200899Y-107402542D01*
X156198173Y-107373461D01*
X156155311Y-107250969D01*
X156114765Y-107196031D01*
X156090795Y-107130404D01*
X156106110Y-107062234D01*
X156114766Y-107048765D01*
X156163803Y-106982322D01*
X156198068Y-106884400D01*
X155724400Y-106884400D01*
X155657361Y-106864715D01*
X155611606Y-106811911D01*
X155600400Y-106760400D01*
X155600400Y-106508400D01*
X155620085Y-106441361D01*
X155672889Y-106395606D01*
X155724400Y-106384400D01*
X156073868Y-106384400D01*
X156140907Y-106404085D01*
G37*
%TD.AperFunction*%
%TA.AperFunction,Conductor*%
G36*
X146628834Y-106544431D02*
G01*
X146684767Y-106586303D01*
X146709184Y-106651767D01*
X146709500Y-106660613D01*
X146709500Y-106940885D01*
X146700855Y-106970325D01*
X146694332Y-107000312D01*
X146690577Y-107005327D01*
X146689815Y-107007924D01*
X146673181Y-107028566D01*
X146606781Y-107094966D01*
X146545458Y-107128451D01*
X146475766Y-107123467D01*
X146419833Y-107081595D01*
X146395416Y-107016131D01*
X146395100Y-107007285D01*
X146395100Y-106727013D01*
X146414785Y-106659974D01*
X146431419Y-106639332D01*
X146497819Y-106572932D01*
X146559142Y-106539447D01*
X146628834Y-106544431D01*
G37*
%TD.AperFunction*%
%TA.AperFunction,Conductor*%
G36*
X155526966Y-103599813D02*
G01*
X155571314Y-103628314D01*
X155749506Y-103806506D01*
X155782991Y-103867829D01*
X155778007Y-103937521D01*
X155749506Y-103981868D01*
X155414571Y-104316802D01*
X155414571Y-104316803D01*
X155508040Y-104361815D01*
X155639197Y-104381584D01*
X155770354Y-104361815D01*
X155889862Y-104304264D01*
X155896214Y-104300190D01*
X155896916Y-104301285D01*
X155953891Y-104276764D01*
X156022815Y-104288224D01*
X156074601Y-104335128D01*
X156092838Y-104399860D01*
X156092838Y-105047113D01*
X156073153Y-105114152D01*
X156020349Y-105159907D01*
X155951191Y-105169851D01*
X155906844Y-105154504D01*
X155902368Y-105151920D01*
X155902365Y-105151919D01*
X155790331Y-105121900D01*
X155674345Y-105121900D01*
X155598303Y-105142275D01*
X155566210Y-105146500D01*
X155380022Y-105146500D01*
X155380006Y-105146499D01*
X155372410Y-105146499D01*
X155269590Y-105146499D01*
X155170273Y-105173111D01*
X155170271Y-105173111D01*
X155170271Y-105173112D01*
X155081227Y-105224522D01*
X155069622Y-105236127D01*
X155008298Y-105269610D01*
X154938606Y-105264624D01*
X154920408Y-105251000D01*
X154555000Y-105251000D01*
X154555000Y-105582790D01*
X154585415Y-105632797D01*
X154583686Y-105702645D01*
X154553291Y-105752457D01*
X154293827Y-106011922D01*
X154221123Y-106084625D01*
X154221119Y-106084630D01*
X154169713Y-106173669D01*
X154169713Y-106173670D01*
X154169712Y-106173672D01*
X154162786Y-106199516D01*
X154126423Y-106259175D01*
X154063576Y-106289704D01*
X153994200Y-106281409D01*
X153940323Y-106236924D01*
X153919048Y-106170372D01*
X153919013Y-106167421D01*
X153919013Y-105701888D01*
X153938698Y-105634849D01*
X153991502Y-105589094D01*
X154054566Y-105578427D01*
X154055000Y-105578467D01*
X154055000Y-105125000D01*
X154074685Y-105057961D01*
X154127489Y-105012206D01*
X154179000Y-105001000D01*
X154305000Y-105001000D01*
X154305000Y-104875000D01*
X154324685Y-104807961D01*
X154377489Y-104762206D01*
X154429000Y-104751000D01*
X154902668Y-104751000D01*
X154868403Y-104653077D01*
X154819366Y-104586635D01*
X154795395Y-104521007D01*
X154810710Y-104452836D01*
X154819362Y-104439372D01*
X154859911Y-104384431D01*
X154889005Y-104301285D01*
X154902773Y-104261941D01*
X154902773Y-104261939D01*
X154902822Y-104261417D01*
X154905500Y-104232859D01*
X154905499Y-104083668D01*
X154925183Y-104016631D01*
X154977987Y-103970876D01*
X155047145Y-103960932D01*
X155050270Y-103961422D01*
X155061018Y-103963248D01*
X155395952Y-103628314D01*
X155457275Y-103594829D01*
X155526966Y-103599813D01*
G37*
%TD.AperFunction*%
%TA.AperFunction,Conductor*%
G36*
X151794503Y-103888782D02*
G01*
X151840258Y-103941586D01*
X151851464Y-103993097D01*
X151851464Y-104769097D01*
X151900485Y-104769097D01*
X151967524Y-104788782D01*
X152013279Y-104841586D01*
X152021119Y-104893880D01*
X152024382Y-104893880D01*
X152024382Y-104902007D01*
X152024382Y-105017993D01*
X152028303Y-105032627D01*
X152054401Y-105130028D01*
X152079276Y-105173111D01*
X152112394Y-105230473D01*
X152112396Y-105230475D01*
X152118802Y-105236881D01*
X152152287Y-105298204D01*
X152147303Y-105367896D01*
X152105431Y-105423829D01*
X152093123Y-105431948D01*
X152031530Y-105467510D01*
X152031524Y-105467514D01*
X151949514Y-105549524D01*
X151949510Y-105549530D01*
X151942615Y-105561472D01*
X151892046Y-105609686D01*
X151823439Y-105622906D01*
X151758575Y-105596936D01*
X151727843Y-105561468D01*
X151673597Y-105467512D01*
X151651030Y-105428425D01*
X151541088Y-105318483D01*
X151541086Y-105318482D01*
X151541084Y-105318480D01*
X151406440Y-105240743D01*
X151406441Y-105240743D01*
X151389214Y-105236127D01*
X151256254Y-105200500D01*
X151100772Y-105200500D01*
X151086041Y-105204447D01*
X151016191Y-105202782D01*
X150958330Y-105163618D01*
X150936686Y-105124980D01*
X150933168Y-105114746D01*
X150919013Y-105025373D01*
X150868097Y-104925446D01*
X150865269Y-104917217D01*
X150864059Y-104890662D01*
X150859153Y-104864534D01*
X150862495Y-104856299D01*
X150862091Y-104847420D01*
X150875430Y-104824427D01*
X150885429Y-104799793D01*
X150892694Y-104794671D01*
X150897154Y-104786985D01*
X150920804Y-104774855D01*
X150942536Y-104759536D01*
X150951416Y-104759155D01*
X150959324Y-104755100D01*
X150985779Y-104757682D01*
X151012341Y-104756544D01*
X151012924Y-104756690D01*
X151020014Y-104758482D01*
X151108410Y-104769097D01*
X151351464Y-104769097D01*
X151351464Y-103993097D01*
X151371149Y-103926058D01*
X151423953Y-103880303D01*
X151475464Y-103869097D01*
X151727464Y-103869097D01*
X151794503Y-103888782D01*
G37*
%TD.AperFunction*%
%TA.AperFunction,Conductor*%
G36*
X144019075Y-103480493D02*
G01*
X144084901Y-103594507D01*
X144177993Y-103687599D01*
X144292007Y-103753425D01*
X144355589Y-103770462D01*
X143866466Y-104259585D01*
X143866466Y-104259586D01*
X143882267Y-104271066D01*
X143882275Y-104271071D01*
X144043552Y-104353247D01*
X144043555Y-104353248D01*
X144215706Y-104409182D01*
X144394494Y-104437500D01*
X144575506Y-104437500D01*
X144754293Y-104409182D01*
X144926444Y-104353248D01*
X144926447Y-104353247D01*
X145087734Y-104271065D01*
X145157815Y-104220150D01*
X145169674Y-104215918D01*
X145179189Y-104207674D01*
X145201955Y-104204400D01*
X145223621Y-104196670D01*
X145235884Y-104199521D01*
X145248347Y-104197730D01*
X145269272Y-104207286D01*
X145291675Y-104212496D01*
X145300448Y-104221524D01*
X145311903Y-104226755D01*
X145324339Y-104246107D01*
X145340370Y-104262602D01*
X145343773Y-104276347D01*
X145349677Y-104285533D01*
X145354700Y-104320468D01*
X145354700Y-104354186D01*
X145335015Y-104421225D01*
X145318381Y-104441867D01*
X145027018Y-104733229D01*
X144965695Y-104766714D01*
X144901019Y-104763479D01*
X144752069Y-104715083D01*
X144623116Y-104694659D01*
X144574759Y-104687000D01*
X144395241Y-104687000D01*
X144346890Y-104694658D01*
X144217930Y-104715083D01*
X144047202Y-104770555D01*
X143887244Y-104852059D01*
X143742019Y-104957569D01*
X143615073Y-105084515D01*
X143615069Y-105084520D01*
X143599818Y-105105512D01*
X143544488Y-105148178D01*
X143474875Y-105154157D01*
X143413080Y-105121551D01*
X143378723Y-105060713D01*
X143375500Y-105032627D01*
X143375500Y-104029361D01*
X143395185Y-103962322D01*
X143447989Y-103916567D01*
X143509229Y-103905743D01*
X143512913Y-103906033D01*
X144002037Y-103416908D01*
X144019075Y-103480493D01*
G37*
%TD.AperFunction*%
%TA.AperFunction,Conductor*%
G36*
X153494503Y-103518782D02*
G01*
X153540258Y-103571586D01*
X153551464Y-103623097D01*
X153551464Y-104076564D01*
X153561708Y-104075606D01*
X153561828Y-104076892D01*
X153623738Y-104081269D01*
X153679706Y-104123094D01*
X153704177Y-104188538D01*
X153704500Y-104197483D01*
X153704500Y-104232851D01*
X153704501Y-104232858D01*
X153707227Y-104261939D01*
X153707227Y-104261941D01*
X153707228Y-104261944D01*
X153749367Y-104382368D01*
X153750089Y-104384431D01*
X153789256Y-104437500D01*
X153790633Y-104439366D01*
X153799419Y-104463421D01*
X153811847Y-104485818D01*
X153811207Y-104495697D01*
X153814604Y-104504995D01*
X153808990Y-104529981D01*
X153807337Y-104555542D01*
X153800308Y-104568624D01*
X153799288Y-104573166D01*
X153790633Y-104586633D01*
X153774589Y-104608372D01*
X153718942Y-104650623D01*
X153649286Y-104656082D01*
X153587736Y-104623015D01*
X153567432Y-104596740D01*
X153566764Y-104595583D01*
X153513789Y-104503828D01*
X153431774Y-104421813D01*
X153362096Y-104381584D01*
X153331329Y-104363820D01*
X153275311Y-104348810D01*
X153219294Y-104333801D01*
X153103308Y-104333801D01*
X152991272Y-104363820D01*
X152890828Y-104421813D01*
X152890825Y-104421815D01*
X152808815Y-104503825D01*
X152808810Y-104503831D01*
X152807549Y-104506017D01*
X152806002Y-104507491D01*
X152803865Y-104510277D01*
X152803430Y-104509943D01*
X152801109Y-104512156D01*
X152797824Y-104520422D01*
X152776216Y-104535889D01*
X152756979Y-104554230D01*
X152748243Y-104555913D01*
X152741010Y-104561091D01*
X152714468Y-104562420D01*
X152688371Y-104567449D01*
X152678271Y-104564234D01*
X152671228Y-104564587D01*
X152639014Y-104551737D01*
X152638430Y-104551551D01*
X152638166Y-104551399D01*
X152634909Y-104549519D01*
X152634874Y-104549509D01*
X152627926Y-104545521D01*
X152609047Y-104525819D01*
X152587800Y-104508695D01*
X152585225Y-104500958D01*
X152579586Y-104495073D01*
X152574356Y-104468292D01*
X152565740Y-104442399D01*
X152567404Y-104432699D01*
X152566194Y-104426498D01*
X152570198Y-104416422D01*
X152574307Y-104392489D01*
X152590850Y-104350540D01*
X152601464Y-104262150D01*
X152601464Y-104037742D01*
X152621149Y-103970703D01*
X152673953Y-103924948D01*
X152743111Y-103915004D01*
X152806667Y-103944029D01*
X152813145Y-103950061D01*
X152816820Y-103953736D01*
X152923544Y-104032502D01*
X153048735Y-104076309D01*
X153048733Y-104076309D01*
X153051464Y-104076564D01*
X153051464Y-103623097D01*
X153071149Y-103556058D01*
X153123953Y-103510303D01*
X153175464Y-103499097D01*
X153427464Y-103499097D01*
X153494503Y-103518782D01*
G37*
%TD.AperFunction*%
%TA.AperFunction,Conductor*%
G36*
X143580703Y-101448659D02*
G01*
X143599819Y-101469488D01*
X143615072Y-101490482D01*
X143615073Y-101490484D01*
X143742019Y-101617430D01*
X143870614Y-101710858D01*
X143887248Y-101722943D01*
X143992903Y-101776777D01*
X144047202Y-101804444D01*
X144132566Y-101832180D01*
X144217932Y-101859917D01*
X144395241Y-101888000D01*
X144395242Y-101888000D01*
X144574758Y-101888000D01*
X144574759Y-101888000D01*
X144752068Y-101859917D01*
X144922800Y-101804443D01*
X145082752Y-101722943D01*
X145157815Y-101668406D01*
X145223621Y-101644927D01*
X145291675Y-101660752D01*
X145340370Y-101710858D01*
X145354700Y-101768725D01*
X145354700Y-102254531D01*
X145335015Y-102321570D01*
X145282211Y-102367325D01*
X145213053Y-102377269D01*
X145157816Y-102354850D01*
X145087733Y-102303933D01*
X144926447Y-102221752D01*
X144926444Y-102221751D01*
X144754293Y-102165817D01*
X144575506Y-102137500D01*
X144394494Y-102137500D01*
X144215706Y-102165817D01*
X144043555Y-102221751D01*
X144043547Y-102221754D01*
X143882269Y-102303932D01*
X143866466Y-102315412D01*
X143866466Y-102315413D01*
X144355590Y-102804537D01*
X144292007Y-102821575D01*
X144177993Y-102887401D01*
X144084901Y-102980493D01*
X144019075Y-103094507D01*
X144002037Y-103158090D01*
X143512913Y-102668966D01*
X143509229Y-102669256D01*
X143440852Y-102654892D01*
X143391095Y-102605840D01*
X143375500Y-102545638D01*
X143375500Y-101542372D01*
X143395185Y-101475333D01*
X143447989Y-101429578D01*
X143517147Y-101419634D01*
X143580703Y-101448659D01*
G37*
%TD.AperFunction*%
%TA.AperFunction,Conductor*%
G36*
X148633072Y-101161185D02*
G01*
X148678827Y-101213989D01*
X148688771Y-101283147D01*
X148659746Y-101346703D01*
X148640958Y-101364304D01*
X148558900Y-101426530D01*
X148467543Y-101547001D01*
X148412077Y-101687653D01*
X148401464Y-101776043D01*
X148401464Y-102000452D01*
X148381779Y-102067491D01*
X148328975Y-102113246D01*
X148259817Y-102123190D01*
X148196261Y-102094165D01*
X148189783Y-102088133D01*
X148186107Y-102084457D01*
X148079383Y-102005691D01*
X147954196Y-101961885D01*
X147954184Y-101961883D01*
X147924471Y-101959097D01*
X147889196Y-101959097D01*
X147822157Y-101939412D01*
X147776402Y-101886608D01*
X147766458Y-101817450D01*
X147785517Y-101772194D01*
X147783427Y-101770988D01*
X147830230Y-101689923D01*
X147865232Y-101629298D01*
X147905474Y-101479115D01*
X147905474Y-101414939D01*
X147914118Y-101385498D01*
X147920642Y-101355512D01*
X147924396Y-101350496D01*
X147925159Y-101347900D01*
X147941793Y-101327258D01*
X148091232Y-101177819D01*
X148152555Y-101144334D01*
X148178913Y-101141500D01*
X148566033Y-101141500D01*
X148633072Y-101161185D01*
G37*
%TD.AperFunction*%
%TA.AperFunction,Conductor*%
G36*
X160177426Y-96676185D02*
G01*
X160198068Y-96692819D01*
X161170729Y-97665480D01*
X161204214Y-97726803D01*
X161200979Y-97791478D01*
X161152583Y-97940428D01*
X161138475Y-98029506D01*
X161124500Y-98117741D01*
X161124500Y-98297259D01*
X161134358Y-98359500D01*
X161152583Y-98474569D01*
X161208055Y-98645297D01*
X161244216Y-98716265D01*
X161286745Y-98799734D01*
X161289559Y-98805255D01*
X161380056Y-98929815D01*
X161403536Y-98995621D01*
X161387710Y-99063675D01*
X161337604Y-99112370D01*
X161279738Y-99126700D01*
X160790222Y-99126700D01*
X160790206Y-99126699D01*
X160782610Y-99126699D01*
X160679790Y-99126699D01*
X160580473Y-99153311D01*
X160580471Y-99153311D01*
X160580471Y-99153312D01*
X160491427Y-99204722D01*
X160491423Y-99204725D01*
X160369962Y-99326184D01*
X160342231Y-99347047D01*
X160328985Y-99354362D01*
X160307872Y-99360020D01*
X160207426Y-99418013D01*
X160199638Y-99425800D01*
X160184293Y-99434276D01*
X160166554Y-99438224D01*
X160150596Y-99446920D01*
X160133158Y-99445657D01*
X160116093Y-99449456D01*
X160099036Y-99443187D01*
X160080909Y-99441875D01*
X160061510Y-99429396D01*
X160050512Y-99425354D01*
X160046046Y-99419448D01*
X160036663Y-99413412D01*
X159609933Y-98986682D01*
X159576448Y-98925359D01*
X159581432Y-98855667D01*
X159623304Y-98799734D01*
X159688768Y-98775317D01*
X159716095Y-98776386D01*
X159830198Y-98793584D01*
X159961354Y-98773815D01*
X160080859Y-98716265D01*
X160082965Y-98714520D01*
X160082965Y-98714519D01*
X159762315Y-98393869D01*
X159728830Y-98332546D01*
X159733814Y-98262854D01*
X159762315Y-98218507D01*
X159851411Y-98129411D01*
X159851410Y-98129410D01*
X160204965Y-98129410D01*
X160204965Y-98129411D01*
X160436519Y-98360965D01*
X160436520Y-98360965D01*
X160438265Y-98358859D01*
X160495815Y-98239354D01*
X160515584Y-98108198D01*
X160515584Y-98108197D01*
X160495815Y-97977040D01*
X160450803Y-97883572D01*
X160204965Y-98129410D01*
X159851410Y-98129410D01*
X159762314Y-98040314D01*
X159728829Y-97978991D01*
X159733813Y-97909299D01*
X159762314Y-97864952D01*
X160097248Y-97530018D01*
X160003780Y-97485005D01*
X159922123Y-97472698D01*
X159858766Y-97443242D01*
X159821392Y-97384208D01*
X159817989Y-97368564D01*
X159807813Y-97301051D01*
X159807813Y-97301050D01*
X159751506Y-97184127D01*
X159732871Y-97161636D01*
X159576944Y-97005710D01*
X159552471Y-96970918D01*
X159547732Y-96960868D01*
X159536477Y-96918861D01*
X159489811Y-96838034D01*
X159487620Y-96833386D01*
X159482989Y-96803750D01*
X159475917Y-96774600D01*
X159477651Y-96769589D01*
X159476833Y-96764354D01*
X159488958Y-96736919D01*
X159498770Y-96708573D01*
X159502935Y-96705296D01*
X159505079Y-96700448D01*
X159530112Y-96683924D01*
X159553691Y-96665382D01*
X159560066Y-96664153D01*
X159563391Y-96661959D01*
X159571997Y-96661853D01*
X159599777Y-96656500D01*
X160110387Y-96656500D01*
X160177426Y-96676185D01*
G37*
%TD.AperFunction*%
%TA.AperFunction,Conductor*%
G36*
X155008113Y-92921195D02*
G01*
X155035513Y-92933972D01*
X155085099Y-92940500D01*
X155207866Y-92940499D01*
X155213814Y-92941074D01*
X155240908Y-92951956D01*
X155268925Y-92960183D01*
X155272948Y-92964826D01*
X155278649Y-92967116D01*
X155289567Y-92976818D01*
X155516520Y-93203771D01*
X155516522Y-93203773D01*
X155589227Y-93276478D01*
X155678272Y-93327888D01*
X155777590Y-93354500D01*
X155777592Y-93354500D01*
X155960501Y-93354500D01*
X155961468Y-93354784D01*
X155962441Y-93354515D01*
X155994938Y-93364612D01*
X156027540Y-93374185D01*
X156028199Y-93374946D01*
X156029164Y-93375246D01*
X156051036Y-93401301D01*
X156073295Y-93426989D01*
X156073652Y-93428242D01*
X156074087Y-93428760D01*
X156074879Y-93432545D01*
X156083500Y-93462775D01*
X156084500Y-93470601D01*
X156084501Y-93539900D01*
X156091028Y-93589487D01*
X156102974Y-93615107D01*
X156105425Y-93634274D01*
X156102838Y-93650463D01*
X156105300Y-93666675D01*
X156094811Y-93702398D01*
X156091028Y-93710510D01*
X156091027Y-93710513D01*
X156084500Y-93760097D01*
X156084500Y-93939902D01*
X156091027Y-93989482D01*
X156091029Y-93989491D01*
X156094810Y-93997598D01*
X156105300Y-94066675D01*
X156094811Y-94102398D01*
X156091028Y-94110510D01*
X156091027Y-94110513D01*
X156084500Y-94160097D01*
X156084500Y-94339902D01*
X156091027Y-94389482D01*
X156091029Y-94389491D01*
X156094810Y-94397598D01*
X156105300Y-94466675D01*
X156094811Y-94502398D01*
X156091028Y-94510510D01*
X156091027Y-94510513D01*
X156084500Y-94560097D01*
X156084500Y-94739902D01*
X156091027Y-94789482D01*
X156091029Y-94789491D01*
X156094810Y-94797598D01*
X156105300Y-94866675D01*
X156094811Y-94902398D01*
X156091028Y-94910510D01*
X156091027Y-94910513D01*
X156084500Y-94960097D01*
X156084500Y-95139902D01*
X156091027Y-95189482D01*
X156091029Y-95189491D01*
X156094810Y-95197598D01*
X156105300Y-95266675D01*
X156094811Y-95302398D01*
X156091028Y-95310510D01*
X156091027Y-95310513D01*
X156084500Y-95360097D01*
X156084500Y-95539902D01*
X156091027Y-95589482D01*
X156091029Y-95589491D01*
X156094810Y-95597598D01*
X156105300Y-95666675D01*
X156094811Y-95702398D01*
X156091028Y-95710510D01*
X156091027Y-95710513D01*
X156084500Y-95760097D01*
X156084500Y-95939902D01*
X156091027Y-95989482D01*
X156091029Y-95989491D01*
X156094810Y-95997598D01*
X156105300Y-96066675D01*
X156094811Y-96102398D01*
X156091028Y-96110510D01*
X156091027Y-96110513D01*
X156084500Y-96160097D01*
X156084500Y-96339902D01*
X156089238Y-96375889D01*
X156091028Y-96389487D01*
X156093229Y-96394207D01*
X156094810Y-96397598D01*
X156105300Y-96466675D01*
X156094811Y-96502398D01*
X156091028Y-96510510D01*
X156091027Y-96510513D01*
X156084500Y-96560097D01*
X156084500Y-96739902D01*
X156091027Y-96789482D01*
X156091029Y-96789491D01*
X156094810Y-96797598D01*
X156105300Y-96866675D01*
X156094811Y-96902398D01*
X156091028Y-96910510D01*
X156091027Y-96910513D01*
X156084500Y-96960097D01*
X156084500Y-97139902D01*
X156091027Y-97189482D01*
X156091029Y-97189491D01*
X156094810Y-97197598D01*
X156105300Y-97266675D01*
X156094811Y-97302398D01*
X156091028Y-97310510D01*
X156091027Y-97310513D01*
X156084500Y-97360097D01*
X156084500Y-97539902D01*
X156091027Y-97589482D01*
X156091029Y-97589491D01*
X156094810Y-97597598D01*
X156105300Y-97666675D01*
X156094811Y-97702398D01*
X156091028Y-97710510D01*
X156091027Y-97710513D01*
X156084500Y-97760097D01*
X156084500Y-97939902D01*
X156091027Y-97989482D01*
X156091029Y-97989491D01*
X156094810Y-97997598D01*
X156105569Y-98064554D01*
X156103229Y-98084345D01*
X156091028Y-98110513D01*
X156084500Y-98160099D01*
X156084500Y-98242800D01*
X156083643Y-98250055D01*
X156072682Y-98275746D01*
X156064815Y-98302539D01*
X156059161Y-98307437D01*
X156056225Y-98314321D01*
X156033113Y-98330008D01*
X156012011Y-98348294D01*
X156003421Y-98350162D01*
X155998415Y-98353561D01*
X155986413Y-98353862D01*
X155960502Y-98359500D01*
X155885098Y-98359500D01*
X155835517Y-98366027D01*
X155835514Y-98366027D01*
X155835513Y-98366028D01*
X155835510Y-98366029D01*
X155835508Y-98366030D01*
X155827399Y-98369811D01*
X155758321Y-98380299D01*
X155722599Y-98369810D01*
X155714488Y-98366028D01*
X155714486Y-98366027D01*
X155664902Y-98359500D01*
X155485097Y-98359500D01*
X155435517Y-98366027D01*
X155435514Y-98366027D01*
X155435513Y-98366028D01*
X155435510Y-98366029D01*
X155435508Y-98366030D01*
X155427399Y-98369811D01*
X155358321Y-98380299D01*
X155322599Y-98369810D01*
X155314488Y-98366028D01*
X155314486Y-98366027D01*
X155264902Y-98359500D01*
X155085097Y-98359500D01*
X155035517Y-98366027D01*
X155035514Y-98366027D01*
X155035513Y-98366028D01*
X155035510Y-98366029D01*
X155035508Y-98366030D01*
X155027399Y-98369811D01*
X154958321Y-98380299D01*
X154922599Y-98369810D01*
X154914488Y-98366028D01*
X154914486Y-98366027D01*
X154864902Y-98359500D01*
X154685097Y-98359500D01*
X154635517Y-98366027D01*
X154635514Y-98366027D01*
X154635513Y-98366028D01*
X154635510Y-98366029D01*
X154635508Y-98366030D01*
X154627399Y-98369811D01*
X154558321Y-98380299D01*
X154522599Y-98369810D01*
X154514488Y-98366028D01*
X154514486Y-98366027D01*
X154464902Y-98359500D01*
X154285097Y-98359500D01*
X154235517Y-98366027D01*
X154235514Y-98366027D01*
X154235513Y-98366028D01*
X154235510Y-98366029D01*
X154235508Y-98366030D01*
X154227399Y-98369811D01*
X154158321Y-98380299D01*
X154122599Y-98369810D01*
X154114488Y-98366028D01*
X154114486Y-98366027D01*
X154064902Y-98359500D01*
X153885097Y-98359500D01*
X153835517Y-98366027D01*
X153835514Y-98366027D01*
X153835513Y-98366028D01*
X153835510Y-98366029D01*
X153835508Y-98366030D01*
X153827399Y-98369811D01*
X153758321Y-98380299D01*
X153722599Y-98369810D01*
X153714488Y-98366028D01*
X153714486Y-98366027D01*
X153664902Y-98359500D01*
X153485097Y-98359500D01*
X153435517Y-98366027D01*
X153435514Y-98366027D01*
X153435513Y-98366028D01*
X153435510Y-98366029D01*
X153435508Y-98366030D01*
X153427399Y-98369811D01*
X153358321Y-98380299D01*
X153322599Y-98369810D01*
X153314488Y-98366028D01*
X153314486Y-98366027D01*
X153264902Y-98359500D01*
X153085097Y-98359500D01*
X153035517Y-98366027D01*
X153035514Y-98366027D01*
X153035513Y-98366028D01*
X153035510Y-98366029D01*
X153035508Y-98366030D01*
X153027399Y-98369811D01*
X152958321Y-98380299D01*
X152922599Y-98369810D01*
X152914488Y-98366028D01*
X152914486Y-98366027D01*
X152864902Y-98359500D01*
X152685097Y-98359500D01*
X152635517Y-98366027D01*
X152635514Y-98366027D01*
X152635513Y-98366028D01*
X152635512Y-98366028D01*
X152626402Y-98368684D01*
X152625683Y-98366220D01*
X152570561Y-98374582D01*
X152532801Y-98363114D01*
X152526251Y-98359912D01*
X152526248Y-98359911D01*
X152458219Y-98350000D01*
X152291786Y-98350000D01*
X152223747Y-98359913D01*
X152223745Y-98359913D01*
X152217196Y-98363115D01*
X152148323Y-98374870D01*
X152123817Y-98367918D01*
X152123595Y-98368683D01*
X152114487Y-98366028D01*
X152114485Y-98366027D01*
X152114483Y-98366027D01*
X152064902Y-98359500D01*
X151885097Y-98359500D01*
X151835517Y-98366027D01*
X151835514Y-98366027D01*
X151835513Y-98366028D01*
X151835510Y-98366029D01*
X151835508Y-98366030D01*
X151827399Y-98369811D01*
X151758321Y-98380299D01*
X151722599Y-98369810D01*
X151714488Y-98366028D01*
X151714486Y-98366027D01*
X151664902Y-98359500D01*
X151485097Y-98359500D01*
X151435517Y-98366027D01*
X151435514Y-98366027D01*
X151435513Y-98366028D01*
X151435510Y-98366029D01*
X151435508Y-98366030D01*
X151427399Y-98369811D01*
X151358321Y-98380299D01*
X151322599Y-98369810D01*
X151314488Y-98366028D01*
X151314486Y-98366027D01*
X151264902Y-98359500D01*
X151085097Y-98359500D01*
X151035517Y-98366027D01*
X151035514Y-98366027D01*
X151035513Y-98366028D01*
X151035510Y-98366029D01*
X151035508Y-98366030D01*
X151027399Y-98369811D01*
X150960445Y-98380569D01*
X150940654Y-98378229D01*
X150914487Y-98366028D01*
X150864901Y-98359500D01*
X150782198Y-98359500D01*
X150774944Y-98358643D01*
X150749252Y-98347682D01*
X150722460Y-98339815D01*
X150717561Y-98334161D01*
X150710678Y-98331225D01*
X150694990Y-98308113D01*
X150676705Y-98287011D01*
X150674836Y-98278421D01*
X150671438Y-98273415D01*
X150671136Y-98261412D01*
X150665499Y-98235500D01*
X150665499Y-98160105D01*
X150665499Y-98160100D01*
X150658972Y-98110513D01*
X150658969Y-98110506D01*
X150655191Y-98102403D01*
X150644699Y-98033326D01*
X150655192Y-97997593D01*
X150658972Y-97989486D01*
X150660354Y-97978991D01*
X150665500Y-97939901D01*
X150665499Y-97760100D01*
X150658972Y-97710513D01*
X150658969Y-97710506D01*
X150655191Y-97702403D01*
X150644699Y-97633326D01*
X150655192Y-97597593D01*
X150658972Y-97589486D01*
X150663156Y-97557702D01*
X150665500Y-97539901D01*
X150665499Y-97360100D01*
X150658972Y-97310513D01*
X150658969Y-97310506D01*
X150655191Y-97302403D01*
X150644699Y-97233326D01*
X150655192Y-97197593D01*
X150658972Y-97189486D01*
X150658973Y-97189482D01*
X150665500Y-97139901D01*
X150665499Y-96960100D01*
X150658972Y-96910513D01*
X150658969Y-96910506D01*
X150655191Y-96902403D01*
X150644699Y-96833326D01*
X150655192Y-96797593D01*
X150658972Y-96789486D01*
X150661480Y-96770435D01*
X150665500Y-96739901D01*
X150665499Y-96560100D01*
X150658972Y-96510513D01*
X150658969Y-96510506D01*
X150655191Y-96502403D01*
X150644699Y-96433326D01*
X150655192Y-96397593D01*
X150656588Y-96394599D01*
X150658972Y-96389487D01*
X150665500Y-96339901D01*
X150665499Y-96160100D01*
X150658972Y-96110513D01*
X150658969Y-96110506D01*
X150655191Y-96102403D01*
X150644699Y-96033326D01*
X150655192Y-95997593D01*
X150658972Y-95989486D01*
X150658973Y-95989482D01*
X150665500Y-95939901D01*
X150665499Y-95760100D01*
X150658972Y-95710513D01*
X150658969Y-95710506D01*
X150655191Y-95702403D01*
X150644699Y-95633326D01*
X150655192Y-95597593D01*
X150658972Y-95589486D01*
X150660518Y-95577741D01*
X150665500Y-95539901D01*
X150665499Y-95360100D01*
X150658972Y-95310513D01*
X150658969Y-95310506D01*
X150655191Y-95302403D01*
X150644699Y-95233326D01*
X150655192Y-95197593D01*
X150658972Y-95189487D01*
X150665500Y-95139901D01*
X150665499Y-94960100D01*
X150658972Y-94910513D01*
X150658969Y-94910506D01*
X150655191Y-94902403D01*
X150644699Y-94833326D01*
X150655192Y-94797593D01*
X150658972Y-94789486D01*
X150658973Y-94789482D01*
X150665500Y-94739901D01*
X150665499Y-94560100D01*
X150658972Y-94510513D01*
X150657481Y-94507315D01*
X150655191Y-94502403D01*
X150644699Y-94433326D01*
X150655192Y-94397593D01*
X150658972Y-94389486D01*
X150660932Y-94374598D01*
X150665500Y-94339901D01*
X150665499Y-94160100D01*
X150658972Y-94110513D01*
X150658969Y-94110506D01*
X150655191Y-94102403D01*
X150644699Y-94033326D01*
X150655192Y-93997593D01*
X150658972Y-93989486D01*
X150658973Y-93989482D01*
X150665500Y-93939901D01*
X150665499Y-93760100D01*
X150658972Y-93710513D01*
X150658838Y-93710226D01*
X150655191Y-93702403D01*
X150644699Y-93633326D01*
X150655192Y-93597593D01*
X150658972Y-93589486D01*
X150659533Y-93585222D01*
X150665500Y-93539901D01*
X150665499Y-93360100D01*
X150658972Y-93310513D01*
X150658969Y-93310506D01*
X150655191Y-93302403D01*
X150644430Y-93235444D01*
X150646768Y-93215656D01*
X150658972Y-93189487D01*
X150665500Y-93139901D01*
X150665499Y-93057189D01*
X150666356Y-93049944D01*
X150677316Y-93024254D01*
X150685183Y-92997461D01*
X150690837Y-92992561D01*
X150693774Y-92985678D01*
X150716880Y-92969994D01*
X150737986Y-92951705D01*
X150746578Y-92949835D01*
X150751584Y-92946438D01*
X150763585Y-92946136D01*
X150789497Y-92940499D01*
X150864900Y-92940499D01*
X150914487Y-92933972D01*
X150922593Y-92930191D01*
X150991670Y-92919699D01*
X151027400Y-92930188D01*
X151035513Y-92933972D01*
X151085099Y-92940500D01*
X151264900Y-92940499D01*
X151314487Y-92933972D01*
X151322593Y-92930191D01*
X151391670Y-92919699D01*
X151427400Y-92930188D01*
X151435513Y-92933972D01*
X151485099Y-92940500D01*
X151664900Y-92940499D01*
X151714487Y-92933972D01*
X151722593Y-92930191D01*
X151791670Y-92919699D01*
X151827400Y-92930188D01*
X151835513Y-92933972D01*
X151885099Y-92940500D01*
X152064900Y-92940499D01*
X152114487Y-92933972D01*
X152122593Y-92930191D01*
X152191670Y-92919699D01*
X152227400Y-92930188D01*
X152235513Y-92933972D01*
X152285099Y-92940500D01*
X152464900Y-92940499D01*
X152514487Y-92933972D01*
X152522593Y-92930191D01*
X152591670Y-92919699D01*
X152627400Y-92930188D01*
X152635513Y-92933972D01*
X152685099Y-92940500D01*
X152864900Y-92940499D01*
X152914487Y-92933972D01*
X152922593Y-92930191D01*
X152991670Y-92919699D01*
X153027400Y-92930188D01*
X153035513Y-92933972D01*
X153085099Y-92940500D01*
X153264900Y-92940499D01*
X153314487Y-92933972D01*
X153322593Y-92930191D01*
X153391670Y-92919699D01*
X153427400Y-92930188D01*
X153435513Y-92933972D01*
X153485099Y-92940500D01*
X153664900Y-92940499D01*
X153714487Y-92933972D01*
X153722593Y-92930191D01*
X153791670Y-92919699D01*
X153827400Y-92930188D01*
X153835513Y-92933972D01*
X153885099Y-92940500D01*
X154064900Y-92940499D01*
X154114487Y-92933972D01*
X154122593Y-92930191D01*
X154191670Y-92919699D01*
X154227400Y-92930188D01*
X154235513Y-92933972D01*
X154285099Y-92940500D01*
X154464900Y-92940499D01*
X154514487Y-92933972D01*
X154522593Y-92930191D01*
X154591670Y-92919699D01*
X154627400Y-92930188D01*
X154635513Y-92933972D01*
X154685099Y-92940500D01*
X154864900Y-92940499D01*
X154914487Y-92933972D01*
X154922593Y-92930191D01*
X154937900Y-92927866D01*
X154951672Y-92920787D01*
X154986928Y-92919148D01*
X155008113Y-92921195D01*
G37*
%TD.AperFunction*%
%TA.AperFunction,Conductor*%
G36*
X145903926Y-96077685D02*
G01*
X145924568Y-96094319D01*
X146125177Y-96294928D01*
X146158662Y-96356251D01*
X146160952Y-96394207D01*
X146160930Y-96394434D01*
X146160931Y-96394435D01*
X146296663Y-96394435D01*
X146303030Y-96394599D01*
X146316109Y-96395271D01*
X146343090Y-96402501D01*
X146445911Y-96402501D01*
X146445915Y-96402500D01*
X146614400Y-96402500D01*
X146681439Y-96422185D01*
X146727194Y-96474989D01*
X146738400Y-96526500D01*
X146738400Y-96770435D01*
X146718715Y-96837474D01*
X146665911Y-96883229D01*
X146614400Y-96894435D01*
X146160932Y-96894435D01*
X146161187Y-96897164D01*
X146204994Y-97022354D01*
X146283758Y-97129076D01*
X146390480Y-97207840D01*
X146515667Y-97251646D01*
X146523043Y-97253257D01*
X146522506Y-97255713D01*
X146576168Y-97277084D01*
X146616799Y-97333924D01*
X146620250Y-97403709D01*
X146587374Y-97462374D01*
X146269068Y-97780681D01*
X146207745Y-97814166D01*
X146181387Y-97817000D01*
X145642030Y-97817000D01*
X145574991Y-97797315D01*
X145531546Y-97749295D01*
X145460443Y-97609748D01*
X145445722Y-97589486D01*
X145354930Y-97464519D01*
X145227980Y-97337569D01*
X145082755Y-97232059D01*
X145082754Y-97232058D01*
X145082752Y-97232057D01*
X144944540Y-97161634D01*
X144922797Y-97150555D01*
X144752069Y-97095083D01*
X144663413Y-97081041D01*
X144574759Y-97067000D01*
X144395241Y-97067000D01*
X144336138Y-97076361D01*
X144217930Y-97095083D01*
X144047202Y-97150555D01*
X143887244Y-97232059D01*
X143742019Y-97337569D01*
X143615073Y-97464515D01*
X143615069Y-97464520D01*
X143599818Y-97485512D01*
X143544488Y-97528178D01*
X143474875Y-97534157D01*
X143413080Y-97501551D01*
X143378723Y-97440713D01*
X143375500Y-97412627D01*
X143375500Y-96462372D01*
X143395185Y-96395333D01*
X143447989Y-96349578D01*
X143517147Y-96339634D01*
X143580703Y-96368659D01*
X143599819Y-96389488D01*
X143615072Y-96410482D01*
X143615073Y-96410484D01*
X143742019Y-96537430D01*
X143877916Y-96636163D01*
X143887248Y-96642943D01*
X144016054Y-96708573D01*
X144047202Y-96724444D01*
X144094775Y-96739901D01*
X144217932Y-96779917D01*
X144395241Y-96808000D01*
X144395242Y-96808000D01*
X144574758Y-96808000D01*
X144574759Y-96808000D01*
X144752068Y-96779917D01*
X144922800Y-96724443D01*
X145082752Y-96642943D01*
X145164293Y-96583700D01*
X145227980Y-96537430D01*
X145227982Y-96537427D01*
X145227986Y-96537425D01*
X145354925Y-96410486D01*
X145354927Y-96410482D01*
X145354930Y-96410480D01*
X145460442Y-96265253D01*
X145514018Y-96160105D01*
X145531546Y-96125704D01*
X145541994Y-96114641D01*
X145548317Y-96100797D01*
X145565496Y-96089756D01*
X145579519Y-96074909D01*
X145595200Y-96070667D01*
X145607095Y-96063023D01*
X145642030Y-96058000D01*
X145836887Y-96058000D01*
X145903926Y-96077685D01*
G37*
%TD.AperFunction*%
%TA.AperFunction,Conductor*%
G36*
X144019075Y-90780493D02*
G01*
X144084901Y-90894507D01*
X144177993Y-90987599D01*
X144292007Y-91053425D01*
X144355589Y-91070462D01*
X143866466Y-91559585D01*
X143866466Y-91559586D01*
X143882267Y-91571066D01*
X143882275Y-91571071D01*
X144043552Y-91653247D01*
X144043555Y-91653248D01*
X144215706Y-91709182D01*
X144394494Y-91737500D01*
X144575506Y-91737500D01*
X144754293Y-91709182D01*
X144926444Y-91653248D01*
X144926447Y-91653247D01*
X145087726Y-91571070D01*
X145089701Y-91569860D01*
X145090555Y-91569628D01*
X145092072Y-91568856D01*
X145092234Y-91569174D01*
X145157146Y-91551610D01*
X145223750Y-91572721D01*
X145268368Y-91626489D01*
X145278500Y-91675582D01*
X145278500Y-92050912D01*
X145258815Y-92117951D01*
X145206011Y-92163706D01*
X145136853Y-92173650D01*
X145087508Y-92153623D01*
X145086908Y-92154603D01*
X145082760Y-92152061D01*
X144922797Y-92070555D01*
X144752069Y-92015083D01*
X144622718Y-91994596D01*
X144574759Y-91987000D01*
X144395241Y-91987000D01*
X144347282Y-91994596D01*
X144217930Y-92015083D01*
X144047202Y-92070555D01*
X143887244Y-92152059D01*
X143742019Y-92257569D01*
X143615073Y-92384515D01*
X143615069Y-92384520D01*
X143599818Y-92405512D01*
X143544488Y-92448178D01*
X143474875Y-92454157D01*
X143413080Y-92421551D01*
X143378723Y-92360713D01*
X143375500Y-92332627D01*
X143375500Y-91329361D01*
X143395185Y-91262322D01*
X143447989Y-91216567D01*
X143509229Y-91205743D01*
X143512913Y-91206033D01*
X144002037Y-90716908D01*
X144019075Y-90780493D01*
G37*
%TD.AperFunction*%
%TA.AperFunction,Conductor*%
G36*
X163336919Y-83673446D02*
G01*
X163371277Y-83734284D01*
X163374500Y-83762372D01*
X163374500Y-84712627D01*
X163354815Y-84779666D01*
X163302011Y-84825421D01*
X163232853Y-84835365D01*
X163169297Y-84806340D01*
X163150182Y-84785512D01*
X163134930Y-84764520D01*
X163134926Y-84764515D01*
X163007980Y-84637569D01*
X162862755Y-84532059D01*
X162862754Y-84532058D01*
X162862752Y-84532057D01*
X162759604Y-84479500D01*
X162702797Y-84450555D01*
X162532069Y-84395083D01*
X162443413Y-84381041D01*
X162354759Y-84367000D01*
X162175241Y-84367000D01*
X162116138Y-84376361D01*
X161997930Y-84395083D01*
X161827202Y-84450555D01*
X161667244Y-84532059D01*
X161522019Y-84637569D01*
X161395069Y-84764519D01*
X161289559Y-84909744D01*
X161208055Y-85069702D01*
X161152583Y-85240430D01*
X161124500Y-85417741D01*
X161124500Y-85597258D01*
X161152583Y-85774569D01*
X161208055Y-85945297D01*
X161244371Y-86016570D01*
X161286694Y-86099634D01*
X161289559Y-86105255D01*
X161395069Y-86250480D01*
X161522019Y-86377430D01*
X161657454Y-86475827D01*
X161667248Y-86482943D01*
X161827200Y-86564443D01*
X161827202Y-86564444D01*
X161912566Y-86592180D01*
X161997932Y-86619917D01*
X162175241Y-86648000D01*
X162175242Y-86648000D01*
X162354758Y-86648000D01*
X162354759Y-86648000D01*
X162532068Y-86619917D01*
X162702800Y-86564443D01*
X162862752Y-86482943D01*
X162972617Y-86403122D01*
X163007980Y-86377430D01*
X163007982Y-86377427D01*
X163007986Y-86377425D01*
X163134925Y-86250486D01*
X163150181Y-86229488D01*
X163205510Y-86186822D01*
X163275123Y-86180841D01*
X163336919Y-86213446D01*
X163371277Y-86274284D01*
X163374500Y-86302372D01*
X163374500Y-87252627D01*
X163354815Y-87319666D01*
X163302011Y-87365421D01*
X163232853Y-87375365D01*
X163169297Y-87346340D01*
X163150182Y-87325512D01*
X163134930Y-87304520D01*
X163134926Y-87304515D01*
X163007980Y-87177569D01*
X162862755Y-87072059D01*
X162862754Y-87072058D01*
X162862752Y-87072057D01*
X162782776Y-87031307D01*
X162702797Y-86990555D01*
X162532069Y-86935083D01*
X162443413Y-86921041D01*
X162354759Y-86907000D01*
X162175241Y-86907000D01*
X162157689Y-86909780D01*
X161997930Y-86935083D01*
X161827202Y-86990555D01*
X161667244Y-87072059D01*
X161522019Y-87177569D01*
X161395069Y-87304519D01*
X161289559Y-87449744D01*
X161208055Y-87609702D01*
X161152583Y-87780430D01*
X161124500Y-87957741D01*
X161124500Y-88137258D01*
X161152583Y-88314569D01*
X161200979Y-88463519D01*
X161202974Y-88533361D01*
X161170729Y-88589518D01*
X160288227Y-89472022D01*
X160215523Y-89544725D01*
X160215519Y-89544730D01*
X160164113Y-89633769D01*
X160164112Y-89633772D01*
X160137500Y-89733090D01*
X160137500Y-91353886D01*
X160117815Y-91420925D01*
X160101181Y-91441567D01*
X159917275Y-91625472D01*
X159855952Y-91658957D01*
X159786260Y-91653973D01*
X159730327Y-91612101D01*
X159717873Y-91591592D01*
X159717851Y-91591547D01*
X159716109Y-91589443D01*
X159395457Y-91910095D01*
X159334134Y-91943580D01*
X159264442Y-91938596D01*
X159220095Y-91910095D01*
X159131000Y-91821000D01*
X159041904Y-91910096D01*
X158980581Y-91943581D01*
X158910889Y-91938597D01*
X158866542Y-91910096D01*
X158470518Y-91514072D01*
X158462735Y-91499819D01*
X158046180Y-91083264D01*
X158753288Y-91083264D01*
X159060216Y-91390192D01*
X159067998Y-91404444D01*
X159130999Y-91467445D01*
X159362554Y-91235889D01*
X159360450Y-91234147D01*
X159360440Y-91234140D01*
X159240945Y-91176595D01*
X159161408Y-91164607D01*
X159098051Y-91135151D01*
X159060677Y-91076117D01*
X159057274Y-91060472D01*
X159044138Y-90973320D01*
X158986586Y-90853813D01*
X158984843Y-90851708D01*
X158753288Y-91083264D01*
X158046180Y-91083264D01*
X157597177Y-90634261D01*
X157563692Y-90572938D01*
X157568676Y-90503246D01*
X157597177Y-90458899D01*
X157686273Y-90369803D01*
X158039827Y-90369803D01*
X158399733Y-90729709D01*
X158631288Y-90498153D01*
X158629184Y-90496411D01*
X158629174Y-90496404D01*
X158509679Y-90438859D01*
X158444617Y-90429053D01*
X158381260Y-90399597D01*
X158343886Y-90340563D01*
X158340483Y-90324917D01*
X158330678Y-90259859D01*
X158273125Y-90140352D01*
X158271382Y-90138247D01*
X158039827Y-90369803D01*
X157686273Y-90369803D01*
X157597176Y-90280706D01*
X157563691Y-90219383D01*
X157568675Y-90149691D01*
X157597176Y-90105344D01*
X157926665Y-89775854D01*
X157935429Y-89739848D01*
X157955083Y-89714253D01*
X158351278Y-89318059D01*
X158402689Y-89229013D01*
X158429301Y-89129696D01*
X158429301Y-89026876D01*
X158429301Y-89019281D01*
X158429300Y-89019263D01*
X158429300Y-87520412D01*
X158448985Y-87453373D01*
X158501789Y-87407618D01*
X158570947Y-87397674D01*
X158607264Y-87411834D01*
X158608010Y-87410146D01*
X158721123Y-87460089D01*
X158746206Y-87462999D01*
X159155999Y-87462999D01*
X159656000Y-87462999D01*
X160065786Y-87462999D01*
X160065808Y-87462997D01*
X160090869Y-87460091D01*
X160090873Y-87460090D01*
X160193474Y-87414788D01*
X160193479Y-87414785D01*
X160272785Y-87335479D01*
X160272788Y-87335474D01*
X160318089Y-87232877D01*
X160318089Y-87232875D01*
X160320999Y-87207794D01*
X160321000Y-87207791D01*
X160321000Y-86483000D01*
X159656000Y-86483000D01*
X159656000Y-87462999D01*
X159155999Y-87462999D01*
X159156000Y-87462998D01*
X159156000Y-85983000D01*
X159656000Y-85983000D01*
X160320999Y-85983000D01*
X160320999Y-85258214D01*
X160320997Y-85258191D01*
X160318091Y-85233130D01*
X160318090Y-85233126D01*
X160272788Y-85130525D01*
X160272785Y-85130520D01*
X160193479Y-85051214D01*
X160193474Y-85051211D01*
X160090876Y-85005910D01*
X160065794Y-85003000D01*
X159656000Y-85003000D01*
X159656000Y-85983000D01*
X159156000Y-85983000D01*
X159156000Y-85003000D01*
X158746214Y-85003000D01*
X158746191Y-85003002D01*
X158721130Y-85005908D01*
X158721126Y-85005909D01*
X158618525Y-85051211D01*
X158618518Y-85051215D01*
X158613085Y-85056649D01*
X158551761Y-85090132D01*
X158482069Y-85085145D01*
X158426137Y-85043272D01*
X158405632Y-85001058D01*
X158405562Y-85000796D01*
X158402689Y-84990073D01*
X158353282Y-84904498D01*
X158336810Y-84836601D01*
X158359662Y-84770574D01*
X158414583Y-84727383D01*
X158460670Y-84718500D01*
X160955908Y-84718500D01*
X160955910Y-84718500D01*
X161055228Y-84691888D01*
X161144273Y-84640478D01*
X161216978Y-84567773D01*
X161722982Y-84061767D01*
X161784303Y-84028284D01*
X161848977Y-84031518D01*
X161997932Y-84079917D01*
X162175241Y-84108000D01*
X162175242Y-84108000D01*
X162354758Y-84108000D01*
X162354759Y-84108000D01*
X162532068Y-84079917D01*
X162702800Y-84024443D01*
X162862752Y-83942943D01*
X162970017Y-83865011D01*
X163007980Y-83837430D01*
X163007982Y-83837427D01*
X163007986Y-83837425D01*
X163134925Y-83710486D01*
X163150181Y-83689488D01*
X163205510Y-83646822D01*
X163275123Y-83640841D01*
X163336919Y-83673446D01*
G37*
%TD.AperFunction*%
%TA.AperFunction,Conductor*%
G36*
X147102903Y-90251599D02*
G01*
X147109381Y-90257631D01*
X147424493Y-90572743D01*
X147435264Y-90592469D01*
X147449889Y-90609537D01*
X147451685Y-90622542D01*
X147457978Y-90634066D01*
X147456374Y-90656486D01*
X147459450Y-90678749D01*
X147453319Y-90699210D01*
X147452994Y-90703758D01*
X147449868Y-90710728D01*
X147449320Y-90712558D01*
X147445397Y-90721024D01*
X147444492Y-90722056D01*
X147443608Y-90723730D01*
X147443210Y-90723519D01*
X147426185Y-90742949D01*
X147409186Y-90766639D01*
X147403429Y-90768919D01*
X147399351Y-90773574D01*
X147371339Y-90781631D01*
X147344227Y-90792371D01*
X147338151Y-90791177D01*
X147332203Y-90792888D01*
X147304276Y-90784519D01*
X147275669Y-90778898D01*
X147271204Y-90774610D01*
X147265274Y-90772833D01*
X147239244Y-90748754D01*
X147239225Y-90748774D01*
X147238717Y-90748266D01*
X147234514Y-90744378D01*
X147233480Y-90743030D01*
X147233478Y-90743027D01*
X146934019Y-90443568D01*
X146900534Y-90382245D01*
X146897700Y-90355887D01*
X146897700Y-90345312D01*
X146917385Y-90278273D01*
X146970189Y-90232518D01*
X147039347Y-90222574D01*
X147102903Y-90251599D01*
G37*
%TD.AperFunction*%
%TA.AperFunction,Conductor*%
G36*
X143580703Y-88748659D02*
G01*
X143599819Y-88769488D01*
X143615072Y-88790482D01*
X143615073Y-88790484D01*
X143742019Y-88917430D01*
X143877491Y-89015854D01*
X143887248Y-89022943D01*
X144044242Y-89102936D01*
X144047202Y-89104444D01*
X144114891Y-89126437D01*
X144217932Y-89159917D01*
X144395241Y-89188000D01*
X144395242Y-89188000D01*
X144574758Y-89188000D01*
X144574759Y-89188000D01*
X144752068Y-89159917D01*
X144900471Y-89111697D01*
X144970309Y-89109703D01*
X145026468Y-89141948D01*
X145242181Y-89357661D01*
X145256884Y-89384588D01*
X145273477Y-89410407D01*
X145274368Y-89416607D01*
X145275666Y-89418984D01*
X145278500Y-89445342D01*
X145278500Y-89499417D01*
X145258815Y-89566456D01*
X145206011Y-89612211D01*
X145136853Y-89622155D01*
X145092134Y-89606020D01*
X145092072Y-89606144D01*
X145091088Y-89605643D01*
X145089714Y-89605147D01*
X145087733Y-89603933D01*
X144926447Y-89521752D01*
X144926444Y-89521751D01*
X144754293Y-89465817D01*
X144575506Y-89437500D01*
X144394494Y-89437500D01*
X144215706Y-89465817D01*
X144043555Y-89521751D01*
X144043547Y-89521754D01*
X143882269Y-89603932D01*
X143866466Y-89615412D01*
X143866466Y-89615413D01*
X144355590Y-90104537D01*
X144292007Y-90121575D01*
X144177993Y-90187401D01*
X144084901Y-90280493D01*
X144019075Y-90394507D01*
X144002037Y-90458090D01*
X143512913Y-89968966D01*
X143509229Y-89969256D01*
X143440852Y-89954892D01*
X143391095Y-89905840D01*
X143375500Y-89845638D01*
X143375500Y-88842372D01*
X143395185Y-88775333D01*
X143447989Y-88729578D01*
X143517147Y-88719634D01*
X143580703Y-88748659D01*
G37*
%TD.AperFunction*%
%TA.AperFunction,Conductor*%
G36*
X153485926Y-85229185D02*
G01*
X153506568Y-85245819D01*
X154104181Y-85843432D01*
X154137666Y-85904755D01*
X154140500Y-85931113D01*
X154140500Y-87206365D01*
X154140502Y-87206388D01*
X154143317Y-87230659D01*
X154143318Y-87230662D01*
X154187186Y-87330015D01*
X154187187Y-87330016D01*
X154263984Y-87406813D01*
X154363338Y-87450682D01*
X154387627Y-87453500D01*
X155615905Y-87453499D01*
X155682944Y-87473184D01*
X155728699Y-87525987D01*
X155738643Y-87595146D01*
X155709618Y-87658702D01*
X155703586Y-87665180D01*
X155050942Y-88317824D01*
X154989619Y-88351309D01*
X154919927Y-88346325D01*
X154863994Y-88304453D01*
X154855874Y-88292143D01*
X154855258Y-88291076D01*
X154777517Y-88156425D01*
X154667575Y-88046483D01*
X154667573Y-88046482D01*
X154667571Y-88046480D01*
X154532927Y-87968743D01*
X154532928Y-87968743D01*
X154491868Y-87957741D01*
X154382741Y-87928500D01*
X154227259Y-87928500D01*
X154118132Y-87957741D01*
X154077072Y-87968743D01*
X153942428Y-88046480D01*
X153942422Y-88046485D01*
X153896727Y-88092181D01*
X153869799Y-88106884D01*
X153843981Y-88123477D01*
X153837780Y-88124368D01*
X153835404Y-88125666D01*
X153809046Y-88128500D01*
X153795971Y-88128500D01*
X153728932Y-88108815D01*
X153696201Y-88078134D01*
X153689365Y-88068871D01*
X153685754Y-88058985D01*
X153683177Y-88056011D01*
X153682208Y-88049277D01*
X153665395Y-88003244D01*
X153680710Y-87935074D01*
X153689366Y-87921605D01*
X153738403Y-87855162D01*
X153772668Y-87757240D01*
X153299000Y-87757240D01*
X153231961Y-87737555D01*
X153186206Y-87684751D01*
X153175000Y-87633240D01*
X153175000Y-87507240D01*
X153049000Y-87507240D01*
X152981961Y-87487555D01*
X152936206Y-87434751D01*
X152925000Y-87383240D01*
X152925000Y-87257240D01*
X153425000Y-87257240D01*
X153772668Y-87257240D01*
X153738403Y-87159317D01*
X153659641Y-87052598D01*
X153552919Y-86973834D01*
X153427727Y-86930027D01*
X153427725Y-86930026D01*
X153425000Y-86929770D01*
X153425000Y-87257240D01*
X152925000Y-87257240D01*
X152925000Y-86971156D01*
X152819272Y-86944010D01*
X152790104Y-86926647D01*
X152760658Y-86909780D01*
X152760160Y-86908823D01*
X152759234Y-86908272D01*
X152744065Y-86877860D01*
X152728431Y-86847786D01*
X152728529Y-86846712D01*
X152728049Y-86845748D01*
X152731725Y-86812007D01*
X152734837Y-86778211D01*
X152735546Y-86776931D01*
X152735617Y-86776289D01*
X152736531Y-86775158D01*
X152750337Y-86750276D01*
X152784911Y-86703431D01*
X152814134Y-86619917D01*
X152827773Y-86580941D01*
X152827773Y-86580939D01*
X152828843Y-86569524D01*
X152830500Y-86551859D01*
X152830499Y-86168142D01*
X152827773Y-86139061D01*
X152784911Y-86016569D01*
X152744365Y-85961631D01*
X152720395Y-85896004D01*
X152735710Y-85827834D01*
X152744366Y-85814365D01*
X152793403Y-85747922D01*
X152827668Y-85650000D01*
X150532332Y-85650000D01*
X150566596Y-85747922D01*
X150615633Y-85814365D01*
X150624419Y-85838420D01*
X150636847Y-85860817D01*
X150636207Y-85870696D01*
X150639604Y-85879994D01*
X150633990Y-85904980D01*
X150632337Y-85930541D01*
X150625308Y-85943624D01*
X150624288Y-85948165D01*
X150615633Y-85961633D01*
X150574597Y-86017235D01*
X150518950Y-86059485D01*
X150449294Y-86064944D01*
X150433872Y-86060642D01*
X150306941Y-86016227D01*
X150306939Y-86016226D01*
X150277863Y-86013500D01*
X149894147Y-86013500D01*
X149878193Y-86014995D01*
X149865061Y-86016227D01*
X149865059Y-86016227D01*
X149865055Y-86016228D01*
X149742570Y-86059088D01*
X149687632Y-86099634D01*
X149622003Y-86123604D01*
X149553832Y-86108288D01*
X149540365Y-86099633D01*
X149473920Y-86050594D01*
X149376000Y-86016330D01*
X149376000Y-87211667D01*
X149473922Y-87177403D01*
X149540365Y-87128366D01*
X149561082Y-87120798D01*
X149579700Y-87108974D01*
X149593258Y-87109046D01*
X149605993Y-87104395D01*
X149627511Y-87109229D01*
X149649568Y-87109347D01*
X149667159Y-87118136D01*
X149674164Y-87119710D01*
X149681594Y-87124180D01*
X149684674Y-87126182D01*
X149742569Y-87168911D01*
X149759496Y-87174834D01*
X149772027Y-87182982D01*
X149785428Y-87198615D01*
X149802162Y-87210617D01*
X149807707Y-87224604D01*
X149817500Y-87236029D01*
X149820321Y-87256426D01*
X149827910Y-87275569D01*
X149825012Y-87290335D01*
X149827074Y-87305240D01*
X149818420Y-87323923D01*
X149814455Y-87344131D01*
X149804033Y-87354986D01*
X149797710Y-87368640D01*
X149780329Y-87379679D01*
X149766068Y-87394535D01*
X149750356Y-87398716D01*
X149738731Y-87406100D01*
X149722928Y-87406015D01*
X149704433Y-87410938D01*
X149589635Y-87410938D01*
X149589611Y-87410940D01*
X149565340Y-87413755D01*
X149565337Y-87413756D01*
X149465984Y-87457624D01*
X149389187Y-87534421D01*
X149345318Y-87633773D01*
X149345318Y-87633775D01*
X149342500Y-87658063D01*
X149342500Y-89344803D01*
X149342502Y-89344826D01*
X149346392Y-89378366D01*
X149345084Y-89378517D01*
X149344772Y-89394169D01*
X149348364Y-89419147D01*
X149344088Y-89428508D01*
X149343884Y-89438797D01*
X149329821Y-89459749D01*
X149319339Y-89482703D01*
X149310681Y-89488266D01*
X149304947Y-89496811D01*
X149281789Y-89506834D01*
X149260561Y-89520477D01*
X149245152Y-89522692D01*
X149240826Y-89524565D01*
X149225626Y-89525500D01*
X149175564Y-89525500D01*
X149108525Y-89505815D01*
X149062770Y-89453011D01*
X149052826Y-89383853D01*
X149052859Y-89383623D01*
X149053906Y-89376438D01*
X148884608Y-89376438D01*
X148877500Y-89374350D01*
X148870196Y-89375598D01*
X148844426Y-89364639D01*
X148817569Y-89356753D01*
X148812718Y-89351154D01*
X148805899Y-89348255D01*
X148790144Y-89325103D01*
X148771814Y-89303949D01*
X148770759Y-89296617D01*
X148766591Y-89290491D01*
X148765854Y-89262501D01*
X148761870Y-89234791D01*
X148764947Y-89228051D01*
X148764753Y-89220645D01*
X148779264Y-89196703D01*
X148790895Y-89171235D01*
X148798024Y-89165749D01*
X148800968Y-89160894D01*
X148830147Y-89141038D01*
X148834238Y-89139038D01*
X148888699Y-89126438D01*
X149053905Y-89126438D01*
X149053905Y-89126437D01*
X149047734Y-89084077D01*
X149028672Y-89045085D01*
X149016912Y-88976212D01*
X149028671Y-88936165D01*
X149038503Y-88916054D01*
X149048500Y-88847439D01*
X149048499Y-88655438D01*
X149038503Y-88586822D01*
X149023385Y-88555899D01*
X149011625Y-88487028D01*
X149023385Y-88446977D01*
X149038503Y-88416054D01*
X149048500Y-88347439D01*
X149048499Y-88155438D01*
X149038503Y-88086822D01*
X149023385Y-88055899D01*
X149011625Y-87987028D01*
X149023385Y-87946977D01*
X149038503Y-87916054D01*
X149048500Y-87847439D01*
X149048499Y-87655438D01*
X149038503Y-87586822D01*
X148986761Y-87480982D01*
X148986759Y-87480980D01*
X148986759Y-87480979D01*
X148903459Y-87397679D01*
X148900894Y-87395848D01*
X148898222Y-87392442D01*
X148896191Y-87390411D01*
X148896436Y-87390165D01*
X148857769Y-87340875D01*
X148851211Y-87271314D01*
X148876000Y-87223372D01*
X148876000Y-86436436D01*
X148880225Y-86404342D01*
X148880552Y-86403122D01*
X148898500Y-86336141D01*
X148898500Y-86180659D01*
X148858258Y-86030476D01*
X148785673Y-85904755D01*
X148776454Y-85888787D01*
X148778326Y-85887705D01*
X148757233Y-85833148D01*
X148771270Y-85764703D01*
X148820083Y-85714712D01*
X148861406Y-85700355D01*
X148960121Y-85684720D01*
X148960121Y-85684719D01*
X148960126Y-85684719D01*
X149080220Y-85623528D01*
X149114318Y-85589430D01*
X149175640Y-85555944D01*
X149245332Y-85560928D01*
X149289682Y-85589430D01*
X149323775Y-85623524D01*
X149323778Y-85623526D01*
X149323780Y-85623528D01*
X149443874Y-85684719D01*
X149443876Y-85684719D01*
X149443878Y-85684720D01*
X149543507Y-85700500D01*
X149543512Y-85700500D01*
X149880493Y-85700500D01*
X149980121Y-85684720D01*
X149980121Y-85684719D01*
X149980126Y-85684719D01*
X150100220Y-85623528D01*
X150195528Y-85528220D01*
X150256719Y-85408126D01*
X150265589Y-85352125D01*
X150271612Y-85314102D01*
X150301541Y-85250967D01*
X150360853Y-85214036D01*
X150394085Y-85209500D01*
X153418887Y-85209500D01*
X153485926Y-85229185D01*
G37*
%TD.AperFunction*%
%TA.AperFunction,Conductor*%
G36*
X157600952Y-87632075D02*
G01*
X157641480Y-87688989D01*
X157648300Y-87729545D01*
X157648300Y-88412873D01*
X157628615Y-88479912D01*
X157575811Y-88525667D01*
X157506653Y-88535611D01*
X157443097Y-88506586D01*
X157437610Y-88501478D01*
X157436833Y-88500770D01*
X157413862Y-88481735D01*
X157294354Y-88424184D01*
X157163198Y-88404416D01*
X157032038Y-88424184D01*
X157021087Y-88429458D01*
X156952145Y-88440808D01*
X156888012Y-88413083D01*
X156849049Y-88355086D01*
X156847626Y-88285230D01*
X156879607Y-88230058D01*
X157382478Y-87727188D01*
X157416913Y-87667544D01*
X157467480Y-87619329D01*
X157536087Y-87606106D01*
X157600952Y-87632075D01*
G37*
%TD.AperFunction*%
%TA.AperFunction,Conductor*%
G36*
X148361881Y-71707685D02*
G01*
X148407636Y-71760489D01*
X148417580Y-71829647D01*
X148397944Y-71880891D01*
X148346052Y-71958551D01*
X148346047Y-71958560D01*
X148285743Y-72104148D01*
X148285741Y-72104156D01*
X148255000Y-72258702D01*
X148255000Y-72387500D01*
X148755000Y-72387500D01*
X148755000Y-72887500D01*
X148255000Y-72887500D01*
X148255000Y-73016297D01*
X148285741Y-73170843D01*
X148285743Y-73170851D01*
X148346047Y-73316439D01*
X148346052Y-73316448D01*
X148433598Y-73447469D01*
X148433601Y-73447473D01*
X148545026Y-73558898D01*
X148545034Y-73558904D01*
X148676047Y-73646444D01*
X148676065Y-73646454D01*
X148804999Y-73699860D01*
X148805000Y-73699860D01*
X148805000Y-73104488D01*
X148814940Y-73121705D01*
X148870795Y-73177560D01*
X148939204Y-73217056D01*
X149015504Y-73237500D01*
X149094496Y-73237500D01*
X149170796Y-73217056D01*
X149239205Y-73177560D01*
X149295060Y-73121705D01*
X149305000Y-73104488D01*
X149305000Y-73699860D01*
X149433934Y-73646454D01*
X149433952Y-73646444D01*
X149564965Y-73558904D01*
X149564973Y-73558898D01*
X149676398Y-73447473D01*
X149676401Y-73447469D01*
X149763947Y-73316448D01*
X149763952Y-73316439D01*
X149824256Y-73170851D01*
X149824258Y-73170843D01*
X149854999Y-73016297D01*
X149855000Y-73016294D01*
X149855000Y-72887500D01*
X149355000Y-72887500D01*
X149355000Y-72387500D01*
X149855000Y-72387500D01*
X149855000Y-72258706D01*
X149854999Y-72258702D01*
X149824258Y-72104156D01*
X149824256Y-72104148D01*
X149763952Y-71958560D01*
X149763947Y-71958551D01*
X149712056Y-71880891D01*
X149691178Y-71814214D01*
X149709662Y-71746833D01*
X149761641Y-71700143D01*
X149815158Y-71688000D01*
X156934842Y-71688000D01*
X157001881Y-71707685D01*
X157047636Y-71760489D01*
X157057580Y-71829647D01*
X157037944Y-71880891D01*
X156986052Y-71958551D01*
X156986047Y-71958560D01*
X156925743Y-72104148D01*
X156925741Y-72104156D01*
X156895000Y-72258702D01*
X156895000Y-72387500D01*
X157395000Y-72387500D01*
X157395000Y-72887500D01*
X156895000Y-72887500D01*
X156895000Y-73016297D01*
X156925741Y-73170843D01*
X156925743Y-73170851D01*
X156986047Y-73316439D01*
X156986052Y-73316448D01*
X157073598Y-73447469D01*
X157073601Y-73447473D01*
X157185026Y-73558898D01*
X157185034Y-73558904D01*
X157316047Y-73646444D01*
X157316065Y-73646454D01*
X157444999Y-73699860D01*
X157445000Y-73699860D01*
X157445000Y-73104488D01*
X157454940Y-73121705D01*
X157510795Y-73177560D01*
X157579204Y-73217056D01*
X157655504Y-73237500D01*
X157734496Y-73237500D01*
X157810796Y-73217056D01*
X157879205Y-73177560D01*
X157935060Y-73121705D01*
X157945000Y-73104488D01*
X157945000Y-73699860D01*
X158073934Y-73646454D01*
X158073952Y-73646444D01*
X158204965Y-73558904D01*
X158204973Y-73558898D01*
X158316398Y-73447473D01*
X158316401Y-73447469D01*
X158339768Y-73412499D01*
X159046945Y-73412499D01*
X159046945Y-73412500D01*
X159402567Y-73412500D01*
X159902567Y-73412500D01*
X160258189Y-73412500D01*
X160258188Y-73412499D01*
X160226501Y-73321942D01*
X160226500Y-73321940D01*
X160148632Y-73216434D01*
X160043126Y-73138566D01*
X160043124Y-73138565D01*
X159919353Y-73095255D01*
X159902567Y-73093681D01*
X159902567Y-73412500D01*
X159402567Y-73412500D01*
X159402567Y-73093682D01*
X159402566Y-73093681D01*
X159385781Y-73095255D01*
X159385779Y-73095255D01*
X159262009Y-73138565D01*
X159262007Y-73138566D01*
X159156501Y-73216434D01*
X159078633Y-73321940D01*
X159078632Y-73321942D01*
X159046945Y-73412499D01*
X158339768Y-73412499D01*
X158372763Y-73363119D01*
X158403947Y-73316448D01*
X158403952Y-73316439D01*
X158464256Y-73170851D01*
X158464258Y-73170843D01*
X158494999Y-73016297D01*
X158495000Y-73016294D01*
X158495000Y-72887500D01*
X157995000Y-72887500D01*
X157995000Y-72387500D01*
X158495000Y-72387500D01*
X158495000Y-72258706D01*
X158494999Y-72258702D01*
X158464258Y-72104156D01*
X158464256Y-72104148D01*
X158403952Y-71958560D01*
X158403947Y-71958551D01*
X158352056Y-71880891D01*
X158331178Y-71814214D01*
X158349662Y-71746833D01*
X158401641Y-71700143D01*
X158455158Y-71688000D01*
X161483891Y-71688000D01*
X161550930Y-71707685D01*
X161596685Y-71760489D01*
X161606629Y-71829647D01*
X161577604Y-71893203D01*
X161556776Y-71912318D01*
X161522020Y-71937569D01*
X161522015Y-71937573D01*
X161395069Y-72064519D01*
X161289559Y-72209744D01*
X161208055Y-72369702D01*
X161152583Y-72540430D01*
X161124500Y-72717741D01*
X161124500Y-72897258D01*
X161152583Y-73074569D01*
X161200979Y-73223519D01*
X161202974Y-73293361D01*
X161170729Y-73349518D01*
X160593027Y-73927222D01*
X160520323Y-73999925D01*
X160520319Y-73999930D01*
X160468913Y-74088969D01*
X160468912Y-74088972D01*
X160442300Y-74188290D01*
X160442300Y-74280614D01*
X160433144Y-74311794D01*
X160425269Y-74343333D01*
X160423354Y-74345133D01*
X160422615Y-74347653D01*
X160398066Y-74368924D01*
X160374379Y-74391209D01*
X160371794Y-74391689D01*
X160369811Y-74393408D01*
X160337654Y-74398031D01*
X160305685Y-74403971D01*
X160303252Y-74402978D01*
X160300653Y-74403352D01*
X160271087Y-74389850D01*
X160240996Y-74377568D01*
X160239096Y-74375239D01*
X160237097Y-74374327D01*
X160216812Y-74351861D01*
X160211786Y-74344702D01*
X160186095Y-74294280D01*
X160153519Y-74261704D01*
X160147328Y-74252885D01*
X160139438Y-74229585D01*
X160127650Y-74207996D01*
X160128430Y-74197075D01*
X160124920Y-74186707D01*
X160130879Y-74162842D01*
X160132634Y-74138304D01*
X160140746Y-74123327D01*
X160141847Y-74118919D01*
X160144471Y-74116449D01*
X160149047Y-74108003D01*
X160226499Y-74003060D01*
X160226501Y-74003057D01*
X160258188Y-73912500D01*
X159046945Y-73912500D01*
X159078632Y-74003056D01*
X159127571Y-74069365D01*
X159151542Y-74134994D01*
X159136227Y-74203165D01*
X159086487Y-74252233D01*
X159027801Y-74267000D01*
X156671590Y-74267000D01*
X156572272Y-74293612D01*
X156572269Y-74293613D01*
X156483230Y-74345019D01*
X156483225Y-74345023D01*
X154458150Y-76370098D01*
X154396827Y-76403583D01*
X154327135Y-76398599D01*
X154308470Y-76389805D01*
X154226728Y-76342612D01*
X154127410Y-76316000D01*
X153225410Y-76316000D01*
X153122589Y-76316000D01*
X153072931Y-76329305D01*
X153072931Y-76329306D01*
X153023272Y-76342612D01*
X153023271Y-76342612D01*
X153023269Y-76342613D01*
X152934230Y-76394019D01*
X152934225Y-76394023D01*
X152812523Y-76515725D01*
X152812519Y-76515730D01*
X152761113Y-76604769D01*
X152761110Y-76604776D01*
X152755666Y-76625095D01*
X152719301Y-76684755D01*
X152656454Y-76715283D01*
X152635893Y-76717000D01*
X152431634Y-76717000D01*
X152431611Y-76717002D01*
X152398073Y-76720892D01*
X152398071Y-76720881D01*
X152371258Y-76724052D01*
X152350856Y-76723436D01*
X152342662Y-76719818D01*
X152318373Y-76717000D01*
X152137614Y-76717000D01*
X152135759Y-76716944D01*
X152104247Y-76706648D01*
X152072461Y-76697315D01*
X152071189Y-76695848D01*
X152069344Y-76695245D01*
X152048399Y-76669546D01*
X152026706Y-76644511D01*
X152026236Y-76642353D01*
X152025203Y-76641085D01*
X152024382Y-76633829D01*
X152015500Y-76593000D01*
X152015500Y-76420084D01*
X152015500Y-76420082D01*
X151988888Y-76320764D01*
X151963183Y-76276241D01*
X151937480Y-76231722D01*
X151937479Y-76231721D01*
X151937478Y-76231719D01*
X151864773Y-76159014D01*
X151864772Y-76159013D01*
X151860442Y-76154683D01*
X151860431Y-76154673D01*
X150050782Y-74345023D01*
X150050777Y-74345019D01*
X149961738Y-74293613D01*
X149961737Y-74293612D01*
X149961736Y-74293612D01*
X149862418Y-74267000D01*
X149862417Y-74267000D01*
X147774576Y-74267000D01*
X147707537Y-74247315D01*
X147661782Y-74194511D01*
X147651838Y-74125353D01*
X147674806Y-74069365D01*
X147723744Y-74003056D01*
X147755431Y-73912500D01*
X146544188Y-73912500D01*
X146575875Y-74003057D01*
X146575876Y-74003059D01*
X146653330Y-74108004D01*
X146677301Y-74173633D01*
X146661986Y-74241803D01*
X146641243Y-74269318D01*
X146616283Y-74294278D01*
X146555089Y-74414378D01*
X146539310Y-74514006D01*
X146539310Y-74850993D01*
X146555089Y-74950621D01*
X146555090Y-74950624D01*
X146555091Y-74950626D01*
X146604706Y-75048000D01*
X146616283Y-75070721D01*
X146616286Y-75070725D01*
X146711584Y-75166023D01*
X146711588Y-75166026D01*
X146711590Y-75166028D01*
X146831684Y-75227219D01*
X146831686Y-75227219D01*
X146831688Y-75227220D01*
X146931317Y-75243000D01*
X146931322Y-75243000D01*
X147368303Y-75243000D01*
X147467931Y-75227220D01*
X147467931Y-75227219D01*
X147467936Y-75227219D01*
X147588030Y-75166028D01*
X147669740Y-75084317D01*
X147731061Y-75050834D01*
X147757420Y-75048000D01*
X149597895Y-75048000D01*
X149664934Y-75067685D01*
X149685576Y-75084319D01*
X150205407Y-75604150D01*
X150238892Y-75665473D01*
X150233908Y-75735165D01*
X150192036Y-75791098D01*
X150179728Y-75799217D01*
X150131638Y-75826982D01*
X150131632Y-75826987D01*
X150024487Y-75934132D01*
X150024481Y-75934141D01*
X150009499Y-75960089D01*
X149958931Y-76008303D01*
X149890324Y-76021524D01*
X149825460Y-75995554D01*
X149787553Y-75945538D01*
X149763954Y-75888564D01*
X149763947Y-75888551D01*
X149676401Y-75757530D01*
X149676398Y-75757526D01*
X149564973Y-75646101D01*
X149564969Y-75646098D01*
X149433948Y-75558552D01*
X149433938Y-75558547D01*
X149305000Y-75505139D01*
X149305000Y-76100511D01*
X149295060Y-76083295D01*
X149239205Y-76027440D01*
X149170796Y-75987944D01*
X149094496Y-75967500D01*
X149015504Y-75967500D01*
X148939204Y-75987944D01*
X148870795Y-76027440D01*
X148814940Y-76083295D01*
X148805000Y-76100511D01*
X148805000Y-75505139D01*
X148804999Y-75505139D01*
X148676061Y-75558547D01*
X148676051Y-75558552D01*
X148545030Y-75646098D01*
X148545026Y-75646101D01*
X148433601Y-75757526D01*
X148433598Y-75757530D01*
X148346052Y-75888551D01*
X148346047Y-75888560D01*
X148285743Y-76034148D01*
X148285741Y-76034156D01*
X148255000Y-76188702D01*
X148255000Y-76567500D01*
X148755000Y-76567500D01*
X148755000Y-77067500D01*
X148255000Y-77067500D01*
X148255000Y-77446297D01*
X148285741Y-77600843D01*
X148285743Y-77600851D01*
X148346047Y-77746439D01*
X148346052Y-77746448D01*
X148433598Y-77877469D01*
X148433601Y-77877473D01*
X148545026Y-77988898D01*
X148545034Y-77988904D01*
X148676047Y-78076444D01*
X148676065Y-78076454D01*
X148804999Y-78129860D01*
X148805000Y-78129860D01*
X148805000Y-77534488D01*
X148814940Y-77551705D01*
X148870795Y-77607560D01*
X148939204Y-77647056D01*
X149015504Y-77667500D01*
X149094496Y-77667500D01*
X149170796Y-77647056D01*
X149239205Y-77607560D01*
X149295060Y-77551705D01*
X149305000Y-77534488D01*
X149305000Y-78129859D01*
X149353547Y-78109751D01*
X149423017Y-78102282D01*
X149485496Y-78133557D01*
X149521148Y-78193646D01*
X149525000Y-78224312D01*
X149525000Y-78502285D01*
X149525002Y-78502308D01*
X149527908Y-78527369D01*
X149527909Y-78527372D01*
X149538257Y-78550808D01*
X149547328Y-78620086D01*
X149517504Y-78683271D01*
X149486823Y-78708279D01*
X149370426Y-78775482D01*
X149307442Y-78838465D01*
X149251858Y-78870556D01*
X149201273Y-78884111D01*
X149201268Y-78884113D01*
X149112230Y-78935519D01*
X149046591Y-79001158D01*
X149046590Y-79001157D01*
X149046588Y-79001160D01*
X149039520Y-79008227D01*
X149039520Y-79008228D01*
X148953990Y-79093759D01*
X148867568Y-79180181D01*
X148806245Y-79213666D01*
X148779887Y-79216500D01*
X148752507Y-79216500D01*
X148652878Y-79232279D01*
X148532778Y-79293473D01*
X148532774Y-79293476D01*
X148437476Y-79388774D01*
X148437473Y-79388778D01*
X148437472Y-79388780D01*
X148376281Y-79508874D01*
X148376280Y-79508876D01*
X148371851Y-79517570D01*
X148369043Y-79516139D01*
X148338872Y-79560233D01*
X148274505Y-79587410D01*
X148205662Y-79575474D01*
X148154202Y-79528213D01*
X148145055Y-79509704D01*
X148101439Y-79399101D01*
X148012162Y-79281371D01*
X147894432Y-79192094D01*
X147894426Y-79192091D01*
X147756977Y-79137888D01*
X147670591Y-79127515D01*
X147641019Y-79127515D01*
X147641019Y-79828515D01*
X147621334Y-79895554D01*
X147568530Y-79941309D01*
X147517019Y-79952515D01*
X147391019Y-79952515D01*
X147391019Y-80078515D01*
X147371334Y-80145554D01*
X147318530Y-80191309D01*
X147267019Y-80202515D01*
X146616019Y-80202515D01*
X146616019Y-80282086D01*
X146626392Y-80368473D01*
X146680595Y-80505922D01*
X146680598Y-80505928D01*
X146769875Y-80623658D01*
X146887605Y-80712935D01*
X146898583Y-80717264D01*
X146953728Y-80760169D01*
X146976923Y-80826076D01*
X146960804Y-80894061D01*
X146910488Y-80942539D01*
X146898592Y-80947972D01*
X146892312Y-80950448D01*
X146892310Y-80950450D01*
X146892309Y-80950450D01*
X146892308Y-80950451D01*
X146806238Y-81015721D01*
X146776657Y-81038153D01*
X146688955Y-81153803D01*
X146635708Y-81288829D01*
X146625519Y-81373679D01*
X146625519Y-82031342D01*
X146635708Y-82116200D01*
X146688954Y-82251225D01*
X146688955Y-82251226D01*
X146776657Y-82366877D01*
X146892308Y-82454579D01*
X147027332Y-82507825D01*
X147112184Y-82518015D01*
X147669853Y-82518014D01*
X147754706Y-82507825D01*
X147889730Y-82454579D01*
X147972997Y-82391435D01*
X147997074Y-82373177D01*
X148062386Y-82348353D01*
X148130749Y-82362781D01*
X148180461Y-82411878D01*
X148196000Y-82471980D01*
X148196000Y-82549102D01*
X148206131Y-82633467D01*
X148206131Y-82633468D01*
X148259077Y-82767729D01*
X148346277Y-82882719D01*
X148454987Y-82965157D01*
X148496510Y-83021350D01*
X148501061Y-83091071D01*
X148467196Y-83152185D01*
X148454986Y-83162765D01*
X148353058Y-83240058D01*
X148267435Y-83352970D01*
X148267432Y-83352976D01*
X148215449Y-83484795D01*
X148215447Y-83484800D01*
X148205500Y-83567637D01*
X148205500Y-84098362D01*
X148215447Y-84181199D01*
X148215449Y-84181204D01*
X148267432Y-84313023D01*
X148267437Y-84313033D01*
X148322898Y-84386170D01*
X148347721Y-84451481D01*
X148333293Y-84519845D01*
X148308892Y-84547783D01*
X148310680Y-84549571D01*
X148208476Y-84651774D01*
X148208473Y-84651778D01*
X148147279Y-84771878D01*
X148131500Y-84871506D01*
X148131500Y-85071885D01*
X148122856Y-85101321D01*
X148116333Y-85131311D01*
X148112577Y-85136327D01*
X148111815Y-85138924D01*
X148095182Y-85159565D01*
X148050789Y-85203958D01*
X148050785Y-85203964D01*
X147995519Y-85259230D01*
X147941887Y-85352125D01*
X147891320Y-85400341D01*
X147822713Y-85413564D01*
X147757848Y-85387596D01*
X147717320Y-85330681D01*
X147710500Y-85290125D01*
X147710500Y-85027154D01*
X147730185Y-84960115D01*
X147746819Y-84939473D01*
X147767792Y-84918500D01*
X147792517Y-84893775D01*
X147870258Y-84759124D01*
X147910500Y-84608941D01*
X147910500Y-84453459D01*
X147870258Y-84303276D01*
X147847611Y-84264051D01*
X147792519Y-84168628D01*
X147792514Y-84168622D01*
X147682577Y-84058685D01*
X147682571Y-84058680D01*
X147547927Y-83980943D01*
X147547928Y-83980943D01*
X147535611Y-83977642D01*
X147397741Y-83940700D01*
X147242259Y-83940700D01*
X147104388Y-83977642D01*
X147092072Y-83980943D01*
X146957428Y-84058680D01*
X146957422Y-84058685D01*
X146847485Y-84168622D01*
X146847480Y-84168628D01*
X146769743Y-84303272D01*
X146769742Y-84303276D01*
X146729500Y-84453459D01*
X146729500Y-84453461D01*
X146729500Y-84608938D01*
X146729499Y-84608938D01*
X146769743Y-84759127D01*
X146847480Y-84893771D01*
X146847485Y-84893777D01*
X146893181Y-84939473D01*
X146926666Y-85000796D01*
X146929500Y-85027154D01*
X146929500Y-85689687D01*
X146909815Y-85756726D01*
X146893181Y-85777368D01*
X146188975Y-86481574D01*
X146186771Y-86479370D01*
X146142230Y-86511884D01*
X146072484Y-86516028D01*
X146012619Y-86482869D01*
X145810880Y-86281130D01*
X145579269Y-86049518D01*
X145545784Y-85988195D01*
X145549018Y-85923523D01*
X145597417Y-85774568D01*
X145625500Y-85597259D01*
X145625500Y-85417741D01*
X145597417Y-85240432D01*
X145548341Y-85089390D01*
X145541944Y-85069702D01*
X145528477Y-85043272D01*
X145460443Y-84909748D01*
X145453663Y-84900416D01*
X145354930Y-84764519D01*
X145227980Y-84637569D01*
X145082755Y-84532059D01*
X145082754Y-84532058D01*
X145082752Y-84532057D01*
X144979604Y-84479500D01*
X144922797Y-84450555D01*
X144752069Y-84395083D01*
X144663413Y-84381041D01*
X144574759Y-84367000D01*
X144395241Y-84367000D01*
X144336138Y-84376361D01*
X144217930Y-84395083D01*
X144047202Y-84450555D01*
X143887244Y-84532059D01*
X143742019Y-84637569D01*
X143615073Y-84764515D01*
X143615069Y-84764520D01*
X143599818Y-84785512D01*
X143544488Y-84828178D01*
X143474875Y-84834157D01*
X143413080Y-84801551D01*
X143378723Y-84740713D01*
X143375500Y-84712627D01*
X143375500Y-83762372D01*
X143395185Y-83695333D01*
X143447989Y-83649578D01*
X143517147Y-83639634D01*
X143580703Y-83668659D01*
X143599819Y-83689488D01*
X143615072Y-83710482D01*
X143615073Y-83710484D01*
X143742019Y-83837430D01*
X143860704Y-83923658D01*
X143887248Y-83942943D01*
X144047200Y-84024443D01*
X144047202Y-84024444D01*
X144132566Y-84052180D01*
X144217932Y-84079917D01*
X144395241Y-84108000D01*
X144395242Y-84108000D01*
X144574758Y-84108000D01*
X144574759Y-84108000D01*
X144752068Y-84079917D01*
X144922800Y-84024443D01*
X145082752Y-83942943D01*
X145190017Y-83865011D01*
X145227980Y-83837430D01*
X145227982Y-83837427D01*
X145227986Y-83837425D01*
X145354925Y-83710486D01*
X145354927Y-83710482D01*
X145354930Y-83710480D01*
X145418650Y-83622775D01*
X145460443Y-83565252D01*
X145541943Y-83405300D01*
X145597417Y-83234568D01*
X145625500Y-83057259D01*
X145625500Y-82877741D01*
X145597417Y-82700432D01*
X145550947Y-82557411D01*
X145541944Y-82529702D01*
X145525712Y-82497846D01*
X145460443Y-82369748D01*
X145444899Y-82348353D01*
X145354930Y-82224519D01*
X145227980Y-82097569D01*
X145082755Y-81992059D01*
X145082754Y-81992058D01*
X145082752Y-81992057D01*
X145002776Y-81951307D01*
X144922797Y-81910555D01*
X144752069Y-81855083D01*
X144663413Y-81841041D01*
X144574759Y-81827000D01*
X144395241Y-81827000D01*
X144336138Y-81836361D01*
X144217930Y-81855083D01*
X144047202Y-81910555D01*
X143887244Y-81992059D01*
X143742019Y-82097569D01*
X143615073Y-82224515D01*
X143615069Y-82224520D01*
X143599818Y-82245512D01*
X143544488Y-82288178D01*
X143474875Y-82294157D01*
X143413080Y-82261551D01*
X143378723Y-82200713D01*
X143375500Y-82172627D01*
X143375500Y-81222372D01*
X143395185Y-81155333D01*
X143447989Y-81109578D01*
X143517147Y-81099634D01*
X143580703Y-81128659D01*
X143599819Y-81149488D01*
X143615072Y-81170482D01*
X143615073Y-81170484D01*
X143742019Y-81297430D01*
X143874783Y-81393887D01*
X143887248Y-81402943D01*
X144025896Y-81473588D01*
X144047202Y-81484444D01*
X144124219Y-81509468D01*
X144217932Y-81539917D01*
X144395241Y-81568000D01*
X144395242Y-81568000D01*
X144574758Y-81568000D01*
X144574759Y-81568000D01*
X144752068Y-81539917D01*
X144922800Y-81484443D01*
X145082752Y-81402943D01*
X145184170Y-81329259D01*
X145227980Y-81297430D01*
X145227982Y-81297427D01*
X145227986Y-81297425D01*
X145354925Y-81170486D01*
X145354927Y-81170482D01*
X145354930Y-81170480D01*
X145431473Y-81065126D01*
X145460443Y-81025252D01*
X145541943Y-80865300D01*
X145597417Y-80694568D01*
X145625500Y-80517259D01*
X145625500Y-80337741D01*
X145597417Y-80160432D01*
X145551073Y-80017800D01*
X145541944Y-79989702D01*
X145534693Y-79975471D01*
X145460443Y-79829748D01*
X145420785Y-79775163D01*
X145360449Y-79692116D01*
X145360448Y-79692115D01*
X145354928Y-79684517D01*
X145293354Y-79622943D01*
X146616019Y-79622943D01*
X146616019Y-79702515D01*
X147141019Y-79702515D01*
X147141019Y-79127515D01*
X147111447Y-79127515D01*
X147025060Y-79137888D01*
X146887611Y-79192091D01*
X146887605Y-79192094D01*
X146769875Y-79281371D01*
X146680598Y-79399101D01*
X146680595Y-79399107D01*
X146626392Y-79536556D01*
X146616019Y-79622943D01*
X145293354Y-79622943D01*
X145227980Y-79557569D01*
X145082755Y-79452059D01*
X145082754Y-79452058D01*
X145082752Y-79452057D01*
X144995809Y-79407757D01*
X144922797Y-79370555D01*
X144752069Y-79315083D01*
X144663413Y-79301041D01*
X144574759Y-79287000D01*
X144395241Y-79287000D01*
X144354372Y-79293473D01*
X144217930Y-79315083D01*
X144047202Y-79370555D01*
X143887244Y-79452059D01*
X143742019Y-79557569D01*
X143615073Y-79684515D01*
X143615069Y-79684520D01*
X143599818Y-79705512D01*
X143544488Y-79748178D01*
X143474875Y-79754157D01*
X143413080Y-79721551D01*
X143378723Y-79660713D01*
X143375500Y-79632627D01*
X143375500Y-78629361D01*
X143395185Y-78562322D01*
X143447989Y-78516567D01*
X143509229Y-78505743D01*
X143512913Y-78506033D01*
X144002037Y-78016908D01*
X144019075Y-78080493D01*
X144084901Y-78194507D01*
X144177993Y-78287599D01*
X144292007Y-78353425D01*
X144355590Y-78370462D01*
X143866466Y-78859585D01*
X143866466Y-78859586D01*
X143882267Y-78871066D01*
X143882275Y-78871071D01*
X144043552Y-78953247D01*
X144043555Y-78953248D01*
X144215706Y-79009182D01*
X144394494Y-79037500D01*
X144575506Y-79037500D01*
X144754293Y-79009182D01*
X144926444Y-78953248D01*
X144926452Y-78953245D01*
X145087730Y-78871068D01*
X145103532Y-78859585D01*
X145103533Y-78859585D01*
X144614410Y-78370462D01*
X144677993Y-78353425D01*
X144792007Y-78287599D01*
X144885099Y-78194507D01*
X144950925Y-78080493D01*
X144967962Y-78016909D01*
X145457085Y-78506032D01*
X145468568Y-78490230D01*
X145550745Y-78328952D01*
X145550748Y-78328944D01*
X145606682Y-78156793D01*
X145635000Y-77978006D01*
X145635000Y-77796993D01*
X145606682Y-77618206D01*
X145550748Y-77446055D01*
X145550747Y-77446052D01*
X145468571Y-77284775D01*
X145468566Y-77284767D01*
X145457085Y-77268966D01*
X144967962Y-77758089D01*
X144950925Y-77694507D01*
X144885099Y-77580493D01*
X144792007Y-77487401D01*
X144677993Y-77421575D01*
X144614409Y-77404537D01*
X145090490Y-76928457D01*
X145103533Y-76915413D01*
X145087730Y-76903931D01*
X144926447Y-76821752D01*
X144926444Y-76821751D01*
X144754293Y-76765817D01*
X144575506Y-76737500D01*
X144394494Y-76737500D01*
X144215706Y-76765817D01*
X144043555Y-76821751D01*
X144043547Y-76821754D01*
X143882269Y-76903932D01*
X143866466Y-76915412D01*
X143866466Y-76915413D01*
X144355591Y-77404537D01*
X144292007Y-77421575D01*
X144177993Y-77487401D01*
X144084901Y-77580493D01*
X144019075Y-77694507D01*
X144002037Y-77758090D01*
X143512913Y-77268966D01*
X143509229Y-77269256D01*
X143495618Y-77266396D01*
X143481853Y-77268376D01*
X143462101Y-77259355D01*
X143440852Y-77254892D01*
X143430948Y-77245128D01*
X143418297Y-77239351D01*
X143406556Y-77221082D01*
X143391095Y-77205840D01*
X143387268Y-77191069D01*
X143380523Y-77180573D01*
X143375500Y-77145638D01*
X143375500Y-76142372D01*
X143395185Y-76075333D01*
X143447989Y-76029578D01*
X143517147Y-76019634D01*
X143580703Y-76048659D01*
X143599819Y-76069488D01*
X143615072Y-76090482D01*
X143615073Y-76090484D01*
X143742019Y-76217430D01*
X143877692Y-76316000D01*
X143887248Y-76322943D01*
X144026742Y-76394019D01*
X144047202Y-76404444D01*
X144095332Y-76420082D01*
X144217932Y-76459917D01*
X144395241Y-76488000D01*
X144395242Y-76488000D01*
X144574758Y-76488000D01*
X144574759Y-76488000D01*
X144752068Y-76459917D01*
X144922800Y-76404443D01*
X145082752Y-76322943D01*
X145182707Y-76250322D01*
X145227980Y-76217430D01*
X145227982Y-76217427D01*
X145227986Y-76217425D01*
X145354925Y-76090486D01*
X145354927Y-76090482D01*
X145354930Y-76090480D01*
X145404678Y-76022007D01*
X145460443Y-75945252D01*
X145541943Y-75785300D01*
X145597417Y-75614568D01*
X145625500Y-75437259D01*
X145625500Y-75257741D01*
X145597417Y-75080432D01*
X145541943Y-74909700D01*
X145460443Y-74749748D01*
X145453663Y-74740416D01*
X145354930Y-74604519D01*
X145227980Y-74477569D01*
X145082755Y-74372059D01*
X145082754Y-74372058D01*
X145082752Y-74372057D01*
X144964480Y-74311794D01*
X144922797Y-74290555D01*
X144752069Y-74235083D01*
X144581047Y-74207996D01*
X144574759Y-74207000D01*
X144395241Y-74207000D01*
X144388953Y-74207996D01*
X144217930Y-74235083D01*
X144047202Y-74290555D01*
X143887244Y-74372059D01*
X143742019Y-74477569D01*
X143615073Y-74604515D01*
X143615069Y-74604520D01*
X143599818Y-74625512D01*
X143544488Y-74668178D01*
X143474875Y-74674157D01*
X143413080Y-74641551D01*
X143378723Y-74580713D01*
X143375500Y-74552627D01*
X143375500Y-74050778D01*
X143395185Y-73983739D01*
X143447989Y-73937984D01*
X143517147Y-73928040D01*
X143549583Y-73937342D01*
X143567338Y-73945182D01*
X143591627Y-73948000D01*
X145378372Y-73947999D01*
X145402662Y-73945182D01*
X145502016Y-73901313D01*
X145578813Y-73824516D01*
X145622682Y-73725162D01*
X145625500Y-73700873D01*
X145625500Y-73412499D01*
X146544188Y-73412499D01*
X146544188Y-73412500D01*
X146899810Y-73412500D01*
X147399810Y-73412500D01*
X147755432Y-73412500D01*
X147755431Y-73412499D01*
X147723744Y-73321942D01*
X147723743Y-73321940D01*
X147645875Y-73216434D01*
X147540369Y-73138566D01*
X147540367Y-73138565D01*
X147416596Y-73095255D01*
X147399810Y-73093681D01*
X147399810Y-73412500D01*
X146899810Y-73412500D01*
X146899810Y-73093682D01*
X146899809Y-73093681D01*
X146883024Y-73095255D01*
X146883022Y-73095255D01*
X146759252Y-73138565D01*
X146759250Y-73138566D01*
X146653744Y-73216434D01*
X146575876Y-73321940D01*
X146575875Y-73321942D01*
X146544188Y-73412499D01*
X145625500Y-73412499D01*
X145625499Y-72717741D01*
X145625499Y-71914134D01*
X145625499Y-71914128D01*
X145622682Y-71889838D01*
X145610428Y-71862085D01*
X145601357Y-71792807D01*
X145631181Y-71729622D01*
X145690431Y-71692592D01*
X145723863Y-71688000D01*
X148294842Y-71688000D01*
X148361881Y-71707685D01*
G37*
%TD.AperFunction*%
%TA.AperFunction,Conductor*%
G36*
X161034334Y-77728330D02*
G01*
X161090267Y-77770202D01*
X161114684Y-77835666D01*
X161115000Y-77844512D01*
X161115000Y-77978006D01*
X161143317Y-78156793D01*
X161199251Y-78328944D01*
X161199252Y-78328947D01*
X161281431Y-78490230D01*
X161292913Y-78506032D01*
X161292913Y-78506033D01*
X161782037Y-78016909D01*
X161799075Y-78080493D01*
X161864901Y-78194507D01*
X161957993Y-78287599D01*
X162072007Y-78353425D01*
X162135590Y-78370462D01*
X161646466Y-78859585D01*
X161646466Y-78859586D01*
X161662267Y-78871066D01*
X161662275Y-78871071D01*
X161823552Y-78953247D01*
X161823555Y-78953248D01*
X161995706Y-79009182D01*
X162174494Y-79037500D01*
X162355506Y-79037500D01*
X162534293Y-79009182D01*
X162706444Y-78953248D01*
X162706452Y-78953245D01*
X162867730Y-78871068D01*
X162883532Y-78859585D01*
X162883533Y-78859585D01*
X162394410Y-78370462D01*
X162457993Y-78353425D01*
X162572007Y-78287599D01*
X162665099Y-78194507D01*
X162730925Y-78080493D01*
X162747962Y-78016909D01*
X163237084Y-78506032D01*
X163240772Y-78505742D01*
X163309149Y-78520106D01*
X163358905Y-78569158D01*
X163374500Y-78629360D01*
X163374500Y-79632627D01*
X163354815Y-79699666D01*
X163302011Y-79745421D01*
X163232853Y-79755365D01*
X163169297Y-79726340D01*
X163150182Y-79705512D01*
X163134930Y-79684520D01*
X163134926Y-79684515D01*
X163007980Y-79557569D01*
X162862755Y-79452059D01*
X162862754Y-79452058D01*
X162862752Y-79452057D01*
X162775809Y-79407757D01*
X162702797Y-79370555D01*
X162532069Y-79315083D01*
X162443413Y-79301041D01*
X162354759Y-79287000D01*
X162175241Y-79287000D01*
X162134372Y-79293473D01*
X161997930Y-79315083D01*
X161827202Y-79370555D01*
X161667244Y-79452059D01*
X161522019Y-79557569D01*
X161395069Y-79684519D01*
X161289559Y-79829744D01*
X161208055Y-79989702D01*
X161152583Y-80160430D01*
X161129210Y-80308006D01*
X161124500Y-80337741D01*
X161124500Y-80517259D01*
X161133136Y-80571787D01*
X161152583Y-80694569D01*
X161208055Y-80865297D01*
X161289559Y-81025255D01*
X161395069Y-81170480D01*
X161522019Y-81297430D01*
X161654783Y-81393887D01*
X161667248Y-81402943D01*
X161805896Y-81473588D01*
X161827202Y-81484444D01*
X161904219Y-81509468D01*
X161997932Y-81539917D01*
X162175241Y-81568000D01*
X162175242Y-81568000D01*
X162354758Y-81568000D01*
X162354759Y-81568000D01*
X162532068Y-81539917D01*
X162702800Y-81484443D01*
X162862752Y-81402943D01*
X162964170Y-81329259D01*
X163007980Y-81297430D01*
X163007982Y-81297427D01*
X163007986Y-81297425D01*
X163134925Y-81170486D01*
X163150181Y-81149488D01*
X163205510Y-81106822D01*
X163275123Y-81100841D01*
X163336919Y-81133446D01*
X163371277Y-81194284D01*
X163374500Y-81222372D01*
X163374500Y-82172627D01*
X163354815Y-82239666D01*
X163302011Y-82285421D01*
X163232853Y-82295365D01*
X163169297Y-82266340D01*
X163150182Y-82245512D01*
X163134930Y-82224520D01*
X163134926Y-82224515D01*
X163007980Y-82097569D01*
X162862755Y-81992059D01*
X162862754Y-81992058D01*
X162862752Y-81992057D01*
X162782776Y-81951307D01*
X162702797Y-81910555D01*
X162532069Y-81855083D01*
X162443413Y-81841041D01*
X162354759Y-81827000D01*
X162175241Y-81827000D01*
X162116138Y-81836361D01*
X161997930Y-81855083D01*
X161827202Y-81910555D01*
X161667244Y-81992059D01*
X161522019Y-82097569D01*
X161395069Y-82224519D01*
X161289559Y-82369744D01*
X161208055Y-82529702D01*
X161152583Y-82700430D01*
X161124500Y-82877741D01*
X161124500Y-83057258D01*
X161152583Y-83234569D01*
X161200979Y-83383519D01*
X161202974Y-83453361D01*
X161170729Y-83509518D01*
X160779068Y-83901181D01*
X160717745Y-83934666D01*
X160691387Y-83937500D01*
X159730828Y-83937500D01*
X159663789Y-83917815D01*
X159618034Y-83865011D01*
X159608090Y-83795853D01*
X159637115Y-83732297D01*
X159685338Y-83698146D01*
X159743284Y-83675294D01*
X159743282Y-83675294D01*
X159743287Y-83675293D01*
X159861677Y-83585516D01*
X159951454Y-83467126D01*
X160005962Y-83328905D01*
X160016392Y-83242051D01*
X160016392Y-82557411D01*
X160005962Y-82470557D01*
X159962486Y-82360311D01*
X159951455Y-82332338D01*
X159951454Y-82332336D01*
X159917968Y-82288178D01*
X159861677Y-82213946D01*
X159743287Y-82124169D01*
X159743286Y-82124168D01*
X159743284Y-82124167D01*
X159605067Y-82069661D01*
X159592658Y-82068171D01*
X159518212Y-82059231D01*
X158833572Y-82059231D01*
X158768431Y-82067053D01*
X158746716Y-82069661D01*
X158608499Y-82124167D01*
X158608497Y-82124168D01*
X158490107Y-82213946D01*
X158400329Y-82332336D01*
X158400328Y-82332338D01*
X158361531Y-82430721D01*
X158318626Y-82485865D01*
X158252718Y-82509058D01*
X158246177Y-82509231D01*
X157655607Y-82509231D01*
X157588568Y-82489546D01*
X157542813Y-82436742D01*
X157540253Y-82430721D01*
X157501455Y-82332338D01*
X157501454Y-82332336D01*
X157467968Y-82288178D01*
X157411677Y-82213946D01*
X157293287Y-82124169D01*
X157293286Y-82124168D01*
X157293284Y-82124167D01*
X157155067Y-82069661D01*
X157142658Y-82068171D01*
X157068212Y-82059231D01*
X156383572Y-82059231D01*
X156355305Y-82062625D01*
X156343341Y-82064062D01*
X156274433Y-82052510D01*
X156240878Y-82028627D01*
X155693819Y-81481568D01*
X155660334Y-81420245D01*
X155657500Y-81393887D01*
X155657500Y-81329261D01*
X155657500Y-81329259D01*
X155617258Y-81179076D01*
X155612297Y-81170484D01*
X155539519Y-81044428D01*
X155539514Y-81044422D01*
X155429577Y-80934485D01*
X155429571Y-80934480D01*
X155294927Y-80856743D01*
X155294928Y-80856743D01*
X155282611Y-80853442D01*
X155144741Y-80816500D01*
X154989259Y-80816500D01*
X154851388Y-80853442D01*
X154839072Y-80856743D01*
X154704428Y-80934480D01*
X154704422Y-80934485D01*
X154702181Y-80936727D01*
X154699824Y-80938013D01*
X154697979Y-80939430D01*
X154697758Y-80939142D01*
X154682744Y-80947339D01*
X154666011Y-80961840D01*
X154652679Y-80963756D01*
X154640858Y-80970212D01*
X154618771Y-80968632D01*
X154596853Y-80971784D01*
X154584601Y-80966188D01*
X154571166Y-80965228D01*
X154553439Y-80951957D01*
X154533297Y-80942759D01*
X154526014Y-80931427D01*
X154515233Y-80923356D01*
X154507495Y-80902610D01*
X154495523Y-80883981D01*
X154492371Y-80862062D01*
X154490816Y-80857892D01*
X154490500Y-80849046D01*
X154490500Y-80631515D01*
X154510185Y-80564476D01*
X154537199Y-80534558D01*
X154579566Y-80500785D01*
X154651010Y-80411225D01*
X154700731Y-80308012D01*
X154726235Y-80196322D01*
X154726235Y-80190435D01*
X154726240Y-80190419D01*
X154726240Y-80134976D01*
X154726245Y-80082893D01*
X154726244Y-80082890D01*
X154726245Y-80074535D01*
X154726240Y-80074445D01*
X154726240Y-79720517D01*
X154726242Y-79717613D01*
X154718699Y-79684519D01*
X154706947Y-79632953D01*
X154700777Y-79605881D01*
X154690167Y-79583836D01*
X154651081Y-79502625D01*
X154650677Y-79502118D01*
X154579640Y-79413018D01*
X154562190Y-79399101D01*
X154537182Y-79379155D01*
X154497044Y-79321964D01*
X154490500Y-79282212D01*
X154490500Y-78981037D01*
X154493636Y-78953326D01*
X154494140Y-78951124D01*
X154515500Y-78871411D01*
X154515500Y-78857965D01*
X154518636Y-78844288D01*
X154529136Y-78825559D01*
X154535185Y-78804960D01*
X154545882Y-78795690D01*
X154552805Y-78783343D01*
X154571763Y-78773264D01*
X154587989Y-78759205D01*
X154605291Y-78755441D01*
X154614499Y-78750546D01*
X154624128Y-78751342D01*
X154639500Y-78747999D01*
X154818366Y-78747999D01*
X154818372Y-78747999D01*
X154824792Y-78747254D01*
X154851928Y-78744108D01*
X154852059Y-78745241D01*
X154897943Y-78745241D01*
X154898075Y-78744107D01*
X154907336Y-78745181D01*
X154907338Y-78745182D01*
X154931627Y-78748000D01*
X155310500Y-78747999D01*
X155377539Y-78767683D01*
X155423294Y-78820487D01*
X155434500Y-78871999D01*
X155434500Y-79250249D01*
X155459065Y-79341925D01*
X155461112Y-79349566D01*
X155461113Y-79349569D01*
X155483598Y-79388514D01*
X155498281Y-79413946D01*
X155512522Y-79438612D01*
X155512524Y-79438614D01*
X155849073Y-79775163D01*
X155882558Y-79836486D01*
X155885392Y-79862844D01*
X155885392Y-80442051D01*
X155888913Y-80471369D01*
X155895822Y-80528906D01*
X155950328Y-80667123D01*
X155950329Y-80667125D01*
X155971140Y-80694568D01*
X156040107Y-80785516D01*
X156123885Y-80849046D01*
X156158497Y-80875293D01*
X156158499Y-80875294D01*
X156188224Y-80887016D01*
X156296718Y-80929801D01*
X156383572Y-80940231D01*
X156383578Y-80940231D01*
X157068206Y-80940231D01*
X157068212Y-80940231D01*
X157155066Y-80929801D01*
X157293287Y-80875293D01*
X157411677Y-80785516D01*
X157501454Y-80667126D01*
X157555962Y-80528905D01*
X157555962Y-80528899D01*
X157556319Y-80527491D01*
X157556924Y-80526464D01*
X157558879Y-80521509D01*
X157559666Y-80521819D01*
X157591831Y-80467318D01*
X157598297Y-80461676D01*
X157605965Y-80455438D01*
X157680842Y-80412209D01*
X157753547Y-80339504D01*
X157753547Y-80339503D01*
X158123711Y-79969339D01*
X158185034Y-79935854D01*
X158254726Y-79940838D01*
X158310659Y-79982710D01*
X158335076Y-80048174D01*
X158335392Y-80057020D01*
X158335392Y-80442051D01*
X158338913Y-80471369D01*
X158345822Y-80528906D01*
X158400328Y-80667123D01*
X158400329Y-80667125D01*
X158421140Y-80694568D01*
X158490107Y-80785516D01*
X158573885Y-80849046D01*
X158608497Y-80875293D01*
X158608499Y-80875294D01*
X158638224Y-80887016D01*
X158746718Y-80929801D01*
X158833572Y-80940231D01*
X158833578Y-80940231D01*
X159518206Y-80940231D01*
X159518212Y-80940231D01*
X159605066Y-80929801D01*
X159743287Y-80875293D01*
X159861677Y-80785516D01*
X159951454Y-80667126D01*
X160005962Y-80528905D01*
X160016392Y-80442051D01*
X160016392Y-79757411D01*
X160005962Y-79670557D01*
X159961405Y-79557569D01*
X159951455Y-79532338D01*
X159951454Y-79532336D01*
X159940257Y-79517570D01*
X159861677Y-79413946D01*
X159743287Y-79324169D01*
X159743286Y-79324168D01*
X159644901Y-79285369D01*
X159628310Y-79272460D01*
X159609189Y-79263728D01*
X159601289Y-79251436D01*
X159589757Y-79242463D01*
X159582779Y-79222633D01*
X159571415Y-79204950D01*
X159567862Y-79180242D01*
X159566565Y-79176555D01*
X159566392Y-79170015D01*
X159566392Y-79145120D01*
X159586077Y-79078081D01*
X159602706Y-79057444D01*
X160903321Y-77756829D01*
X160964642Y-77723346D01*
X161034334Y-77728330D01*
G37*
%TD.AperFunction*%
%TA.AperFunction,Conductor*%
G36*
X150473723Y-79312377D02*
G01*
X150512592Y-79338684D01*
X150562425Y-79388517D01*
X150562426Y-79388518D01*
X150562428Y-79388519D01*
X150697072Y-79466256D01*
X150697073Y-79466256D01*
X150697076Y-79466258D01*
X150754095Y-79481536D01*
X150813754Y-79517900D01*
X150844283Y-79580747D01*
X150846000Y-79601310D01*
X150846000Y-81166000D01*
X150862102Y-81166000D01*
X150946467Y-81155868D01*
X150946468Y-81155868D01*
X151080729Y-81102922D01*
X151195721Y-81015721D01*
X151278157Y-80907013D01*
X151334349Y-80865490D01*
X151404071Y-80860938D01*
X151465185Y-80894803D01*
X151475765Y-80907013D01*
X151553058Y-81008941D01*
X151627150Y-81065126D01*
X151665973Y-81094566D01*
X151676988Y-81098909D01*
X151693579Y-81111817D01*
X151712703Y-81120551D01*
X151720600Y-81132840D01*
X151732131Y-81141811D01*
X151739110Y-81161642D01*
X151750477Y-81179329D01*
X151754028Y-81204027D01*
X151755327Y-81207718D01*
X151755500Y-81214264D01*
X151755500Y-81386730D01*
X151735815Y-81453769D01*
X151683011Y-81499524D01*
X151613853Y-81509468D01*
X151590546Y-81503772D01*
X151533417Y-81483782D01*
X151503022Y-81480932D01*
X151111315Y-81480932D01*
X151111315Y-82680931D01*
X151503011Y-82680931D01*
X151533422Y-82678079D01*
X151533424Y-82678079D01*
X151546309Y-82673571D01*
X151616087Y-82670008D01*
X151676715Y-82704737D01*
X151708943Y-82766730D01*
X151710723Y-82802187D01*
X151708315Y-82827870D01*
X151708315Y-83234001D01*
X151711698Y-83270079D01*
X151698359Y-83338664D01*
X151650057Y-83389148D01*
X151582129Y-83405505D01*
X151547288Y-83398699D01*
X151531636Y-83393222D01*
X151531629Y-83393221D01*
X151501885Y-83390432D01*
X151501881Y-83390432D01*
X150220749Y-83390432D01*
X150220745Y-83390432D01*
X150191000Y-83393221D01*
X150190988Y-83393223D01*
X150065659Y-83437079D01*
X149958816Y-83515933D01*
X149958814Y-83515935D01*
X149947390Y-83531414D01*
X149891741Y-83573663D01*
X149822085Y-83579120D01*
X149760536Y-83546052D01*
X149729666Y-83492118D01*
X149729469Y-83492196D01*
X149728933Y-83490838D01*
X149727400Y-83488159D01*
X149726553Y-83484812D01*
X149726552Y-83484800D01*
X149674566Y-83352973D01*
X149673571Y-83351661D01*
X149588941Y-83240058D01*
X149487013Y-83162765D01*
X149445490Y-83106573D01*
X149440938Y-83036852D01*
X149474802Y-82975738D01*
X149487013Y-82965157D01*
X149595721Y-82882721D01*
X149682922Y-82767729D01*
X149735868Y-82633468D01*
X149735868Y-82633466D01*
X149737284Y-82621679D01*
X149764821Y-82557464D01*
X149822703Y-82518332D01*
X149892554Y-82516705D01*
X149948080Y-82548782D01*
X149952020Y-82552722D01*
X150061169Y-82633278D01*
X150189212Y-82678081D01*
X150219607Y-82680931D01*
X150611314Y-82680931D01*
X150611315Y-82680930D01*
X150611315Y-82330932D01*
X149876000Y-82330932D01*
X149876000Y-82409000D01*
X149856315Y-82476039D01*
X149803511Y-82521794D01*
X149752000Y-82533000D01*
X149095000Y-82533000D01*
X149027961Y-82513315D01*
X148982206Y-82460511D01*
X148971000Y-82409000D01*
X148971000Y-82157000D01*
X148990685Y-82089961D01*
X149043489Y-82044206D01*
X149095000Y-82033000D01*
X149693815Y-82033000D01*
X149693815Y-81954932D01*
X149713500Y-81887893D01*
X149766304Y-81842138D01*
X149817815Y-81830932D01*
X150611315Y-81830932D01*
X150611315Y-81480932D01*
X150219618Y-81480932D01*
X150189208Y-81483783D01*
X150061169Y-81528585D01*
X149952022Y-81609139D01*
X149871468Y-81718286D01*
X149871467Y-81718289D01*
X149869070Y-81725140D01*
X149828347Y-81781916D01*
X149763394Y-81807662D01*
X149694833Y-81794205D01*
X149653225Y-81759109D01*
X149595721Y-81683278D01*
X149480729Y-81596077D01*
X149480723Y-81596074D01*
X149347258Y-81543442D01*
X149292114Y-81500537D01*
X149268921Y-81434629D01*
X149285042Y-81366644D01*
X149335359Y-81318168D01*
X149336274Y-81317695D01*
X149409220Y-81280528D01*
X149504528Y-81185220D01*
X149565719Y-81065126D01*
X149565720Y-81065121D01*
X149581500Y-80965493D01*
X149581500Y-80682102D01*
X149846000Y-80682102D01*
X149856131Y-80766467D01*
X149856131Y-80766468D01*
X149909077Y-80900729D01*
X149996278Y-81015721D01*
X150111270Y-81102922D01*
X150245532Y-81155868D01*
X150329898Y-81166000D01*
X150346000Y-81166000D01*
X150346000Y-80641000D01*
X149846000Y-80641000D01*
X149846000Y-80682102D01*
X149581500Y-80682102D01*
X149581500Y-80628507D01*
X149578416Y-80609037D01*
X149578416Y-80609036D01*
X149565720Y-80528878D01*
X149565719Y-80528876D01*
X149565719Y-80528874D01*
X149504528Y-80408780D01*
X149504526Y-80408778D01*
X149504524Y-80408775D01*
X149470430Y-80374682D01*
X149436944Y-80313360D01*
X149441928Y-80243668D01*
X149470430Y-80199318D01*
X149504524Y-80165224D01*
X149504528Y-80165220D01*
X149565719Y-80045126D01*
X149570047Y-80017800D01*
X149581879Y-79943102D01*
X149596475Y-79912310D01*
X149610639Y-79881297D01*
X149611413Y-79880799D01*
X149611808Y-79879967D01*
X149640746Y-79861948D01*
X149669417Y-79843523D01*
X149670614Y-79843350D01*
X149671120Y-79843036D01*
X149704352Y-79838500D01*
X149743751Y-79838500D01*
X149810790Y-79858185D01*
X149856545Y-79910989D01*
X149866489Y-79980147D01*
X149859106Y-80007990D01*
X149856131Y-80015531D01*
X149856131Y-80015532D01*
X149846000Y-80099897D01*
X149846000Y-80141000D01*
X150346000Y-80141000D01*
X150346000Y-79616000D01*
X150317538Y-79587538D01*
X150311785Y-79577002D01*
X150302529Y-79569360D01*
X150295350Y-79546905D01*
X150284053Y-79526215D01*
X150284377Y-79512578D01*
X150281254Y-79502808D01*
X150285444Y-79467764D01*
X150285848Y-79466258D01*
X150305137Y-79394269D01*
X150341501Y-79334611D01*
X150404348Y-79304082D01*
X150473723Y-79312377D01*
G37*
%TD.AperFunction*%
%TA.AperFunction,Conductor*%
G36*
X160389745Y-74983036D02*
G01*
X160433197Y-75037751D01*
X160442300Y-75084385D01*
X160442300Y-75999487D01*
X160422615Y-76066526D01*
X160405981Y-76087168D01*
X160170123Y-76323025D01*
X160170119Y-76323030D01*
X160118713Y-76412069D01*
X160118712Y-76412072D01*
X160092100Y-76511390D01*
X160092100Y-76845086D01*
X160072415Y-76912125D01*
X160055781Y-76932767D01*
X157580790Y-79407757D01*
X157519467Y-79441242D01*
X157449775Y-79436258D01*
X157418184Y-79418880D01*
X157293286Y-79324168D01*
X157293284Y-79324167D01*
X157155067Y-79269661D01*
X157142658Y-79268171D01*
X157068212Y-79259231D01*
X157068206Y-79259231D01*
X156489005Y-79259231D01*
X156459564Y-79250586D01*
X156429578Y-79244063D01*
X156424562Y-79240308D01*
X156421966Y-79239546D01*
X156401324Y-79222912D01*
X156251819Y-79073407D01*
X156218334Y-79012084D01*
X156215500Y-78985726D01*
X156215500Y-78881499D01*
X156235185Y-78814460D01*
X156287989Y-78768705D01*
X156339499Y-78757499D01*
X156375000Y-78757498D01*
X156375000Y-78636659D01*
X156385564Y-78586576D01*
X156412682Y-78525162D01*
X156415500Y-78500873D01*
X156415499Y-77822359D01*
X156435183Y-77755322D01*
X156487987Y-77709567D01*
X156557146Y-77699623D01*
X156559258Y-77699945D01*
X156770759Y-77734084D01*
X156793677Y-77745031D01*
X156818039Y-77752185D01*
X156824667Y-77759834D01*
X156833806Y-77764200D01*
X156847167Y-77785800D01*
X156863794Y-77804989D01*
X156866375Y-77816853D01*
X156870561Y-77823621D01*
X156870361Y-77835179D01*
X156875000Y-77856500D01*
X156875000Y-78757499D01*
X156969786Y-78757499D01*
X156969808Y-78757497D01*
X156994869Y-78754591D01*
X156994873Y-78754590D01*
X157097474Y-78709288D01*
X157097479Y-78709285D01*
X157176785Y-78629979D01*
X157176788Y-78629974D01*
X157222089Y-78527377D01*
X157222089Y-78527375D01*
X157224999Y-78502294D01*
X157224999Y-78224312D01*
X157244683Y-78157273D01*
X157297487Y-78111518D01*
X157366646Y-78101574D01*
X157396451Y-78109751D01*
X157444999Y-78129860D01*
X157445000Y-78129860D01*
X157445000Y-77534488D01*
X157454940Y-77551705D01*
X157510795Y-77607560D01*
X157579204Y-77647056D01*
X157655504Y-77667500D01*
X157734496Y-77667500D01*
X157810796Y-77647056D01*
X157879205Y-77607560D01*
X157935060Y-77551705D01*
X157945000Y-77534488D01*
X157945000Y-78129860D01*
X158073934Y-78076454D01*
X158073952Y-78076444D01*
X158204965Y-77988904D01*
X158204973Y-77988898D01*
X158316398Y-77877473D01*
X158316401Y-77877469D01*
X158403947Y-77746448D01*
X158403952Y-77746439D01*
X158464256Y-77600851D01*
X158464258Y-77600843D01*
X158494999Y-77446297D01*
X158495000Y-77446294D01*
X158495000Y-77067500D01*
X157995000Y-77067500D01*
X157995000Y-76567500D01*
X158495000Y-76567500D01*
X158495000Y-76188706D01*
X158494999Y-76188702D01*
X158464258Y-76034156D01*
X158464256Y-76034148D01*
X158403952Y-75888560D01*
X158403947Y-75888551D01*
X158316401Y-75757530D01*
X158316398Y-75757526D01*
X158204973Y-75646101D01*
X158204969Y-75646098D01*
X158073948Y-75558552D01*
X158073938Y-75558547D01*
X157945000Y-75505139D01*
X157945000Y-76100511D01*
X157935060Y-76083295D01*
X157879205Y-76027440D01*
X157810796Y-75987944D01*
X157734496Y-75967500D01*
X157655504Y-75967500D01*
X157579204Y-75987944D01*
X157510795Y-76027440D01*
X157454940Y-76083295D01*
X157445000Y-76100511D01*
X157445000Y-75505139D01*
X157444999Y-75505139D01*
X157316061Y-75558547D01*
X157316051Y-75558552D01*
X157185030Y-75646098D01*
X157185026Y-75646101D01*
X157073601Y-75757526D01*
X157073598Y-75757530D01*
X156986052Y-75888551D01*
X156986049Y-75888557D01*
X156962446Y-75945540D01*
X156918604Y-75999943D01*
X156852310Y-76022007D01*
X156784611Y-76004727D01*
X156740498Y-75960087D01*
X156725515Y-75934135D01*
X156618365Y-75826985D01*
X156487135Y-75751219D01*
X156453565Y-75742224D01*
X156393907Y-75705859D01*
X156363379Y-75643012D01*
X156371674Y-75573636D01*
X156397978Y-75534772D01*
X156848432Y-75084319D01*
X156909755Y-75050834D01*
X156936113Y-75048000D01*
X159044957Y-75048000D01*
X159111996Y-75067685D01*
X159132633Y-75084314D01*
X159214347Y-75166028D01*
X159334441Y-75227219D01*
X159334443Y-75227219D01*
X159334445Y-75227220D01*
X159434074Y-75243000D01*
X159434079Y-75243000D01*
X159871060Y-75243000D01*
X159970688Y-75227220D01*
X159970688Y-75227219D01*
X159970693Y-75227219D01*
X160090787Y-75166028D01*
X160186095Y-75070720D01*
X160207816Y-75028089D01*
X160255789Y-74977295D01*
X160323610Y-74960499D01*
X160389745Y-74983036D01*
G37*
%TD.AperFunction*%
%TA.AperFunction,Conductor*%
G36*
X150068039Y-77502185D02*
G01*
X150113794Y-77554989D01*
X150125000Y-77606500D01*
X150125000Y-77732500D01*
X150210501Y-77732500D01*
X150277540Y-77752185D01*
X150323295Y-77804989D01*
X150334501Y-77856500D01*
X150334501Y-78500865D01*
X150334502Y-78500888D01*
X150337317Y-78525159D01*
X150337317Y-78525161D01*
X150337318Y-78525162D01*
X150364434Y-78586575D01*
X150366483Y-78596288D01*
X150369977Y-78601724D01*
X150375000Y-78636659D01*
X150375000Y-78670788D01*
X150370775Y-78702878D01*
X150356140Y-78757498D01*
X150352863Y-78769729D01*
X150316497Y-78829389D01*
X150253650Y-78859917D01*
X150184274Y-78851622D01*
X150145407Y-78825315D01*
X150095577Y-78775485D01*
X150095571Y-78775480D01*
X149960927Y-78697743D01*
X149953418Y-78694633D01*
X149954577Y-78691833D01*
X149907238Y-78662971D01*
X149876715Y-78600121D01*
X149875000Y-78579570D01*
X149875000Y-77982500D01*
X149519000Y-77982500D01*
X149451961Y-77962815D01*
X149406206Y-77910011D01*
X149395000Y-77858500D01*
X149395000Y-77606500D01*
X149414685Y-77539461D01*
X149467489Y-77493706D01*
X149519000Y-77482500D01*
X150001000Y-77482500D01*
X150068039Y-77502185D01*
G37*
%TD.AperFunction*%
%TA.AperFunction,Conductor*%
G36*
X163336919Y-76053446D02*
G01*
X163371277Y-76114284D01*
X163374500Y-76142372D01*
X163374500Y-77145638D01*
X163354815Y-77212677D01*
X163302011Y-77258432D01*
X163240773Y-77269256D01*
X163237086Y-77268965D01*
X162747962Y-77758089D01*
X162730925Y-77694507D01*
X162665099Y-77580493D01*
X162572007Y-77487401D01*
X162457993Y-77421575D01*
X162394409Y-77404537D01*
X162883533Y-76915413D01*
X162867730Y-76903931D01*
X162706447Y-76821752D01*
X162706444Y-76821751D01*
X162534293Y-76765817D01*
X162355506Y-76737500D01*
X162174494Y-76737500D01*
X161995706Y-76765817D01*
X161823555Y-76821751D01*
X161823547Y-76821754D01*
X161662269Y-76903932D01*
X161646466Y-76915412D01*
X161646466Y-76915413D01*
X162135591Y-77404537D01*
X162072007Y-77421575D01*
X161957993Y-77487401D01*
X161864901Y-77580493D01*
X161799075Y-77694507D01*
X161782037Y-77758090D01*
X161310420Y-77286473D01*
X161295715Y-77259543D01*
X161279125Y-77233730D01*
X161278233Y-77227527D01*
X161276935Y-77225150D01*
X161274101Y-77198796D01*
X161274101Y-77191069D01*
X161274101Y-77172890D01*
X161274100Y-77172886D01*
X161274100Y-76942012D01*
X161293785Y-76874973D01*
X161310415Y-76854335D01*
X161722982Y-76441767D01*
X161784303Y-76408284D01*
X161848977Y-76411518D01*
X161997932Y-76459917D01*
X162175241Y-76488000D01*
X162175242Y-76488000D01*
X162354758Y-76488000D01*
X162354759Y-76488000D01*
X162532068Y-76459917D01*
X162702800Y-76404443D01*
X162862752Y-76322943D01*
X162962707Y-76250322D01*
X163007980Y-76217430D01*
X163007982Y-76217427D01*
X163007986Y-76217425D01*
X163134925Y-76090486D01*
X163150181Y-76069488D01*
X163205510Y-76026822D01*
X163275123Y-76020841D01*
X163336919Y-76053446D01*
G37*
%TD.AperFunction*%
%TD*%
M02*
